UbuntuSans-CondensedRegular.ufo
<glyph name="percent" format="2">
  <advance width="653.902"/>
  <unicode hex="0025"/>
  <outline>
    <contour>
      <point x="154" y="0" type="line"/>
      <point x="214" y="0" type="line"/>
      <point x="499" y="693" type="line"/>
      <point x="439" y="693" type="line"/>
    </contour>
    <contour>
      <point x="163" y="344" type="curve" smooth="yes"/>
      <point x="236" y="344"/>
      <point x="275" y="403"/>
      <point x="275" y="525" type="curve" smooth="yes"/>
      <point x="275" y="647"/>
      <point x="236" y="706"/>
      <point x="163" y="706" type="curve" smooth="yes"/>
      <point x="91" y="706"/>
      <point x="51" y="648"/>
      <point x="51" y="526" type="curve" smooth="yes"/>
      <point x="51" y="404"/>
      <point x="91" y="344"/>
    </contour>
    <contour>
      <point x="163" y="393" type="curve" smooth="yes"/>
      <point x="127" y="393"/>
      <point x="109" y="432"/>
      <point x="109" y="526" type="curve" smooth="yes"/>
      <point x="109" y="620"/>
      <point x="127" y="657"/>
      <point x="163" y="657" type="curve" smooth="yes"/>
      <point x="199" y="657"/>
      <point x="217" y="619"/>
      <point x="217" y="525" type="curve" smooth="yes"/>
      <point x="217" y="431"/>
      <point x="199" y="393"/>
    </contour>
    <contour>
      <point x="490" y="-14" type="curve" smooth="yes"/>
      <point x="563" y="-14"/>
      <point x="603" y="46"/>
      <point x="603" y="167" type="curve" smooth="yes"/>
      <point x="603" y="290"/>
      <point x="563" y="349"/>
      <point x="490" y="349" type="curve" smooth="yes"/>
      <point x="418" y="349"/>
      <point x="378" y="291"/>
      <point x="378" y="168" type="curve" smooth="yes"/>
      <point x="378" y="47"/>
      <point x="418" y="-14"/>
    </contour>
    <contour>
      <point x="490" y="36" type="curve" smooth="yes"/>
      <point x="455" y="36"/>
      <point x="436" y="75"/>
      <point x="436" y="168" type="curve" smooth="yes"/>
      <point x="436" y="263"/>
      <point x="455" y="300"/>
      <point x="490" y="300" type="curve" smooth="yes"/>
      <point x="527" y="300"/>
      <point x="545" y="262"/>
      <point x="545" y="167" type="curve" smooth="yes"/>
      <point x="545" y="74"/>
      <point x="527" y="36"/>
    </contour>
  </outline>
</glyph>
<glyph name="quotesingle" format="2">
  <advance width="187.156"/>
  <unicode hex="0027"/>
  <outline>
    <contour>
      <point x="73" y="510" type="curve"/>
      <point x="113" y="510" type="line"/>
      <point x="121" y="575"/>
      <point x="127" y="641"/>
      <point x="127" y="702" type="curve" smooth="yes"/>
      <point x="127" y="760" type="line"/>
      <point x="59" y="760" type="line"/>
      <point x="59" y="702" type="line" smooth="yes"/>
      <point x="59" y="642"/>
      <point x="65" y="575"/>
    </contour>
  </outline>
</glyph>
<glyph name="parenright" format="2">
  <advance width="259.84"/>
  <unicode hex="0029"/>
  <outline>
    <contour>
      <point x="57" y="-187" type="line"/>
      <point x="148" y="-33"/>
      <point x="193" y="128"/>
      <point x="193" y="299" type="curve" smooth="yes"/>
      <point x="193" y="470"/>
      <point x="148" y="631"/>
      <point x="57" y="785" type="curve"/>
      <point x="4" y="755" type="line"/>
      <point x="85" y="606"/>
      <point x="123" y="462"/>
      <point x="123" y="299" type="curve" smooth="yes"/>
      <point x="123" y="136"/>
      <point x="85" y="-8"/>
      <point x="4" y="-157" type="curve"/>
    </contour>
  </outline>
</glyph>
<glyph name="asterisk" format="2">
  <advance width="388.648"/>
  <unicode hex="002A"/>
  <outline>
    <contour>
      <point x="133" y="407" type="line"/>
      <point x="158" y="443"/>
      <point x="175" y="474"/>
      <point x="194" y="524" type="curve"/>
      <point x="214" y="474"/>
      <point x="230" y="444"/>
      <point x="256" y="407" type="curve"/>
      <point x="307" y="445" type="line"/>
      <point x="284" y="483"/>
      <point x="260" y="510"/>
      <point x="219" y="544" type="curve"/>
      <point x="271" y="547"/>
      <point x="305" y="553"/>
      <point x="346" y="569" type="curve"/>
      <point x="326" y="630" type="line"/>
      <point x="285" y="616"/>
      <point x="254" y="602"/>
      <point x="210" y="573" type="curve"/>
      <point x="224" y="624"/>
      <point x="228" y="660"/>
      <point x="227" y="707" type="curve"/>
      <point x="163" y="707" type="line"/>
      <point x="161" y="661"/>
      <point x="166" y="624"/>
      <point x="179" y="572" type="curve"/>
      <point x="135" y="601"/>
      <point x="104" y="616"/>
      <point x="63" y="629" type="curve"/>
      <point x="42" y="568" type="line"/>
      <point x="83" y="553"/>
      <point x="117" y="545"/>
      <point x="170" y="543" type="curve"/>
      <point x="129" y="510"/>
      <point x="105" y="483"/>
      <point x="81" y="445" type="curve"/>
    </contour>
  </outline>
</glyph>
<glyph name="zero" format="2">
  <advance width="420"/>
  <unicode hex="0030"/>
  <outline>
    <contour>
      <point x="209" y="-11" type="curve" smooth="yes"/>
      <point x="324" y="-11"/>
      <point x="374" y="99"/>
      <point x="374" y="348" type="curve" smooth="yes"/>
      <point x="374" y="597"/>
      <point x="324" y="707"/>
      <point x="209" y="707" type="curve" smooth="yes"/>
      <point x="95" y="707"/>
      <point x="45" y="598"/>
      <point x="45" y="348" type="curve" smooth="yes"/>
      <point x="45" y="98"/>
      <point x="95" y="-11"/>
    </contour>
    <contour>
      <point x="209" y="50" type="curve" smooth="yes"/>
      <point x="145" y="50"/>
      <point x="118" y="132"/>
      <point x="118" y="348" type="curve" smooth="yes"/>
      <point x="118" y="563"/>
      <point x="145" y="646"/>
      <point x="209" y="646" type="curve" smooth="yes"/>
      <point x="275" y="646"/>
      <point x="302" y="563"/>
      <point x="302" y="348" type="curve" smooth="yes"/>
      <point x="302" y="132"/>
      <point x="275" y="50"/>
    </contour>
  </outline>
</glyph>
<glyph name="three" format="2">
  <advance width="420"/>
  <unicode hex="0033"/>
  <outline>
    <contour>
      <point x="175" y="-15" type="curve" smooth="yes"/>
      <point x="284" y="-15"/>
      <point x="362" y="58"/>
      <point x="362" y="185" type="curve" smooth="yes"/>
      <point x="362" y="283"/>
      <point x="322" y="342"/>
      <point x="244" y="371" type="curve"/>
      <point x="311" y="398"/>
      <point x="344" y="463"/>
      <point x="344" y="543" type="curve"/>
      <point x="344" y="644"/>
      <point x="285" y="706"/>
      <point x="185" y="706" type="curve" smooth="yes"/>
      <point x="134" y="706"/>
      <point x="82" y="690"/>
      <point x="48" y="662" type="curve"/>
      <point x="74" y="612" type="line"/>
      <point x="101" y="633"/>
      <point x="138" y="646"/>
      <point x="171" y="646" type="curve" smooth="yes"/>
      <point x="238" y="646"/>
      <point x="272" y="602"/>
      <point x="272" y="534" type="curve"/>
      <point x="272" y="466"/>
      <point x="243" y="399"/>
      <point x="154" y="399" type="curve" smooth="yes"/>
      <point x="121" y="399" type="line"/>
      <point x="121" y="337" type="line"/>
      <point x="152" y="337" type="line" smooth="yes"/>
      <point x="242" y="337"/>
      <point x="290" y="286"/>
      <point x="290" y="186" type="curve" smooth="yes"/>
      <point x="290" y="84"/>
      <point x="235" y="47"/>
      <point x="169" y="47" type="curve" smooth="yes"/>
      <point x="129" y="47"/>
      <point x="92" y="57"/>
      <point x="56" y="77" type="curve"/>
      <point x="37" y="19" type="line"/>
      <point x="76" y="-3"/>
      <point x="124" y="-15"/>
    </contour>
  </outline>
</glyph>
<glyph name="four" format="2">
  <advance width="420"/>
  <unicode hex="0034"/>
  <outline>
    <contour>
      <point x="258" y="0" type="line"/>
      <point x="325" y="0" type="line"/>
      <point x="325" y="169" type="line"/>
      <point x="395" y="169" type="line"/>
      <point x="395" y="226" type="line"/>
      <point x="325" y="226" type="line"/>
      <point x="325" y="693" type="line"/>
      <point x="253" y="693" type="line"/>
      <point x="180" y="574"/>
      <point x="91" y="394"/>
      <point x="39" y="219" type="curve"/>
      <point x="39" y="169" type="line"/>
      <point x="258" y="169" type="line"/>
    </contour>
    <contour>
      <point x="100" y="226" type="line"/>
      <point x="138" y="352"/>
      <point x="194" y="484"/>
      <point x="258" y="599" type="curve"/>
      <point x="258" y="226" type="line"/>
    </contour>
  </outline>
</glyph>
<glyph name="five" format="2">
  <advance width="420"/>
  <unicode hex="0035"/>
  <outline>
    <contour>
      <point x="172" y="-15" type="curve" smooth="yes"/>
      <point x="286" y="-15"/>
      <point x="361" y="74"/>
      <point x="361" y="204" type="curve" smooth="yes"/>
      <point x="361" y="320"/>
      <point x="299" y="392"/>
      <point x="158" y="416" type="curve"/>
      <point x="164" y="484"/>
      <point x="168" y="544"/>
      <point x="170" y="632" type="curve"/>
      <point x="344" y="632" type="line"/>
      <point x="344" y="693" type="line"/>
      <point x="109" y="693" type="line"/>
      <point x="110" y="605"/>
      <point x="101" y="471"/>
      <point x="90" y="363" type="curve"/>
      <point x="229" y="356"/>
      <point x="288" y="300"/>
      <point x="288" y="203" type="curve" smooth="yes"/>
      <point x="288" y="104"/>
      <point x="241" y="47"/>
      <point x="166" y="47" type="curve" smooth="yes"/>
      <point x="134" y="47"/>
      <point x="96" y="56"/>
      <point x="66" y="71" type="curve"/>
      <point x="47" y="13" type="line"/>
      <point x="86" y="-6"/>
      <point x="126" y="-15"/>
    </contour>
  </outline>
</glyph>
<glyph name="six" format="2">
  <advance width="420"/>
  <unicode hex="0036"/>
  <outline>
    <contour>
      <point x="221" y="-11" type="curve" smooth="yes"/>
      <point x="320" y="-11"/>
      <point x="376" y="76"/>
      <point x="376" y="217" type="curve" smooth="yes"/>
      <point x="376" y="345"/>
      <point x="324" y="424"/>
      <point x="228" y="424" type="curve" smooth="yes"/>
      <point x="193" y="424"/>
      <point x="162" y="415"/>
      <point x="136" y="401" type="curve"/>
      <point x="163" y="576"/>
      <point x="238" y="635"/>
      <point x="343" y="642" type="curve"/>
      <point x="337" y="699" type="line"/>
      <point x="137" y="690"/>
      <point x="58" y="506"/>
      <point x="58" y="291" type="curve" smooth="yes"/>
      <point x="58" y="73"/>
      <point x="110" y="-11"/>
    </contour>
    <contour>
      <point x="220" y="50" type="curve" smooth="yes"/>
      <point x="144" y="50"/>
      <point x="128" y="146"/>
      <point x="128" y="282" type="curve" smooth="yes"/>
      <point x="128" y="295"/>
      <point x="129" y="318"/>
      <point x="132" y="342" type="curve"/>
      <point x="157" y="359"/>
      <point x="186" y="367"/>
      <point x="212" y="367" type="curve" smooth="yes"/>
      <point x="278" y="367"/>
      <point x="306" y="314"/>
      <point x="306" y="213" type="curve" smooth="yes"/>
      <point x="306" y="110"/>
      <point x="280" y="50"/>
    </contour>
  </outline>
</glyph>
<glyph name="eight" format="2">
  <advance width="420"/>
  <unicode hex="0038"/>
  <outline>
    <contour>
      <point x="210" y="-11" type="curve" smooth="yes"/>
      <point x="303" y="-11"/>
      <point x="373" y="56"/>
      <point x="373" y="170" type="curve" smooth="yes"/>
      <point x="373" y="247"/>
      <point x="331" y="300"/>
      <point x="267" y="353" type="curve"/>
      <point x="319" y="402"/>
      <point x="361" y="466"/>
      <point x="361" y="543" type="curve" smooth="yes"/>
      <point x="361" y="651"/>
      <point x="294" y="706"/>
      <point x="210" y="706" type="curve" smooth="yes"/>
      <point x="134" y="706"/>
      <point x="62" y="649"/>
      <point x="62" y="542" type="curve" smooth="yes"/>
      <point x="62" y="466"/>
      <point x="96" y="412"/>
      <point x="155" y="361" type="curve"/>
      <point x="89" y="307"/>
      <point x="47" y="249"/>
      <point x="47" y="168" type="curve" smooth="yes"/>
      <point x="47" y="66"/>
      <point x="110" y="-11"/>
    </contour>
    <contour>
      <point x="213" y="45" type="curve" smooth="yes"/>
      <point x="152" y="45"/>
      <point x="117" y="97"/>
      <point x="117" y="172" type="curve" smooth="yes"/>
      <point x="117" y="243"/>
      <point x="149" y="283"/>
      <point x="196" y="326" type="curve"/>
      <point x="257" y="278"/>
      <point x="303" y="234"/>
      <point x="303" y="166" type="curve" smooth="yes"/>
      <point x="303" y="86"/>
      <point x="262" y="45"/>
    </contour>
    <contour>
      <point x="226" y="386" type="curve"/>
      <point x="162" y="437"/>
      <point x="128" y="480"/>
      <point x="128" y="547" type="curve" smooth="yes"/>
      <point x="128" y="625"/>
      <point x="173" y="650"/>
      <point x="211" y="650" type="curve" smooth="yes"/>
      <point x="259" y="650"/>
      <point x="294" y="619"/>
      <point x="294" y="538" type="curve" smooth="yes"/>
      <point x="294" y="467"/>
      <point x="269" y="428"/>
    </contour>
  </outline>
</glyph>
<glyph name="nine" format="2">
  <advance width="420"/>
  <unicode hex="0039"/>
  <outline>
    <contour>
      <point x="78" y="-2" type="line"/>
      <point x="285" y="7"/>
      <point x="361" y="184"/>
      <point x="361" y="405" type="curve" smooth="yes"/>
      <point x="361" y="623"/>
      <point x="307" y="706"/>
      <point x="197" y="706" type="curve" smooth="yes"/>
      <point x="99" y="706"/>
      <point x="43" y="618"/>
      <point x="43" y="478" type="curve" smooth="yes"/>
      <point x="43" y="349"/>
      <point x="96" y="270"/>
      <point x="192" y="270" type="curve" smooth="yes"/>
      <point x="226" y="270"/>
      <point x="256" y="278"/>
      <point x="284" y="293" type="curve"/>
      <point x="261" y="123"/>
      <point x="184" y="62"/>
      <point x="71" y="55" type="curve"/>
    </contour>
    <contour>
      <point x="209" y="327" type="curve" smooth="yes"/>
      <point x="142" y="327"/>
      <point x="113" y="381"/>
      <point x="113" y="482" type="curve" smooth="yes"/>
      <point x="113" y="585"/>
      <point x="139" y="646"/>
      <point x="199" y="646" type="curve" smooth="yes"/>
      <point x="273" y="646"/>
      <point x="290" y="549"/>
      <point x="290" y="413" type="curve" smooth="yes"/>
      <point x="290" y="400"/>
      <point x="290" y="376"/>
      <point x="288" y="351" type="curve"/>
      <point x="263" y="335"/>
      <point x="234" y="327"/>
    </contour>
  </outline>
</glyph>
<glyph name="question" format="2">
  <advance width="328.41"/>
  <unicode hex="003F"/>
  <outline>
    <contour>
      <point x="102" y="196" type="curve"/>
      <point x="166" y="196" type="line"/>
      <point x="164" y="210"/>
      <point x="164" y="227"/>
      <point x="164" y="238" type="curve" smooth="yes"/>
      <point x="164" y="384"/>
      <point x="305" y="412"/>
      <point x="305" y="558" type="curve" smooth="yes"/>
      <point x="305" y="639"/>
      <point x="253" y="706"/>
      <point x="153" y="706" type="curve" smooth="yes"/>
      <point x="100" y="706"/>
      <point x="59" y="691"/>
      <point x="22" y="664" type="curve"/>
      <point x="48" y="611" type="line"/>
      <point x="78" y="632"/>
      <point x="108" y="643"/>
      <point x="143" y="643" type="curve" smooth="yes"/>
      <point x="200" y="643"/>
      <point x="231" y="610"/>
      <point x="231" y="553" type="curve" smooth="yes"/>
      <point x="231" y="430"/>
      <point x="99" y="406"/>
      <point x="99" y="249" type="curve" smooth="yes"/>
      <point x="99" y="231"/>
      <point x="100" y="213"/>
    </contour>
    <contour>
      <point x="131" y="-8" type="curve" smooth="yes"/>
      <point x="159" y="-8"/>
      <point x="179" y="16"/>
      <point x="179" y="42" type="curve" smooth="yes"/>
      <point x="179" y="70"/>
      <point x="159" y="92"/>
      <point x="131" y="92" type="curve" smooth="yes"/>
      <point x="101" y="92"/>
      <point x="82" y="70"/>
      <point x="82" y="42" type="curve" smooth="yes"/>
      <point x="82" y="16"/>
      <point x="101" y="-8"/>
    </contour>
  </outline>
</glyph>
<glyph name="C" format="2">
  <advance width="463.534"/>
  <unicode hex="0043"/>
  <anchor x="252" y="0" name="bottom"/>
  <anchor x="288" y="673" name="top"/>
  <outline>
    <contour>
      <point x="305" y="-10" type="curve" smooth="yes"/>
      <point x="358" y="-10"/>
      <point x="407" y="1"/>
      <point x="444" y="24" type="curve"/>
      <point x="425" y="82" type="line"/>
      <point x="388" y="63"/>
      <point x="353" y="52"/>
      <point x="313" y="52" type="curve" smooth="yes"/>
      <point x="192" y="52"/>
      <point x="133" y="151"/>
      <point x="133" y="343" type="curve" smooth="yes"/>
      <point x="133" y="547"/>
      <point x="185" y="641"/>
      <point x="301" y="641" type="curve" smooth="yes"/>
      <point x="344" y="641"/>
      <point x="385" y="629"/>
      <point x="415" y="612" type="curve"/>
      <point x="435" y="672" type="line"/>
      <point x="398" y="692"/>
      <point x="351" y="703"/>
      <point x="301" y="703" type="curve" smooth="yes"/>
      <point x="140" y="703"/>
      <point x="58" y="579"/>
      <point x="58" y="343" type="curve" smooth="yes"/>
      <point x="58" y="116"/>
      <point x="147" y="-10"/>
    </contour>
  </outline>
</glyph>
<glyph name="D" format="2">
  <advance width="567.192"/>
  <unicode hex="0044"/>
  <anchor x="284" y="0" name="bottom"/>
  <anchor x="284" y="347" name="center"/>
  <anchor x="259" y="673" name="top"/>
  <outline>
    <contour>
      <point x="237" y="-6" type="curve" smooth="yes"/>
      <point x="415" y="-6"/>
      <point x="510" y="115"/>
      <point x="510" y="347" type="curve" smooth="yes"/>
      <point x="510" y="581"/>
      <point x="419" y="699"/>
      <point x="237" y="699" type="curve" smooth="yes"/>
      <point x="185" y="699"/>
      <point x="135" y="694"/>
      <point x="84" y="684" type="curve"/>
      <point x="84" y="7" type="line"/>
      <point x="137" y="-3"/>
      <point x="186" y="-6"/>
    </contour>
    <contour>
      <point x="238" y="57" type="curve" smooth="yes"/>
      <point x="206" y="57"/>
      <point x="181" y="58"/>
      <point x="156" y="63" type="curve"/>
      <point x="156" y="630" type="line"/>
      <point x="182" y="634"/>
      <point x="208" y="636"/>
      <point x="238" y="636" type="curve" smooth="yes"/>
      <point x="373" y="636"/>
      <point x="434" y="547"/>
      <point x="434" y="347" type="curve" smooth="yes"/>
      <point x="434" y="148"/>
      <point x="372" y="57"/>
    </contour>
  </outline>
</glyph>
<glyph name="G" format="2">
  <advance width="521.332"/>
  <unicode hex="0047"/>
  <anchor x="297" y="0" name="bottom"/>
  <anchor x="290" y="673" name="top"/>
  <outline>
    <contour>
      <point x="310" y="-10" type="curve" smooth="yes"/>
      <point x="371" y="-10"/>
      <point x="424" y="6"/>
      <point x="447" y="21" type="curve"/>
      <point x="447" y="336" type="line"/>
      <point x="375" y="336" type="line"/>
      <point x="375" y="67" type="line"/>
      <point x="358" y="60"/>
      <point x="332" y="52"/>
      <point x="311" y="52" type="curve" smooth="yes"/>
      <point x="189" y="52"/>
      <point x="133" y="151"/>
      <point x="133" y="347" type="curve" smooth="yes"/>
      <point x="133" y="547"/>
      <point x="188" y="641"/>
      <point x="303" y="641" type="curve" smooth="yes"/>
      <point x="353" y="641"/>
      <point x="390" y="628"/>
      <point x="421" y="611" type="curve"/>
      <point x="443" y="671" type="line"/>
      <point x="409" y="690"/>
      <point x="358" y="703"/>
      <point x="303" y="703" type="curve" smooth="yes"/>
      <point x="144" y="703"/>
      <point x="58" y="579"/>
      <point x="58" y="347" type="curve" smooth="yes"/>
      <point x="58" y="116"/>
      <point x="142" y="-10"/>
    </contour>
  </outline>
</glyph>
<glyph name="J" format="2">
  <advance width="376.586"/>
  <unicode hex="004A"/>
  <anchor x="189" y="0" name="bottom"/>
  <anchor x="262" y="673" name="top"/>
  <outline>
    <contour>
      <point x="130" y="-10" type="curve" smooth="yes"/>
      <point x="229" y="-10"/>
      <point x="298" y="37"/>
      <point x="298" y="185" type="curve" smooth="yes"/>
      <point x="298" y="693" type="line"/>
      <point x="226" y="693" type="line"/>
      <point x="226" y="186" type="line" smooth="yes"/>
      <point x="226" y="92"/>
      <point x="191" y="54"/>
      <point x="128" y="54" type="curve" smooth="yes"/>
      <point x="92" y="54"/>
      <point x="57" y="63"/>
      <point x="27" y="81" type="curve"/>
      <point x="6" y="23" type="line"/>
      <point x="40" y="1"/>
      <point x="86" y="-10"/>
    </contour>
  </outline>
</glyph>
<glyph name="N" format="2">
  <advance width="576.876"/>
  <unicode hex="004E"/>
  <anchor x="293" y="0" name="bottom"/>
  <anchor x="288" y="673" name="top"/>
  <outline>
    <contour>
      <point x="84" y="0" type="line"/>
      <point x="153" y="0" type="line"/>
      <point x="153" y="565" type="line"/>
      <point x="251" y="394"/>
      <point x="352" y="189"/>
      <point x="430" y="0" type="curve"/>
      <point x="493" y="0" type="line"/>
      <point x="493" y="693" type="line"/>
      <point x="424" y="693" type="line"/>
      <point x="424" y="159" type="line"/>
      <point x="347" y="337"/>
      <point x="244" y="535"/>
      <point x="150" y="693" type="curve"/>
      <point x="84" y="693" type="line"/>
    </contour>
  </outline>
</glyph>
<glyph name="Q" format="2">
  <advance width="590.534"/>
  <unicode hex="0051"/>
  <anchor x="299" y="0" name="bottom"/>
  <anchor x="299" y="693" name="top"/>
  <outline>
    <contour>
      <point x="491" y="-171" type="curve"/>
      <point x="508" y="-112" type="line"/>
      <point x="408" y="-93"/>
      <point x="358" y="-65"/>
      <point x="347" y="-4" type="curve"/>
      <point x="467" y="21"/>
      <point x="534" y="146"/>
      <point x="534" y="345" type="curve" smooth="yes"/>
      <point x="534" y="573"/>
      <point x="447" y="704"/>
      <point x="296" y="704" type="curve" smooth="yes"/>
      <point x="144" y="704"/>
      <point x="58" y="573"/>
      <point x="58" y="345" type="curve" smooth="yes"/>
      <point x="58" y="128"/>
      <point x="138" y="-1"/>
      <point x="279" y="-9" type="curve"/>
      <point x="298" y="-110"/>
      <point x="361" y="-147"/>
    </contour>
    <contour>
      <point x="296" y="52" type="curve" smooth="yes"/>
      <point x="189" y="52"/>
      <point x="133" y="155"/>
      <point x="133" y="345" type="curve" smooth="yes"/>
      <point x="133" y="538"/>
      <point x="189" y="641"/>
      <point x="296" y="641" type="curve" smooth="yes"/>
      <point x="402" y="641"/>
      <point x="457" y="538"/>
      <point x="457" y="345" type="curve" smooth="yes"/>
      <point x="457" y="154"/>
      <point x="402" y="52"/>
    </contour>
  </outline>
</glyph>
<glyph name="U" format="2">
  <advance width="537.218"/>
  <unicode hex="0055"/>
  <anchor x="269" y="0" name="bottom"/>
  <anchor x="485" y="10" name="ogonek"/>
  <anchor x="269" y="673" name="top"/>
  <anchor x="519" y="693" name="topright"/>
  <outline>
    <contour>
      <point x="269" y="-10" type="curve"/>
      <point x="398" y="-10"/>
      <point x="460" y="63"/>
      <point x="460" y="211" type="curve" smooth="yes"/>
      <point x="460" y="693" type="line"/>
      <point x="388" y="693" type="line"/>
      <point x="388" y="214" type="line" smooth="yes"/>
      <point x="388" y="104"/>
      <point x="351" y="54"/>
      <point x="269" y="54" type="curve"/>
      <point x="187" y="54"/>
      <point x="149" y="104"/>
      <point x="149" y="214" type="curve" smooth="yes"/>
      <point x="149" y="693" type="line"/>
      <point x="77" y="693" type="line"/>
      <point x="77" y="211" type="line" smooth="yes"/>
      <point x="77" y="63"/>
      <point x="140" y="-10"/>
    </contour>
  </outline>
</glyph>
<glyph name="V" format="2">
  <advance width="476.56"/>
  <unicode hex="0056"/>
  <anchor x="239" y="0" name="bottom"/>
  <anchor x="239" y="693" name="top"/>
  <outline>
    <contour>
      <point x="201" y="0" type="curve"/>
      <point x="278" y="0" type="line"/>
      <point x="359" y="247"/>
      <point x="420" y="477"/>
      <point x="455" y="693" type="curve"/>
      <point x="383" y="693" type="line"/>
      <point x="357" y="513"/>
      <point x="306" y="289"/>
      <point x="240" y="77" type="curve"/>
      <point x="171" y="295"/>
      <point x="122" y="517"/>
      <point x="96" y="693" type="curve"/>
      <point x="21" y="693" type="line"/>
      <point x="56" y="477"/>
      <point x="117" y="248"/>
    </contour>
  </outline>
</glyph>
<glyph name="W" format="2">
  <advance width="726.088"/>
  <unicode hex="0057"/>
  <anchor x="364" y="0" name="bottom"/>
  <anchor x="364" y="673" name="top"/>
  <outline>
    <contour>
      <point x="155" y="0" type="curve"/>
      <point x="233" y="0" type="line"/>
      <point x="282" y="155"/>
      <point x="325" y="324"/>
      <point x="363" y="505" type="curve"/>
      <point x="401" y="324"/>
      <point x="444" y="155"/>
      <point x="494" y="0" type="curve"/>
      <point x="571" y="0" type="line"/>
      <point x="630" y="210"/>
      <point x="673" y="478"/>
      <point x="690" y="693" type="curve"/>
      <point x="618" y="693" type="line"/>
      <point x="607" y="512"/>
      <point x="580" y="313"/>
      <point x="529" y="92" type="curve"/>
      <point x="473" y="278"/>
      <point x="433" y="452"/>
      <point x="401" y="609" type="curve"/>
      <point x="326" y="609" type="line"/>
      <point x="294" y="453"/>
      <point x="252" y="280"/>
      <point x="198" y="95" type="curve"/>
      <point x="148" y="314"/>
      <point x="120" y="513"/>
      <point x="109" y="693" type="curve"/>
      <point x="36" y="693" type="line"/>
      <point x="53" y="478"/>
      <point x="96" y="210"/>
    </contour>
  </outline>
</glyph>
<glyph name="X" format="2">
  <advance width="437"/>
  <unicode hex="0058"/>
  <anchor x="220" y="0" name="bottom"/>
  <anchor x="220" y="693" name="top"/>
  <outline>
    <contour>
      <point x="16" y="0" type="curve"/>
      <point x="89" y="0" type="line"/>
      <point x="122" y="98"/>
      <point x="161" y="188"/>
      <point x="218" y="305" type="curve"/>
      <point x="272" y="197"/>
      <point x="307" y="114"/>
      <point x="347" y="0" type="curve"/>
      <point x="421" y="0" type="line"/>
      <point x="379" y="119"/>
      <point x="337" y="217"/>
      <point x="264" y="365" type="curve"/>
      <point x="413" y="693" type="line"/>
      <point x="339" y="693" type="line"/>
      <point x="220" y="416" type="line"/>
      <point x="102" y="693" type="line"/>
      <point x="25" y="693" type="line"/>
      <point x="175" y="362" type="line"/>
      <point x="96" y="202"/>
      <point x="55" y="106"/>
    </contour>
  </outline>
</glyph>
<glyph name="a" format="2">
  <advance width="423.648"/>
  <unicode hex="0061"/>
  <anchor x="208" y="0" name="bottom"/>
  <anchor x="382" y="10" name="ogonek"/>
  <anchor x="210" y="522" name="top"/>
  <outline>
    <contour>
      <point x="208" y="-7" type="curve" smooth="yes"/>
      <point x="250" y="-7"/>
      <point x="302" y="0"/>
      <point x="351" y="14" type="curve"/>
      <point x="351" y="367" type="line" smooth="yes"/>
      <point x="351" y="482"/>
      <point x="288" y="535"/>
      <point x="193" y="535" type="curve" smooth="yes"/>
      <point x="156" y="535"/>
      <point x="116" y="528"/>
      <point x="81" y="515" type="curve"/>
      <point x="92" y="458" type="line"/>
      <point x="123" y="469"/>
      <point x="155" y="474"/>
      <point x="184" y="474" type="curve" smooth="yes"/>
      <point x="247" y="474"/>
      <point x="283" y="442"/>
      <point x="283" y="364" type="curve" smooth="yes"/>
      <point x="283" y="301" type="line"/>
      <point x="256" y="307"/>
      <point x="229" y="311"/>
      <point x="203" y="311" type="curve" smooth="yes"/>
      <point x="102" y="311"/>
      <point x="42" y="254"/>
      <point x="42" y="153" type="curve" smooth="yes"/>
      <point x="42" y="51"/>
      <point x="102" y="-7"/>
    </contour>
    <contour>
      <point x="213" y="48" type="curve" smooth="yes"/>
      <point x="146" y="48"/>
      <point x="110" y="86"/>
      <point x="110" y="155" type="curve" smooth="yes"/>
      <point x="110" y="224"/>
      <point x="145" y="259"/>
      <point x="213" y="259" type="curve" smooth="yes"/>
      <point x="236" y="259"/>
      <point x="260" y="254"/>
      <point x="283" y="248" type="curve"/>
      <point x="283" y="57" type="line"/>
      <point x="260" y="51"/>
      <point x="235" y="48"/>
    </contour>
  </outline>
</glyph>
<glyph name="c" format="2">
  <advance width="352.876"/>
  <unicode hex="0063"/>
  <anchor x="196" y="0" name="bottom"/>
  <anchor x="217" y="522" name="top"/>
  <outline>
    <contour>
      <point x="234" y="-10" type="curve" smooth="yes"/>
      <point x="272" y="-10"/>
      <point x="305" y="-4"/>
      <point x="333" y="11" type="curve"/>
      <point x="322" y="67" type="line"/>
      <point x="298" y="55"/>
      <point x="274" y="51"/>
      <point x="248" y="51" type="curve" smooth="yes"/>
      <point x="171" y="51"/>
      <point x="122" y="120"/>
      <point x="122" y="260" type="curve" smooth="yes"/>
      <point x="122" y="407"/>
      <point x="164" y="473"/>
      <point x="242" y="473" type="curve" smooth="yes"/>
      <point x="269" y="473"/>
      <point x="295" y="467"/>
      <point x="316" y="457" type="curve"/>
      <point x="329" y="515" type="line"/>
      <point x="302" y="528"/>
      <point x="270" y="535"/>
      <point x="234" y="535" type="curve" smooth="yes"/>
      <point x="117" y="535"/>
      <point x="50" y="436"/>
      <point x="50" y="260" type="curve" smooth="yes"/>
      <point x="50" y="88"/>
      <point x="116" y="-10"/>
    </contour>
  </outline>
</glyph>
<glyph name="d" format="2">
  <advance width="456.244"/>
  <unicode hex="0064"/>
  <anchor x="229" y="0" name="bottom"/>
  <anchor x="229" y="259" name="center"/>
  <anchor x="229" y="776" name="top"/>
  <anchor x="428" y="776" name="topright"/>
  <outline>
    <contour>
      <point x="243" y="-10" type="curve" smooth="yes"/>
      <point x="293" y="-10"/>
      <point x="333" y="-1"/>
      <point x="378" y="15" type="curve"/>
      <point x="378" y="776" type="line"/>
      <point x="309" y="763" type="line"/>
      <point x="309" y="511" type="line"/>
      <point x="291" y="523"/>
      <point x="260" y="533"/>
      <point x="226" y="533" type="curve" smooth="yes"/>
      <point x="123" y="533"/>
      <point x="50" y="455"/>
      <point x="50" y="262" type="curve" smooth="yes"/>
      <point x="50" y="95"/>
      <point x="106" y="-10"/>
    </contour>
    <contour>
      <point x="244" y="50" type="curve" smooth="yes"/>
      <point x="166" y="50"/>
      <point x="122" y="98"/>
      <point x="122" y="262" type="curve" smooth="yes"/>
      <point x="122" y="442"/>
      <point x="183" y="473"/>
      <point x="236" y="473" type="curve" smooth="yes"/>
      <point x="265" y="473"/>
      <point x="293" y="464"/>
      <point x="309" y="451" type="curve"/>
      <point x="309" y="63" type="line"/>
      <point x="293" y="56"/>
      <point x="270" y="50"/>
    </contour>
  </outline>
</glyph>
<glyph name="g" format="2">
  <advance width="456.244"/>
  <unicode hex="0067"/>
  <anchor x="228" y="-185" name="bottom"/>
  <anchor x="235" y="522" name="top"/>
  <outline>
    <contour>
      <point x="201" y="-188" type="curve" smooth="yes"/>
      <point x="319" y="-188"/>
      <point x="378" y="-121"/>
      <point x="378" y="12" type="curve" smooth="yes"/>
      <point x="378" y="508" type="line"/>
      <point x="333" y="524"/>
      <point x="293" y="533"/>
      <point x="243" y="533" type="curve" smooth="yes"/>
      <point x="106" y="533"/>
      <point x="50" y="435"/>
      <point x="50" y="277" type="curve" smooth="yes"/>
      <point x="50" y="96"/>
      <point x="123" y="24"/>
      <point x="226" y="24" type="curve" smooth="yes"/>
      <point x="260" y="24"/>
      <point x="290" y="34"/>
      <point x="309" y="46" type="curve"/>
      <point x="309" y="9" type="line" smooth="yes"/>
      <point x="309" y="-91"/>
      <point x="270" y="-128"/>
      <point x="193" y="-128" type="curve" smooth="yes"/>
      <point x="158" y="-128"/>
      <point x="124" y="-120"/>
      <point x="95" y="-104" type="curve"/>
      <point x="80" y="-162" type="line"/>
      <point x="114" y="-179"/>
      <point x="154" y="-188"/>
    </contour>
    <contour>
      <point x="236" y="84" type="curve" smooth="yes"/>
      <point x="183" y="84"/>
      <point x="122" y="113"/>
      <point x="122" y="277" type="curve" smooth="yes"/>
      <point x="122" y="429"/>
      <point x="169" y="473"/>
      <point x="243" y="473" type="curve" smooth="yes"/>
      <point x="270" y="473"/>
      <point x="293" y="468"/>
      <point x="309" y="460" type="curve"/>
      <point x="309" y="106" type="line"/>
      <point x="294" y="93"/>
      <point x="267" y="84"/>
    </contour>
  </outline>
</glyph>
<glyph name="k" format="2">
  <advance width="390.664"/>
  <unicode hex="006B"/>
  <anchor x="220" y="0" name="bottom"/>
  <anchor x="204" y="776" name="top"/>
  <outline>
    <contour>
      <point x="78" y="0" type="line"/>
      <point x="147" y="0" type="line"/>
      <point x="147" y="254" type="line"/>
      <point x="215" y="190"/>
      <point x="272" y="92"/>
      <point x="313" y="0" type="curve"/>
      <point x="388" y="0" type="line"/>
      <point x="346" y="98"/>
      <point x="277" y="211"/>
      <point x="206" y="279" type="curve"/>
      <point x="262" y="348"/>
      <point x="318" y="432"/>
      <point x="371" y="522" type="curve"/>
      <point x="297" y="522" type="line"/>
      <point x="255" y="449"/>
      <point x="203" y="365"/>
      <point x="147" y="296" type="curve"/>
      <point x="147" y="776" type="line"/>
      <point x="78" y="763" type="line"/>
    </contour>
  </outline>
</glyph>
<glyph name="l" format="2">
  <advance width="230.954"/>
  <unicode hex="006C"/>
  <anchor x="147" y="0" name="bottom"/>
  <anchor x="112" y="388" name="center"/>
  <anchor x="112" y="776" name="top"/>
  <anchor x="207" y="776" name="topright"/>
  <outline>
    <contour>
      <point x="201" y="-6" type="curve"/>
      <point x="209" y="51" type="line"/>
      <point x="164" y="58"/>
      <point x="145" y="82"/>
      <point x="145" y="132" type="curve" smooth="yes"/>
      <point x="145" y="776" type="line"/>
      <point x="76" y="763" type="line"/>
      <point x="76" y="132" type="line" smooth="yes"/>
      <point x="76" y="48"/>
      <point x="118" y="1"/>
    </contour>
  </outline>
</glyph>
<glyph name="m" format="2">
  <advance width="680.384"/>
  <unicode hex="006D"/>
  <anchor x="345" y="0" name="bottom"/>
  <anchor x="345" y="521" name="top"/>
  <outline>
    <contour>
      <point x="78" y="0" type="line"/>
      <point x="147" y="0" type="line"/>
      <point x="147" y="457" type="line"/>
      <point x="168" y="467"/>
      <point x="194" y="472"/>
      <point x="215" y="472" type="curve" smooth="yes"/>
      <point x="283" y="472"/>
      <point x="308" y="437"/>
      <point x="308" y="333" type="curve" smooth="yes"/>
      <point x="308" y="0" type="line"/>
      <point x="377" y="0" type="line"/>
      <point x="377" y="339" type="line" smooth="yes"/>
      <point x="377" y="379"/>
      <point x="373" y="411"/>
      <point x="363" y="440" type="curve"/>
      <point x="385" y="460"/>
      <point x="414" y="472"/>
      <point x="446" y="472" type="curve" smooth="yes"/>
      <point x="513" y="472"/>
      <point x="538" y="435"/>
      <point x="538" y="333" type="curve" smooth="yes"/>
      <point x="538" y="0" type="line"/>
      <point x="607" y="0" type="line"/>
      <point x="607" y="339" type="line" smooth="yes"/>
      <point x="607" y="471"/>
      <point x="560" y="532"/>
      <point x="453" y="532" type="curve" smooth="yes"/>
      <point x="410" y="532"/>
      <point x="368" y="517"/>
      <point x="332" y="489" type="curve"/>
      <point x="308" y="518"/>
      <point x="269" y="532"/>
      <point x="218" y="532" type="curve" smooth="yes"/>
      <point x="168" y="532"/>
      <point x="122" y="521"/>
      <point x="78" y="506" type="curve"/>
    </contour>
  </outline>
</glyph>
<glyph name="p" format="2">
  <advance width="456.244"/>
  <unicode hex="0070"/>
  <anchor x="232" y="0" name="bottom"/>
  <anchor x="232" y="521" name="top"/>
  <outline>
    <contour>
      <point x="78" y="-185" type="line"/>
      <point x="147" y="-185" type="line"/>
      <point x="147" y="13" type="line"/>
      <point x="166" y="0"/>
      <point x="196" y="-10"/>
      <point x="230" y="-10" type="curve" smooth="yes"/>
      <point x="334" y="-10"/>
      <point x="406" y="68"/>
      <point x="406" y="262" type="curve" smooth="yes"/>
      <point x="406" y="429"/>
      <point x="350" y="533"/>
      <point x="213" y="533" type="curve" smooth="yes"/>
      <point x="163" y="533"/>
      <point x="122" y="524"/>
      <point x="78" y="508" type="curve"/>
    </contour>
    <contour>
      <point x="221" y="50" type="curve" smooth="yes"/>
      <point x="191" y="50"/>
      <point x="163" y="59"/>
      <point x="147" y="73" type="curve"/>
      <point x="147" y="460" type="line"/>
      <point x="163" y="468"/>
      <point x="186" y="473"/>
      <point x="212" y="473" type="curve" smooth="yes"/>
      <point x="289" y="473"/>
      <point x="334" y="426"/>
      <point x="334" y="262" type="curve" smooth="yes"/>
      <point x="334" y="82"/>
      <point x="273" y="50"/>
    </contour>
  </outline>
</glyph>
<glyph name="r" format="2">
  <advance width="313.384"/>
  <unicode hex="0072"/>
  <anchor x="114" y="0" name="bottom"/>
  <anchor x="192" y="522" name="top"/>
  <outline>
    <contour>
      <point x="78" y="0" type="line"/>
      <point x="147" y="0" type="line"/>
      <point x="147" y="456" type="line"/>
      <point x="170" y="466"/>
      <point x="196" y="472"/>
      <point x="227" y="472" type="curve" smooth="yes"/>
      <point x="252" y="472"/>
      <point x="275" y="469"/>
      <point x="294" y="462" type="curve"/>
      <point x="306" y="521" type="line"/>
      <point x="286" y="528"/>
      <point x="256" y="532"/>
      <point x="222" y="532" type="curve" smooth="yes"/>
      <point x="172" y="532"/>
      <point x="118" y="520"/>
      <point x="78" y="499" type="curve"/>
    </contour>
  </outline>
</glyph>
<glyph name="x" format="2">
  <advance width="377.56"/>
  <unicode hex="0078"/>
  <anchor x="189" y="0" name="bottom"/>
  <anchor x="189" y="521" name="top"/>
  <outline>
    <contour>
      <point x="16" y="0" type="curve"/>
      <point x="84" y="0" type="line"/>
      <point x="105" y="65"/>
      <point x="144" y="145"/>
      <point x="187" y="225" type="curve"/>
      <point x="231" y="142"/>
      <point x="264" y="70"/>
      <point x="289" y="0" type="curve"/>
      <point x="361" y="0" type="line"/>
      <point x="332" y="78"/>
      <point x="290" y="165"/>
      <point x="230" y="277" type="curve"/>
      <point x="351" y="522" type="line"/>
      <point x="282" y="522" type="line"/>
      <point x="192" y="329" type="line"/>
      <point x="99" y="522" type="line"/>
      <point x="26" y="522" type="line"/>
      <point x="147" y="277" type="line"/>
      <point x="87" y="166"/>
      <point x="45" y="79"/>
    </contour>
  </outline>
</glyph>
<glyph name="braceleft" format="2">
  <advance width="254.788"/>
  <unicode hex="007B"/>
  <outline>
    <contour>
      <point x="241" y="-185" type="curve" smooth="yes"/>
      <point x="249" y="-185" type="line"/>
      <point x="249" y="-128" type="line"/>
      <point x="241" y="-128" type="line" smooth="yes"/>
      <point x="196" y="-128"/>
      <point x="169" y="-105"/>
      <point x="169" y="-36" type="curve" smooth="yes"/>
      <point x="169" y="158" type="line" smooth="yes"/>
      <point x="169" y="232"/>
      <point x="147" y="276"/>
      <point x="102" y="298" type="curve"/>
      <point x="146" y="320"/>
      <point x="169" y="365"/>
      <point x="169" y="440" type="curve" smooth="yes"/>
      <point x="169" y="635" type="line" smooth="yes"/>
      <point x="169" y="704"/>
      <point x="195" y="727"/>
      <point x="241" y="727" type="curve" smooth="yes"/>
      <point x="249" y="727" type="line"/>
      <point x="249" y="783" type="line"/>
      <point x="241" y="783" type="line" smooth="yes"/>
      <point x="153" y="783"/>
      <point x="105" y="742"/>
      <point x="105" y="635" type="curve" smooth="yes"/>
      <point x="105" y="449" type="line" smooth="yes"/>
      <point x="105" y="371"/>
      <point x="81" y="331"/>
      <point x="37" y="327" type="curve"/>
      <point x="37" y="271" type="line"/>
      <point x="80" y="266"/>
      <point x="105" y="226"/>
      <point x="105" y="148" type="curve" smooth="yes"/>
      <point x="105" y="-37" type="line" smooth="yes"/>
      <point x="105" y="-144"/>
      <point x="153" y="-185"/>
    </contour>
  </outline>
</glyph>
<glyph name="asciitilde" format="2">
  <advance width="420"/>
  <unicode hex="007E"/>
  <outline>
    <contour>
      <point x="289" y="227" type="curve" smooth="yes"/>
      <point x="343" y="227"/>
      <point x="380" y="267"/>
      <point x="395" y="355" type="curve"/>
      <point x="345" y="370" type="line"/>
      <point x="335" y="300"/>
      <point x="305" y="292"/>
      <point x="286" y="292" type="curve" smooth="yes"/>
      <point x="241" y="292"/>
      <point x="199" y="372"/>
      <point x="131" y="372" type="curve" smooth="yes"/>
      <point x="78" y="372"/>
      <point x="40" y="332"/>
      <point x="25" y="244" type="curve"/>
      <point x="76" y="229" type="line"/>
      <point x="86" y="299"/>
      <point x="115" y="307"/>
      <point x="134" y="307" type="curve" smooth="yes"/>
      <point x="179" y="307"/>
      <point x="222" y="227"/>
    </contour>
  </outline>
</glyph>
<glyph name="sterling" format="2">
  <advance width="419.824"/>
  <unicode hex="00A3"/>
  <outline>
    <contour>
      <point x="91" y="0" type="curve"/>
      <point x="397" y="0" type="line"/>
      <point x="397" y="61" type="line"/>
      <point x="171" y="61" type="line"/>
      <point x="183" y="137"/>
      <point x="188" y="238"/>
      <point x="188" y="300" type="curve" smooth="yes"/>
      <point x="188" y="308" type="line"/>
      <point x="336" y="308" type="line"/>
      <point x="336" y="367" type="line"/>
      <point x="188" y="367" type="line"/>
      <point x="188" y="505" type="line" smooth="yes"/>
      <point x="188" y="606"/>
      <point x="229" y="643"/>
      <point x="284" y="643" type="curve" smooth="yes"/>
      <point x="316" y="643"/>
      <point x="345" y="636"/>
      <point x="366" y="623" type="curve"/>
      <point x="383" y="680" type="line"/>
      <point x="357" y="694"/>
      <point x="322" y="704"/>
      <point x="281" y="704" type="curve" smooth="yes"/>
      <point x="193" y="704"/>
      <point x="117" y="653"/>
      <point x="117" y="505" type="curve" smooth="yes"/>
      <point x="117" y="367" type="line"/>
      <point x="44" y="367" type="line"/>
      <point x="44" y="308" type="line"/>
      <point x="117" y="308" type="line"/>
      <point x="117" y="298" type="line" smooth="yes"/>
      <point x="117" y="186"/>
      <point x="104" y="81"/>
    </contour>
  </outline>
</glyph>
<glyph name="yen" format="2">
  <advance width="419.824"/>
  <unicode hex="00A5"/>
  <outline>
    <contour>
      <point x="175" y="0" type="line"/>
      <point x="244" y="0" type="line"/>
      <point x="244" y="130" type="line"/>
      <point x="366" y="130" type="line"/>
      <point x="366" y="183" type="line"/>
      <point x="244" y="183" type="line"/>
      <point x="244" y="291" type="line"/>
      <point x="366" y="291" type="line"/>
      <point x="366" y="343" type="line"/>
      <point x="267" y="343" type="line"/>
      <point x="317" y="450"/>
      <point x="368" y="567"/>
      <point x="410" y="693" type="curve"/>
      <point x="338" y="693" type="line"/>
      <point x="306" y="588"/>
      <point x="260" y="473"/>
      <point x="209" y="361" type="curve"/>
      <point x="159" y="473"/>
      <point x="113" y="588"/>
      <point x="81" y="693" type="curve"/>
      <point x="9" y="693" type="line"/>
      <point x="50" y="567"/>
      <point x="100" y="450"/>
      <point x="151" y="343" type="curve"/>
      <point x="54" y="343" type="line"/>
      <point x="54" y="291" type="line"/>
      <point x="175" y="291" type="line"/>
      <point x="175" y="183" type="line"/>
      <point x="54" y="183" type="line"/>
      <point x="54" y="130" type="line"/>
      <point x="175" y="130" type="line"/>
    </contour>
  </outline>
</glyph>
<glyph name="ordfeminine" format="2">
  <advance width="299.192"/>
  <unicode hex="00AA"/>
  <outline>
    <contour>
      <point x="148" y="324" type="curve" smooth="yes"/>
      <point x="188" y="324"/>
      <point x="225" y="331"/>
      <point x="254" y="340" type="curve"/>
      <point x="254" y="587" type="line" smooth="yes"/>
      <point x="254" y="659"/>
      <point x="218" y="700"/>
      <point x="143" y="700" type="curve" smooth="yes"/>
      <point x="115" y="700"/>
      <point x="82" y="694"/>
      <point x="57" y="684" type="curve"/>
      <point x="64" y="638" type="line"/>
      <point x="86" y="647"/>
      <point x="113" y="652"/>
      <point x="137" y="652" type="curve" smooth="yes"/>
      <point x="178" y="652"/>
      <point x="203" y="633"/>
      <point x="203" y="587" type="curve" smooth="yes"/>
      <point x="203" y="540" type="line"/>
      <point x="185" y="546"/>
      <point x="165" y="548"/>
      <point x="144" y="548" type="curve" smooth="yes"/>
      <point x="76" y="548"/>
      <point x="29" y="511"/>
      <point x="29" y="437" type="curve" smooth="yes"/>
      <point x="29" y="362"/>
      <point x="73" y="324"/>
    </contour>
    <contour>
      <point x="152" y="368" type="curve" smooth="yes"/>
      <point x="110" y="368"/>
      <point x="81" y="391"/>
      <point x="81" y="437" type="curve" smooth="yes"/>
      <point x="81" y="484"/>
      <point x="109" y="506"/>
      <point x="151" y="506" type="curve" smooth="yes"/>
      <point x="168" y="506"/>
      <point x="186" y="503"/>
      <point x="203" y="497" type="curve"/>
      <point x="203" y="376" type="line"/>
      <point x="185" y="371"/>
      <point x="168" y="368"/>
    </contour>
  </outline>
</glyph>
<glyph name="registered" format="2">
  <advance width="498"/>
  <unicode hex="00AE"/>
  <outline>
    <contour>
      <point x="249" y="261" type="curve" smooth="yes"/>
      <point x="380" y="261"/>
      <point x="461" y="358"/>
      <point x="461" y="504" type="curve" smooth="yes"/>
      <point x="461" y="650"/>
      <point x="381" y="748"/>
      <point x="249" y="748" type="curve" smooth="yes"/>
      <point x="118" y="748"/>
      <point x="37" y="651"/>
      <point x="37" y="504" type="curve" smooth="yes"/>
      <point x="37" y="358"/>
      <point x="118" y="261"/>
    </contour>
    <contour>
      <point x="249" y="312" type="curve" smooth="yes"/>
      <point x="153" y="312"/>
      <point x="91" y="387"/>
      <point x="91" y="504" type="curve" smooth="yes"/>
      <point x="91" y="622"/>
      <point x="153" y="696"/>
      <point x="249" y="696" type="curve" smooth="yes"/>
      <point x="344" y="696"/>
      <point x="407" y="622"/>
      <point x="407" y="504" type="curve" smooth="yes"/>
      <point x="407" y="387"/>
      <point x="345" y="312"/>
    </contour>
    <contour>
      <point x="172" y="381" type="line"/>
      <point x="226" y="381" type="line"/>
      <point x="226" y="471" type="line"/>
      <point x="239" y="471" type="line" smooth="yes"/>
      <point x="241" y="471"/>
      <point x="244" y="471"/>
      <point x="247" y="471" type="curve"/>
      <point x="260" y="451"/>
      <point x="274" y="421"/>
      <point x="289" y="381" type="curve"/>
      <point x="345" y="381" type="line"/>
      <point x="327" y="426"/>
      <point x="315" y="452"/>
      <point x="294" y="487" type="curve"/>
      <point x="320" y="501"/>
      <point x="334" y="524"/>
      <point x="334" y="552" type="curve" smooth="yes"/>
      <point x="334" y="607"/>
      <point x="303" y="635"/>
      <point x="240" y="635" type="curve" smooth="yes"/>
      <point x="221" y="635"/>
      <point x="196" y="631"/>
      <point x="172" y="624" type="curve"/>
    </contour>
    <contour>
      <point x="226" y="515" type="line"/>
      <point x="226" y="587" type="line"/>
      <point x="232" y="588"/>
      <point x="239" y="589"/>
      <point x="244" y="589" type="curve" smooth="yes"/>
      <point x="267" y="589"/>
      <point x="280" y="578"/>
      <point x="280" y="552" type="curve"/>
      <point x="280" y="524"/>
      <point x="265" y="515"/>
      <point x="240" y="515" type="curve" smooth="yes"/>
    </contour>
  </outline>
</glyph>
<glyph name="ordmasculine" format="2">
  <advance width="348.534"/>
  <unicode hex="00BA"/>
  <outline>
    <contour>
      <point x="175" y="326" type="curve" smooth="yes"/>
      <point x="257" y="326"/>
      <point x="307" y="392"/>
      <point x="307" y="515" type="curve" smooth="yes"/>
      <point x="307" y="639"/>
      <point x="257" y="705"/>
      <point x="175" y="705" type="curve" smooth="yes"/>
      <point x="92" y="705"/>
      <point x="42" y="639"/>
      <point x="42" y="515" type="curve" smooth="yes"/>
      <point x="42" y="392"/>
      <point x="92" y="326"/>
    </contour>
    <contour>
      <point x="175" y="376" type="curve" smooth="yes"/>
      <point x="124" y="376"/>
      <point x="97" y="425"/>
      <point x="97" y="515" type="curve" smooth="yes"/>
      <point x="97" y="606"/>
      <point x="125" y="655"/>
      <point x="175" y="655" type="curve" smooth="yes"/>
      <point x="225" y="655"/>
      <point x="252" y="606"/>
      <point x="252" y="515" type="curve" smooth="yes"/>
      <point x="252" y="425"/>
      <point x="225" y="376"/>
    </contour>
  </outline>
</glyph>
<glyph name="questiondown" format="2">
  <advance width="328.41"/>
  <unicode hex="00BF"/>
  <outline>
    <contour>
      <point x="175" y="-187" type="curve" smooth="yes"/>
      <point x="228" y="-187"/>
      <point x="270" y="-172"/>
      <point x="307" y="-146" type="curve"/>
      <point x="280" y="-92" type="line"/>
      <point x="251" y="-114"/>
      <point x="221" y="-125"/>
      <point x="185" y="-125" type="curve" smooth="yes"/>
      <point x="129" y="-125"/>
      <point x="98" y="-91"/>
      <point x="98" y="-34" type="curve" smooth="yes"/>
      <point x="98" y="89"/>
      <point x="231" y="112"/>
      <point x="231" y="269" type="curve" smooth="yes"/>
      <point x="231" y="287"/>
      <point x="229" y="306"/>
      <point x="227" y="323" type="curve"/>
      <point x="163" y="323" type="line"/>
      <point x="165" y="309"/>
      <point x="165" y="292"/>
      <point x="165" y="280" type="curve" smooth="yes"/>
      <point x="165" y="134"/>
      <point x="25" y="107"/>
      <point x="25" y="-39" type="curve" smooth="yes"/>
      <point x="25" y="-121"/>
      <point x="75" y="-187"/>
    </contour>
    <contour>
      <point x="199" y="426" type="curve" smooth="yes"/>
      <point x="228" y="426"/>
      <point x="248" y="449"/>
      <point x="248" y="477" type="curve" smooth="yes"/>
      <point x="248" y="503"/>
      <point x="228" y="527"/>
      <point x="199" y="527" type="curve" smooth="yes"/>
      <point x="170" y="527"/>
      <point x="150" y="503"/>
      <point x="150" y="477" type="curve" smooth="yes"/>
      <point x="150" y="449"/>
      <point x="170" y="426"/>
    </contour>
  </outline>
</glyph>
<glyph name="multiply" format="2">
  <advance width="420"/>
  <unicode hex="00D7"/>
  <outline>
    <contour>
      <point x="104" y="153" type="line"/>
      <point x="209" y="258" type="line"/>
      <point x="321" y="147" type="line"/>
      <point x="364" y="190" type="line"/>
      <point x="253" y="301" type="line"/>
      <point x="358" y="407" type="line"/>
      <point x="314" y="451" type="line"/>
      <point x="209" y="345" type="line"/>
      <point x="98" y="456" type="line"/>
      <point x="55" y="413" type="line"/>
      <point x="166" y="301" type="line"/>
      <point x="60" y="196" type="line"/>
    </contour>
  </outline>
</glyph>
<glyph name="germandbls" format="2">
  <advance width="470.638"/>
  <unicode hex="00DF"/>
  <anchor x="236" y="0" name="bottom"/>
  <anchor x="236" y="776" name="top"/>
  <outline>
    <contour>
      <point x="308" y="-11" type="curve" smooth="yes"/>
      <point x="402" y="-11"/>
      <point x="457" y="54"/>
      <point x="457" y="141" type="curve" smooth="yes"/>
      <point x="457" y="223"/>
      <point x="411" y="255"/>
      <point x="365" y="296" type="curve" smooth="yes"/>
      <point x="329" y="329"/>
      <point x="306" y="354"/>
      <point x="306" y="404" type="curve" smooth="yes"/>
      <point x="306" y="438"/>
      <point x="322" y="465"/>
      <point x="341" y="493" type="curve" smooth="yes"/>
      <point x="367" y="530"/>
      <point x="397" y="564"/>
      <point x="397" y="635" type="curve" smooth="yes"/>
      <point x="397" y="718"/>
      <point x="343" y="776"/>
      <point x="247" y="776" type="curve" smooth="yes"/>
      <point x="144" y="776"/>
      <point x="84" y="709"/>
      <point x="84" y="590" type="curve" smooth="yes"/>
      <point x="84" y="0" type="line"/>
      <point x="153" y="0" type="line"/>
      <point x="153" y="593" type="line" smooth="yes"/>
      <point x="153" y="669"/>
      <point x="183" y="716"/>
      <point x="246" y="716" type="curve" smooth="yes"/>
      <point x="297" y="716"/>
      <point x="331" y="681"/>
      <point x="331" y="627" type="curve" smooth="yes"/>
      <point x="331" y="573"/>
      <point x="307" y="543"/>
      <point x="280" y="504" type="curve" smooth="yes"/>
      <point x="257" y="469"/>
      <point x="239" y="440"/>
      <point x="239" y="396" type="curve" smooth="yes"/>
      <point x="239" y="336"/>
      <point x="266" y="302"/>
      <point x="304" y="269" type="curve" smooth="yes"/>
      <point x="350" y="229"/>
      <point x="387" y="208"/>
      <point x="387" y="145" type="curve" smooth="yes"/>
      <point x="387" y="86"/>
      <point x="359" y="47"/>
      <point x="300" y="47" type="curve" smooth="yes"/>
      <point x="276" y="47"/>
      <point x="254" y="52"/>
      <point x="233" y="60" type="curve"/>
      <point x="221" y="4" type="line"/>
      <point x="249" y="-6"/>
      <point x="276" y="-11"/>
    </contour>
  </outline>
</glyph>
<glyph name="ae" format="2">
  <advance width="654.596"/>
  <unicode hex="00E6"/>
  <anchor x="328" y="0" name="bottom"/>
  <anchor x="326" y="522" name="top"/>
  <outline>
    <contour>
      <point x="208" y="-7" type="curve" smooth="yes"/>
      <point x="265" y="-7"/>
      <point x="310" y="12"/>
      <point x="349" y="38" type="curve"/>
      <point x="386" y="5"/>
      <point x="425" y="-11"/>
      <point x="472" y="-11" type="curve" smooth="yes"/>
      <point x="511" y="-11"/>
      <point x="549" y="-3"/>
      <point x="586" y="15" type="curve"/>
      <point x="577" y="70" type="line"/>
      <point x="551" y="57"/>
      <point x="516" y="50"/>
      <point x="483" y="50" type="curve" smooth="yes"/>
      <point x="391" y="50"/>
      <point x="347" y="122"/>
      <point x="347" y="243" type="curve"/>
      <point x="603" y="243" type="line"/>
      <point x="604" y="260"/>
      <point x="605" y="279"/>
      <point x="605" y="292" type="curve" smooth="yes"/>
      <point x="605" y="449"/>
      <point x="546" y="535"/>
      <point x="448" y="535" type="curve" smooth="yes"/>
      <point x="391" y="535"/>
      <point x="345" y="504"/>
      <point x="320" y="449" type="curve"/>
      <point x="305" y="509"/>
      <point x="262" y="535"/>
      <point x="194" y="535" type="curve" smooth="yes"/>
      <point x="157" y="535"/>
      <point x="116" y="528"/>
      <point x="81" y="515" type="curve"/>
      <point x="92" y="458" type="line"/>
      <point x="123" y="469"/>
      <point x="155" y="474"/>
      <point x="184" y="474" type="curve" smooth="yes"/>
      <point x="247" y="474"/>
      <point x="278" y="442"/>
      <point x="278" y="364" type="curve" smooth="yes"/>
      <point x="278" y="301" type="line"/>
      <point x="252" y="307"/>
      <point x="229" y="311"/>
      <point x="203" y="311" type="curve" smooth="yes"/>
      <point x="102" y="311"/>
      <point x="42" y="254"/>
      <point x="42" y="153" type="curve" smooth="yes"/>
      <point x="42" y="51"/>
      <point x="102" y="-7"/>
    </contour>
    <contour>
      <point x="214" y="48" type="curve" smooth="yes"/>
      <point x="147" y="48"/>
      <point x="110" y="86"/>
      <point x="110" y="155" type="curve" smooth="yes"/>
      <point x="110" y="224"/>
      <point x="144" y="259"/>
      <point x="213" y="259" type="curve" smooth="yes"/>
      <point x="237" y="259"/>
      <point x="256" y="256"/>
      <point x="278" y="250" type="curve"/>
      <point x="279" y="181"/>
      <point x="292" y="124"/>
      <point x="315" y="83" type="curve"/>
      <point x="292" y="65"/>
      <point x="258" y="48"/>
    </contour>
    <contour>
      <point x="346" y="294" type="line"/>
      <point x="347" y="409"/>
      <point x="382" y="477"/>
      <point x="446" y="477" type="curve" smooth="yes"/>
      <point x="507" y="477"/>
      <point x="541" y="419"/>
      <point x="538" y="294" type="curve"/>
    </contour>
  </outline>
</glyph>
<glyph name="divide" format="2">
  <advance width="420"/>
  <unicode hex="00F7"/>
  <outline>
    <contour>
      <point x="40" y="271" type="line"/>
      <point x="380" y="271" type="line"/>
      <point x="380" y="329" type="line"/>
      <point x="40" y="329" type="line"/>
    </contour>
    <contour>
      <point x="210" y="105" type="curve" smooth="yes"/>
      <point x="235" y="105"/>
      <point x="256" y="124"/>
      <point x="256" y="150" type="curve" smooth="yes"/>
      <point x="256" y="178"/>
      <point x="235" y="198"/>
      <point x="210" y="198" type="curve" smooth="yes"/>
      <point x="183" y="198"/>
      <point x="164" y="178"/>
      <point x="164" y="150" type="curve" smooth="yes"/>
      <point x="164" y="124"/>
      <point x="183" y="105"/>
    </contour>
    <contour>
      <point x="210" y="403" type="curve" smooth="yes"/>
      <point x="235" y="403"/>
      <point x="256" y="422"/>
      <point x="256" y="449" type="curve" smooth="yes"/>
      <point x="256" y="477"/>
      <point x="235" y="496"/>
      <point x="210" y="496" type="curve" smooth="yes"/>
      <point x="183" y="496"/>
      <point x="164" y="477"/>
      <point x="164" y="449" type="curve" smooth="yes"/>
      <point x="164" y="422"/>
      <point x="183" y="403"/>
    </contour>
  </outline>
</glyph>
<glyph name="thorn" format="2">
  <advance width="459.788"/>
  <unicode hex="00FE"/>
  <anchor x="230" y="0" name="bottom"/>
  <anchor x="230" y="522" name="top"/>
  <outline>
    <contour>
      <point x="78" y="-185" type="line"/>
      <point x="147" y="-185" type="line"/>
      <point x="147" y="13" type="line"/>
      <point x="166" y="0"/>
      <point x="196" y="-10"/>
      <point x="230" y="-10" type="curve" smooth="yes"/>
      <point x="334" y="-10"/>
      <point x="406" y="68"/>
      <point x="406" y="262" type="curve" smooth="yes"/>
      <point x="406" y="429"/>
      <point x="351" y="533"/>
      <point x="213" y="533" type="curve" smooth="yes"/>
      <point x="188" y="533"/>
      <point x="167" y="530"/>
      <point x="147" y="523" type="curve"/>
      <point x="147" y="776" type="line"/>
      <point x="78" y="763" type="line"/>
    </contour>
    <contour>
      <point x="221" y="50" type="curve" smooth="yes"/>
      <point x="191" y="50"/>
      <point x="163" y="59"/>
      <point x="147" y="73" type="curve"/>
      <point x="147" y="460" type="line"/>
      <point x="164" y="468"/>
      <point x="186" y="473"/>
      <point x="212" y="473" type="curve" smooth="yes"/>
      <point x="289" y="473"/>
      <point x="334" y="426"/>
      <point x="334" y="262" type="curve" smooth="yes"/>
      <point x="334" y="82"/>
      <point x="273" y="50"/>
    </contour>
  </outline>
</glyph>
<glyph name="Aogonek" format="2">
  <advance width="480.788"/>
  <unicode hex="0104"/>
  <outline>
    <contour>
      <point x="411" y="-194" type="curve" smooth="yes"/>
      <point x="431" y="-194"/>
      <point x="452" y="-191"/>
      <point x="470" y="-184" type="curve"/>
      <point x="466" y="-135" type="line"/>
      <point x="450" y="-140"/>
      <point x="438" y="-141"/>
      <point x="428" y="-141" type="curve" smooth="yes"/>
      <point x="400" y="-141"/>
      <point x="387" y="-126"/>
      <point x="387" y="-98" type="curve" smooth="yes"/>
      <point x="387" y="-68"/>
      <point x="413" y="-36"/>
      <point x="460" y="0" type="curve"/>
      <point x="424" y="216"/>
      <point x="360" y="445"/>
      <point x="278" y="693" type="curve"/>
      <point x="201" y="693" type="line"/>
      <point x="120" y="445"/>
      <point x="56" y="216"/>
      <point x="21" y="0" type="curve"/>
      <point x="93" y="0" type="line"/>
      <point x="101" y="57"/>
      <point x="112" y="118"/>
      <point x="125" y="181" type="curve"/>
      <point x="353" y="181" type="line"/>
      <point x="367" y="118"/>
      <point x="377" y="56"/>
      <point x="386" y="0" type="curve"/>
      <point x="399" y="0" type="line"/>
      <point x="356" y="-36"/>
      <point x="327" y="-74"/>
      <point x="327" y="-114" type="curve" smooth="yes"/>
      <point x="327" y="-163"/>
      <point x="360" y="-194"/>
    </contour>
    <contour>
      <point x="138" y="242" type="line"/>
      <point x="164" y="365"/>
      <point x="199" y="493"/>
      <point x="239" y="618" type="curve"/>
      <point x="280" y="491"/>
      <point x="314" y="364"/>
      <point x="341" y="242" type="curve"/>
    </contour>
  </outline>
</glyph>
<glyph name="dcroat" format="2">
  <advance width="457.13"/>
  <unicode hex="0111"/>
  <outline>
    <contour>
      <point x="243" y="-10" type="curve" smooth="yes"/>
      <point x="293" y="-10"/>
      <point x="333" y="-1"/>
      <point x="378" y="15" type="curve"/>
      <point x="378" y="629" type="line"/>
      <point x="452" y="629" type="line"/>
      <point x="452" y="680" type="line"/>
      <point x="378" y="680" type="line"/>
      <point x="378" y="776" type="line"/>
      <point x="309" y="763" type="line"/>
      <point x="309" y="680" type="line"/>
      <point x="194" y="680" type="line"/>
      <point x="194" y="629" type="line"/>
      <point x="309" y="629" type="line"/>
      <point x="309" y="504" type="line"/>
      <point x="291" y="516"/>
      <point x="260" y="526"/>
      <point x="226" y="526" type="curve" smooth="yes"/>
      <point x="123" y="526"/>
      <point x="50" y="450"/>
      <point x="50" y="259" type="curve" smooth="yes"/>
      <point x="50" y="93"/>
      <point x="106" y="-10"/>
    </contour>
    <contour>
      <point x="244" y="50" type="curve" smooth="yes"/>
      <point x="166" y="50"/>
      <point x="122" y="96"/>
      <point x="122" y="259" type="curve" smooth="yes"/>
      <point x="122" y="436"/>
      <point x="183" y="466"/>
      <point x="236" y="466" type="curve" smooth="yes"/>
      <point x="265" y="466"/>
      <point x="293" y="457"/>
      <point x="309" y="443" type="curve"/>
      <point x="309" y="63" type="line"/>
      <point x="293" y="56"/>
      <point x="270" y="50"/>
    </contour>
  </outline>
</glyph>
<glyph name="eogonek" format="2">
  <advance width="429.218"/>
  <unicode hex="0119"/>
  <anchor x="215" y="522" name="top"/>
  <outline>
    <contour>
      <point x="296" y="-194" type="curve" smooth="yes"/>
      <point x="315" y="-194"/>
      <point x="337" y="-191"/>
      <point x="355" y="-184" type="curve"/>
      <point x="349" y="-135" type="line"/>
      <point x="335" y="-140"/>
      <point x="323" y="-141"/>
      <point x="313" y="-141" type="curve" smooth="yes"/>
      <point x="285" y="-141"/>
      <point x="272" y="-126"/>
      <point x="272" y="-98" type="curve" smooth="yes"/>
      <point x="272" y="-65"/>
      <point x="299" y="-21"/>
      <point x="362" y="15" type="curve"/>
      <point x="352" y="69" type="line"/>
      <point x="325" y="57"/>
      <point x="290" y="50"/>
      <point x="257" y="50" type="curve" smooth="yes"/>
      <point x="165" y="50"/>
      <point x="121" y="122"/>
      <point x="121" y="242" type="curve"/>
      <point x="379" y="242" type="line"/>
      <point x="380" y="260"/>
      <point x="381" y="278"/>
      <point x="381" y="292" type="curve" smooth="yes"/>
      <point x="381" y="449"/>
      <point x="321" y="535"/>
      <point x="223" y="535" type="curve" smooth="yes"/>
      <point x="115" y="535"/>
      <point x="50" y="434"/>
      <point x="50" y="260" type="curve" smooth="yes"/>
      <point x="50" y="90"/>
      <point x="120" y="-11"/>
      <point x="241" y="-11" type="curve" smooth="yes"/>
      <point x="250" y="-11"/>
      <point x="259" y="-10"/>
      <point x="268" y="-8" type="curve"/>
      <point x="231" y="-43"/>
      <point x="212" y="-77"/>
      <point x="212" y="-114" type="curve" smooth="yes"/>
      <point x="212" y="-163"/>
      <point x="245" y="-194"/>
    </contour>
    <contour>
      <point x="121" y="294" type="line"/>
      <point x="121" y="409"/>
      <point x="157" y="477"/>
      <point x="221" y="477" type="curve" smooth="yes"/>
      <point x="281" y="477"/>
      <point x="315" y="418"/>
      <point x="313" y="294" type="curve"/>
    </contour>
  </outline>
</glyph>
<glyph name="Hbar" format="2">
  <advance width="576.99"/>
  <unicode hex="0126"/>
  <outline>
    <contour>
      <point x="90" y="0" type="line"/>
      <point x="162" y="0" type="line"/>
      <point x="162" y="326" type="line"/>
      <point x="415" y="326" type="line"/>
      <point x="415" y="0" type="line"/>
      <point x="487" y="0" type="line"/>
      <point x="487" y="526" type="line"/>
      <point x="555" y="526" type="line"/>
      <point x="555" y="580" type="line"/>
      <point x="487" y="580" type="line"/>
      <point x="487" y="693" type="line"/>
      <point x="415" y="693" type="line"/>
      <point x="415" y="580" type="line"/>
      <point x="162" y="580" type="line"/>
      <point x="162" y="693" type="line"/>
      <point x="90" y="693" type="line"/>
      <point x="90" y="580" type="line"/>
      <point x="21" y="580" type="line"/>
      <point x="21" y="526" type="line"/>
      <point x="90" y="526" type="line"/>
    </contour>
    <contour>
      <point x="162" y="390" type="line"/>
      <point x="162" y="526" type="line"/>
      <point x="415" y="526" type="line"/>
      <point x="415" y="390" type="line"/>
    </contour>
  </outline>
</glyph>
<glyph name="iogonek" format="2">
  <advance width="223.726"/>
  <unicode hex="012F"/>
  <outline>
    <contour>
      <point x="103" y="-194" type="curve" smooth="yes"/>
      <point x="123" y="-194"/>
      <point x="144" y="-191"/>
      <point x="162" y="-184" type="curve"/>
      <point x="157" y="-135" type="line"/>
      <point x="142" y="-140"/>
      <point x="130" y="-141"/>
      <point x="119" y="-141" type="curve" smooth="yes"/>
      <point x="93" y="-141"/>
      <point x="80" y="-126"/>
      <point x="80" y="-98" type="curve" smooth="yes"/>
      <point x="80" y="-67"/>
      <point x="99" y="-36"/>
      <point x="147" y="0" type="curve"/>
      <point x="147" y="522" type="line"/>
      <point x="78" y="522" type="line"/>
      <point x="78" y="2" type="line"/>
      <point x="86" y="2" type="line"/>
      <point x="42" y="-35"/>
      <point x="19" y="-73"/>
      <point x="19" y="-114" type="curve" smooth="yes"/>
      <point x="19" y="-163"/>
      <point x="51" y="-194"/>
    </contour>
    <contour>
      <point x="112" y="623" type="curve" smooth="yes"/>
      <point x="139" y="623"/>
      <point x="161" y="643"/>
      <point x="161" y="672" type="curve" smooth="yes"/>
      <point x="161" y="701"/>
      <point x="139" y="721"/>
      <point x="112" y="721" type="curve" smooth="yes"/>
      <point x="85" y="721"/>
      <point x="65" y="701"/>
      <point x="65" y="672" type="curve" smooth="yes"/>
      <point x="65" y="643"/>
      <point x="85" y="623"/>
    </contour>
  </outline>
</glyph>
<glyph name="Eng" format="2">
  <advance width="574.218"/>
  <unicode hex="014A"/>
  <anchor x="287" y="0" name="bottom"/>
  <anchor x="287" y="693" name="top"/>
  <outline>
    <contour>
      <point x="377" y="-187" type="curve" smooth="yes"/>
      <point x="453" y="-187"/>
      <point x="490" y="-139"/>
      <point x="490" y="-41" type="curve" smooth="yes"/>
      <point x="490" y="693" type="line"/>
      <point x="423" y="693" type="line"/>
      <point x="423" y="158" type="line"/>
      <point x="345" y="336"/>
      <point x="243" y="535"/>
      <point x="148" y="693" type="curve"/>
      <point x="84" y="693" type="line"/>
      <point x="84" y="0" type="line"/>
      <point x="152" y="0" type="line"/>
      <point x="152" y="566" type="line"/>
      <point x="245" y="404"/>
      <point x="343" y="206"/>
      <point x="422" y="17" type="curve"/>
      <point x="422" y="-44" type="line" smooth="yes"/>
      <point x="422" y="-99"/>
      <point x="405" y="-126"/>
      <point x="370" y="-126" type="curve" smooth="yes"/>
      <point x="358" y="-126"/>
      <point x="341" y="-124"/>
      <point x="330" y="-120" type="curve"/>
      <point x="320" y="-177" type="line"/>
      <point x="336" y="-184"/>
      <point x="359" y="-187"/>
    </contour>
  </outline>
</glyph>
<glyph name="eng" format="2">
  <advance width="471.332"/>
  <unicode hex="014B"/>
  <anchor x="236" y="0" name="bottom"/>
  <anchor x="236" y="522" name="top"/>
  <outline>
    <contour>
      <point x="279" y="-188" type="curve" smooth="yes"/>
      <point x="367" y="-188"/>
      <point x="398" y="-128"/>
      <point x="398" y="-44" type="curve" smooth="yes"/>
      <point x="398" y="322" type="line" smooth="yes"/>
      <point x="398" y="466"/>
      <point x="347" y="532"/>
      <point x="227" y="532" type="curve" smooth="yes"/>
      <point x="175" y="532"/>
      <point x="125" y="522"/>
      <point x="78" y="506" type="curve"/>
      <point x="78" y="0" type="line"/>
      <point x="147" y="0" type="line"/>
      <point x="147" y="457" type="line"/>
      <point x="171" y="467"/>
      <point x="200" y="472"/>
      <point x="224" y="472" type="curve" smooth="yes"/>
      <point x="300" y="472"/>
      <point x="329" y="429"/>
      <point x="329" y="316" type="curve" smooth="yes"/>
      <point x="329" y="-52" type="line" smooth="yes"/>
      <point x="329" y="-104"/>
      <point x="316" y="-130"/>
      <point x="270" y="-130" type="curve" smooth="yes"/>
      <point x="261" y="-130"/>
      <point x="248" y="-129"/>
      <point x="237" y="-125" type="curve"/>
      <point x="228" y="-179" type="line"/>
      <point x="245" y="-185"/>
      <point x="261" y="-188"/>
    </contour>
  </outline>
</glyph>
<glyph name="OE" format="2">
  <advance width="754.814"/>
  <unicode hex="0152"/>
  <anchor x="376" y="0" name="bottom"/>
  <anchor x="376" y="693" name="top"/>
  <outline>
    <contour>
      <point x="320" y="-8" type="curve" smooth="yes"/>
      <point x="348" y="-8"/>
      <point x="377" y="-4"/>
      <point x="403" y="0" type="curve"/>
      <point x="707" y="0" type="line"/>
      <point x="707" y="61" type="line"/>
      <point x="472" y="61" type="line"/>
      <point x="472" y="333" type="line"/>
      <point x="670" y="333" type="line"/>
      <point x="670" y="394" type="line"/>
      <point x="472" y="394" type="line"/>
      <point x="472" y="632" type="line"/>
      <point x="692" y="632" type="line"/>
      <point x="692" y="693" type="line"/>
      <point x="405" y="693" type="line"/>
      <point x="379" y="698"/>
      <point x="349" y="702"/>
      <point x="320" y="702" type="curve" smooth="yes"/>
      <point x="154" y="702"/>
      <point x="58" y="571"/>
      <point x="58" y="347" type="curve" smooth="yes"/>
      <point x="58" y="123"/>
      <point x="154" y="-8"/>
    </contour>
    <contour>
      <point x="322" y="56" type="curve" smooth="yes"/>
      <point x="197" y="56"/>
      <point x="133" y="158"/>
      <point x="133" y="347" type="curve" smooth="yes"/>
      <point x="133" y="537"/>
      <point x="197" y="638"/>
      <point x="322" y="638" type="curve" smooth="yes"/>
      <point x="348" y="638"/>
      <point x="372" y="635"/>
      <point x="400" y="628" type="curve"/>
      <point x="400" y="66" type="line"/>
      <point x="373" y="59"/>
      <point x="348" y="56"/>
    </contour>
  </outline>
</glyph>
<glyph name="scedilla" format="2">
  <advance width="337.016"/>
  <unicode hex="015F"/>
  <outline>
    <contour>
      <point x="142" y="-194" type="curve" smooth="yes"/>
      <point x="200" y="-194"/>
      <point x="239" y="-162"/>
      <point x="239" y="-114" type="curve" smooth="yes"/>
      <point x="239" y="-80"/>
      <point x="223" y="-55"/>
      <point x="183" y="-39" type="curve"/>
      <point x="188" y="-28"/>
      <point x="193" y="-16"/>
      <point x="199" y="-5" type="curve"/>
      <point x="263" y="13"/>
      <point x="303" y="68"/>
      <point x="303" y="138" type="curve" smooth="yes"/>
      <point x="303" y="204"/>
      <point x="271" y="248"/>
      <point x="203" y="288" type="curve" smooth="yes"/>
      <point x="141" y="325"/>
      <point x="116" y="353"/>
      <point x="116" y="399" type="curve" smooth="yes"/>
      <point x="116" y="448"/>
      <point x="143" y="477"/>
      <point x="192" y="477" type="curve" smooth="yes"/>
      <point x="218" y="477"/>
      <point x="248" y="470"/>
      <point x="275" y="460" type="curve"/>
      <point x="286" y="516" type="line"/>
      <point x="262" y="527"/>
      <point x="226" y="535"/>
      <point x="189" y="535" type="curve" smooth="yes"/>
      <point x="102" y="535"/>
      <point x="47" y="476"/>
      <point x="47" y="393" type="curve" smooth="yes"/>
      <point x="47" y="329"/>
      <point x="78" y="284"/>
      <point x="148" y="244" type="curve" smooth="yes"/>
      <point x="217" y="204"/>
      <point x="233" y="178"/>
      <point x="233" y="131" type="curve" smooth="yes"/>
      <point x="233" y="83"/>
      <point x="198" y="47"/>
      <point x="147" y="47" type="curve" smooth="yes"/>
      <point x="116" y="47"/>
      <point x="78" y="57"/>
      <point x="48" y="71" type="curve"/>
      <point x="35" y="13" type="line"/>
      <point x="63" y="1"/>
      <point x="103" y="-10"/>
      <point x="143" y="-11" type="curve"/>
      <point x="136" y="-26"/>
      <point x="129" y="-43"/>
      <point x="123" y="-59" type="curve"/>
      <point x="167" y="-70"/>
      <point x="183" y="-86"/>
      <point x="183" y="-110" type="curve" smooth="yes"/>
      <point x="183" y="-134"/>
      <point x="167" y="-146"/>
      <point x="137" y="-146" type="curve" smooth="yes"/>
      <point x="122" y="-146"/>
      <point x="102" y="-143"/>
      <point x="87" y="-138" type="curve"/>
      <point x="79" y="-184" type="line"/>
      <point x="99" y="-190"/>
      <point x="121" y="-194"/>
    </contour>
  </outline>
</glyph>
<glyph name="uogonek" format="2">
  <advance width="469.56"/>
  <unicode hex="0173"/>
  <outline>
    <contour>
      <point x="327" y="-194" type="curve" smooth="yes"/>
      <point x="347" y="-194"/>
      <point x="369" y="-191"/>
      <point x="387" y="-184" type="curve"/>
      <point x="382" y="-135" type="line"/>
      <point x="366" y="-140"/>
      <point x="355" y="-141"/>
      <point x="344" y="-141" type="curve" smooth="yes"/>
      <point x="317" y="-141"/>
      <point x="304" y="-126"/>
      <point x="304" y="-98" type="curve" smooth="yes"/>
      <point x="304" y="-65"/>
      <point x="336" y="-24"/>
      <point x="393" y="16" type="curve"/>
      <point x="393" y="522" type="line"/>
      <point x="324" y="522" type="line"/>
      <point x="324" y="65" type="line"/>
      <point x="299" y="55"/>
      <point x="269" y="50"/>
      <point x="245" y="50" type="curve" smooth="yes"/>
      <point x="169" y="50"/>
      <point x="142" y="93"/>
      <point x="142" y="206" type="curve" smooth="yes"/>
      <point x="142" y="522" type="line"/>
      <point x="72" y="522" type="line"/>
      <point x="72" y="200" type="line" smooth="yes"/>
      <point x="72" y="56"/>
      <point x="124" y="-10"/>
      <point x="243" y="-10" type="curve" smooth="yes"/>
      <point x="267" y="-10"/>
      <point x="287" y="-6"/>
      <point x="307" y="0" type="curve"/>
      <point x="267" y="-37"/>
      <point x="243" y="-75"/>
      <point x="243" y="-114" type="curve" smooth="yes"/>
      <point x="243" y="-163"/>
      <point x="277" y="-194"/>
    </contour>
  </outline>
</glyph>
<glyph name="Ereversed" format="2">
  <advance width="445.814"/>
  <unicode hex="018E"/>
  <anchor x="223" y="0" name="bottom"/>
  <anchor x="223" y="693" name="top"/>
  <outline>
    <contour>
      <point x="48" y="0" type="line"/>
      <point x="361" y="0" type="line"/>
      <point x="361" y="693" type="line"/>
      <point x="63" y="693" type="line"/>
      <point x="63" y="632" type="line"/>
      <point x="290" y="632" type="line"/>
      <point x="290" y="394" type="line"/>
      <point x="85" y="394" type="line"/>
      <point x="85" y="333" type="line"/>
      <point x="290" y="333" type="line"/>
      <point x="290" y="61" type="line"/>
      <point x="48" y="61" type="line"/>
    </contour>
  </outline>
</glyph>
<glyph name="Fhook" format="2">
  <advance width="411.13"/>
  <unicode hex="0191"/>
  <outline>
    <contour>
      <point x="39" y="-189" type="curve" smooth="yes"/>
      <point x="119" y="-189"/>
      <point x="156" y="-135"/>
      <point x="156" y="-45" type="curve" smooth="yes"/>
      <point x="156" y="330" type="line"/>
      <point x="355" y="330" type="line"/>
      <point x="355" y="390" type="line"/>
      <point x="156" y="390" type="line"/>
      <point x="156" y="632" type="line"/>
      <point x="377" y="632" type="line"/>
      <point x="377" y="693" type="line"/>
      <point x="84" y="693" type="line"/>
      <point x="84" y="-51" type="line" smooth="yes"/>
      <point x="84" y="-104"/>
      <point x="70" y="-126"/>
      <point x="34" y="-126" type="curve" smooth="yes"/>
      <point x="20" y="-126"/>
      <point x="6" y="-124"/>
      <point x="-5" y="-121" type="curve"/>
      <point x="-16" y="-180" type="line"/>
      <point x="-1" y="-186"/>
      <point x="18" y="-189"/>
    </contour>
  </outline>
</glyph>
<glyph name="florin" format="2">
  <advance width="329.14"/>
  <unicode hex="0192"/>
  <outline>
    <contour>
      <point x="39" y="-189" type="curve" smooth="yes"/>
      <point x="123" y="-189"/>
      <point x="159" y="-142"/>
      <point x="159" y="-42" type="curve" smooth="yes"/>
      <point x="159" y="463" type="line"/>
      <point x="296" y="463" type="line"/>
      <point x="296" y="522" type="line"/>
      <point x="159" y="522" type="line"/>
      <point x="159" y="607" type="line" smooth="yes"/>
      <point x="159" y="682"/>
      <point x="187" y="716"/>
      <point x="246" y="716" type="curve" smooth="yes"/>
      <point x="266" y="716"/>
      <point x="287" y="711"/>
      <point x="305" y="702" type="curve"/>
      <point x="322" y="758" type="line"/>
      <point x="302" y="768"/>
      <point x="269" y="776"/>
      <point x="239" y="776" type="curve" smooth="yes"/>
      <point x="143" y="776"/>
      <point x="88" y="715"/>
      <point x="88" y="604" type="curve" smooth="yes"/>
      <point x="88" y="-42" type="line" smooth="yes"/>
      <point x="88" y="-105"/>
      <point x="75" y="-127"/>
      <point x="34" y="-127" type="curve" smooth="yes"/>
      <point x="19" y="-127"/>
      <point x="4" y="-124"/>
      <point x="-10" y="-120" type="curve"/>
      <point x="-20" y="-179" type="line"/>
      <point x="-2" y="-185"/>
      <point x="21" y="-189"/>
    </contour>
  </outline>
</glyph>
<glyph name="Ghook" format="2">
  <advance width="497.612"/>
  <unicode hex="0193"/>
  <anchor x="249" y="0" name="bottom"/>
  <anchor x="249" y="693" name="top"/>
  <outline>
    <contour>
      <point x="310" y="-10" type="curve" smooth="yes"/>
      <point x="370" y="-10"/>
      <point x="424" y="6"/>
      <point x="447" y="21" type="curve"/>
      <point x="447" y="336" type="line"/>
      <point x="375" y="336" type="line"/>
      <point x="375" y="67" type="line"/>
      <point x="358" y="60"/>
      <point x="332" y="52"/>
      <point x="311" y="52" type="curve" smooth="yes"/>
      <point x="189" y="52"/>
      <point x="133" y="151"/>
      <point x="133" y="347" type="curve" smooth="yes"/>
      <point x="133" y="547"/>
      <point x="188" y="641"/>
      <point x="303" y="641" type="curve" smooth="yes"/>
      <point x="353" y="641"/>
      <point x="390" y="628"/>
      <point x="421" y="611" type="curve"/>
      <point x="432" y="648" type="line" smooth="yes"/>
      <point x="449" y="708"/>
      <point x="469" y="723"/>
      <point x="502" y="723" type="curve" smooth="yes"/>
      <point x="515" y="723"/>
      <point x="530" y="719"/>
      <point x="542" y="713" type="curve"/>
      <point x="554" y="772" type="line"/>
      <point x="537" y="778"/>
      <point x="520" y="782"/>
      <point x="500" y="782" type="curve" smooth="yes"/>
      <point x="447" y="782"/>
      <point x="416" y="751"/>
      <point x="395" y="689" type="curve"/>
      <point x="368" y="699"/>
      <point x="336" y="703"/>
      <point x="303" y="703" type="curve" smooth="yes"/>
      <point x="144" y="703"/>
      <point x="58" y="579"/>
      <point x="58" y="347" type="curve" smooth="yes"/>
      <point x="58" y="116"/>
      <point x="142" y="-10"/>
    </contour>
  </outline>
</glyph>
<glyph name="Iota-latin" format="2">
  <advance width="308.068"/>
  <unicode hex="0196"/>
  <anchor x="155" y="0" name="bottom"/>
  <anchor x="155" y="693" name="top"/>
  <outline>
    <contour>
      <point x="208" y="-11" type="curve" smooth="yes"/>
      <point x="238" y="-11"/>
      <point x="265" y="-4"/>
      <point x="284" y="5" type="curve"/>
      <point x="272" y="61" type="line"/>
      <point x="255" y="54"/>
      <point x="239" y="51"/>
      <point x="220" y="51" type="curve" smooth="yes"/>
      <point x="175" y="51"/>
      <point x="155" y="77"/>
      <point x="155" y="140" type="curve" smooth="yes"/>
      <point x="155" y="693" type="line"/>
      <point x="83" y="693" type="line"/>
      <point x="83" y="138" type="line" smooth="yes"/>
      <point x="83" y="32"/>
      <point x="122" y="-11"/>
    </contour>
  </outline>
</glyph>
<glyph name="Khook" format="2">
  <advance width="509.384"/>
  <unicode hex="0198"/>
  <anchor x="255" y="0" name="bottom"/>
  <anchor x="255" y="693" name="top"/>
  <outline>
    <contour>
      <point x="84" y="0" type="line"/>
      <point x="156" y="0" type="line"/>
      <point x="156" y="329" type="line"/>
      <point x="250" y="249"/>
      <point x="335" y="121"/>
      <point x="390" y="0" type="curve"/>
      <point x="469" y="0" type="line"/>
      <point x="413" y="128"/>
      <point x="315" y="271"/>
      <point x="220" y="362" type="curve"/>
      <point x="264" y="432"/>
      <point x="313" y="507"/>
      <point x="366" y="579" type="curve" smooth="yes"/>
      <point x="397" y="624"/>
      <point x="414" y="637"/>
      <point x="438" y="637" type="curve" smooth="yes"/>
      <point x="454" y="637"/>
      <point x="468" y="630"/>
      <point x="482" y="617" type="curve"/>
      <point x="511" y="670" type="line"/>
      <point x="486" y="691"/>
      <point x="460" y="701"/>
      <point x="430" y="701" type="curve" smooth="yes"/>
      <point x="388" y="701"/>
      <point x="357" y="680"/>
      <point x="320" y="625" type="curve" smooth="yes"/>
      <point x="272" y="557"/>
      <point x="213" y="466"/>
      <point x="156" y="379" type="curve"/>
      <point x="156" y="693" type="line"/>
      <point x="84" y="693" type="line"/>
    </contour>
  </outline>
</glyph>
<glyph name="Phook" format="2">
  <advance width="529.084"/>
  <unicode hex="01A4"/>
  <outline>
    <contour>
      <point x="139" y="0" type="line"/>
      <point x="211" y="0" type="line"/>
      <point x="211" y="265" type="line"/>
      <point x="264" y="265" type="line" smooth="yes"/>
      <point x="407" y="265"/>
      <point x="492" y="346"/>
      <point x="492" y="481" type="curve" smooth="yes"/>
      <point x="492" y="619"/>
      <point x="411" y="698"/>
      <point x="261" y="699" type="curve"/>
      <point x="69" y="699"/>
      <point x="4" y="633"/>
      <point x="4" y="543" type="curve" smooth="yes"/>
      <point x="4" y="525"/>
      <point x="7" y="503"/>
      <point x="11" y="488" type="curve"/>
      <point x="68" y="496" type="line"/>
      <point x="65" y="509"/>
      <point x="63" y="524"/>
      <point x="63" y="539" type="curve" smooth="yes"/>
      <point x="63" y="582"/>
      <point x="87" y="612"/>
      <point x="139" y="627" type="curve"/>
    </contour>
    <contour>
      <point x="211" y="327" type="line"/>
      <point x="211" y="630" type="line"/>
      <point x="227" y="635"/>
      <point x="249" y="636"/>
      <point x="270" y="636" type="curve"/>
      <point x="369" y="634"/>
      <point x="418" y="584"/>
      <point x="418" y="481" type="curve" smooth="yes"/>
      <point x="418" y="377"/>
      <point x="367" y="327"/>
      <point x="265" y="327" type="curve" smooth="yes"/>
    </contour>
  </outline>
</glyph>
<glyph name="tonetwo" format="2">
  <advance width="337.016"/>
  <unicode hex="01A8"/>
  <outline>
    <contour>
      <point x="187" y="-11" type="curve" smooth="yes"/>
      <point x="230" y="-11"/>
      <point x="273" y="-1"/>
      <point x="302" y="13" type="curve"/>
      <point x="289" y="71" type="line"/>
      <point x="259" y="57"/>
      <point x="221" y="47"/>
      <point x="190" y="47" type="curve" smooth="yes"/>
      <point x="139" y="47"/>
      <point x="104" y="83"/>
      <point x="104" y="131" type="curve" smooth="yes"/>
      <point x="104" y="178"/>
      <point x="120" y="204"/>
      <point x="189" y="244" type="curve" smooth="yes"/>
      <point x="259" y="284"/>
      <point x="290" y="329"/>
      <point x="290" y="393" type="curve" smooth="yes"/>
      <point x="290" y="476"/>
      <point x="235" y="535"/>
      <point x="148" y="535" type="curve" smooth="yes"/>
      <point x="111" y="535"/>
      <point x="75" y="527"/>
      <point x="51" y="516" type="curve"/>
      <point x="62" y="460" type="line"/>
      <point x="89" y="470"/>
      <point x="119" y="477"/>
      <point x="145" y="477" type="curve" smooth="yes"/>
      <point x="194" y="477"/>
      <point x="221" y="448"/>
      <point x="221" y="399" type="curve" smooth="yes"/>
      <point x="221" y="353"/>
      <point x="196" y="325"/>
      <point x="134" y="288" type="curve" smooth="yes"/>
      <point x="66" y="248"/>
      <point x="34" y="204"/>
      <point x="34" y="138" type="curve" smooth="yes"/>
      <point x="34" y="52"/>
      <point x="96" y="-11"/>
    </contour>
  </outline>
</glyph>
<glyph name="eshreversedloop" format="2">
  <advance width="298.27"/>
  <unicode hex="01AA"/>
  <outline>
    <contour>
      <point x="275" y="-187" type="curve"/>
      <point x="284" y="-130" type="line"/>
      <point x="238" y="-122"/>
      <point x="220" y="-99"/>
      <point x="220" y="-48" type="curve" smooth="yes"/>
      <point x="220" y="624" type="line" smooth="yes"/>
      <point x="220" y="719"/>
      <point x="179" y="777"/>
      <point x="93" y="777" type="curve" smooth="yes"/>
      <point x="15" y="777"/>
      <point x="-34" y="721"/>
      <point x="-34" y="632" type="curve" smooth="yes"/>
      <point x="-34" y="541"/>
      <point x="14" y="487"/>
      <point x="84" y="487" type="curve" smooth="yes"/>
      <point x="107" y="487"/>
      <point x="131" y="493"/>
      <point x="150" y="513" type="curve"/>
      <point x="150" y="-44" type="line" smooth="yes"/>
      <point x="150" y="-132"/>
      <point x="192" y="-179"/>
    </contour>
    <contour>
      <point x="89" y="541" type="curve" smooth="yes"/>
      <point x="48" y="541"/>
      <point x="25" y="573"/>
      <point x="25" y="634" type="curve" smooth="yes"/>
      <point x="25" y="691"/>
      <point x="47" y="724"/>
      <point x="89" y="724" type="curve" smooth="yes"/>
      <point x="128" y="724"/>
      <point x="150" y="687"/>
      <point x="150" y="638" type="curve" smooth="yes"/>
      <point x="150" y="573" type="line"/>
      <point x="132" y="551"/>
      <point x="109" y="541"/>
    </contour>
  </outline>
</glyph>
<glyph name="tpalatalhook" format="2">
  <advance width="306.296"/>
  <unicode hex="01AB"/>
  <outline>
    <contour>
      <point x="189" y="-187" type="curve" smooth="yes"/>
      <point x="260" y="-187"/>
      <point x="294" y="-142"/>
      <point x="294" y="-48" type="curve" smooth="yes"/>
      <point x="294" y="-7"/>
      <point x="291" y="37"/>
      <point x="282" y="67" type="curve"/>
      <point x="262" y="58"/>
      <point x="243" y="55"/>
      <point x="222" y="55" type="curve" smooth="yes"/>
      <point x="169" y="55"/>
      <point x="143" y="86"/>
      <point x="143" y="157" type="curve" smooth="yes"/>
      <point x="143" y="463" type="line"/>
      <point x="278" y="463" type="line"/>
      <point x="278" y="522" type="line"/>
      <point x="143" y="522" type="line"/>
      <point x="143" y="681" type="line"/>
      <point x="74" y="668" type="line"/>
      <point x="74" y="157" type="line" smooth="yes"/>
      <point x="74" y="36"/>
      <point x="132" y="-7"/>
      <point x="206" y="-7" type="curve" smooth="yes"/>
      <point x="217" y="-7"/>
      <point x="222" y="-6"/>
      <point x="232" y="-4" type="curve"/>
      <point x="234" y="-20"/>
      <point x="235" y="-36"/>
      <point x="235" y="-53" type="curve" smooth="yes"/>
      <point x="235" y="-108"/>
      <point x="217" y="-133"/>
      <point x="183" y="-133" type="curve" smooth="yes"/>
      <point x="166" y="-133"/>
      <point x="148" y="-131"/>
      <point x="136" y="-126" type="curve"/>
      <point x="127" y="-177" type="line"/>
      <point x="144" y="-184"/>
      <point x="169" y="-187"/>
    </contour>
  </outline>
</glyph>
<glyph name="thook" format="2">
  <advance width="306.296"/>
  <unicode hex="01AD"/>
  <anchor x="154" y="0" name="bottom"/>
  <anchor x="154" y="522" name="top"/>
  <outline>
    <contour>
      <point x="211" y="-7" type="curve" smooth="yes"/>
      <point x="240" y="-7"/>
      <point x="272" y="0"/>
      <point x="294" y="12" type="curve"/>
      <point x="283" y="67" type="line"/>
      <point x="263" y="58"/>
      <point x="243" y="55"/>
      <point x="222" y="55" type="curve" smooth="yes"/>
      <point x="169" y="55"/>
      <point x="143" y="86"/>
      <point x="143" y="157" type="curve" smooth="yes"/>
      <point x="143" y="463" type="line"/>
      <point x="278" y="463" type="line"/>
      <point x="278" y="522" type="line"/>
      <point x="143" y="522" type="line"/>
      <point x="143" y="602" type="line"/>
      <point x="143" y="681"/>
      <point x="170" y="717"/>
      <point x="229" y="717" type="curve" smooth="yes"/>
      <point x="248" y="717"/>
      <point x="271" y="712"/>
      <point x="286" y="705" type="curve"/>
      <point x="300" y="762" type="line"/>
      <point x="280" y="770"/>
      <point x="249" y="776"/>
      <point x="219" y="776" type="curve" smooth="yes"/>
      <point x="123" y="776"/>
      <point x="74" y="717"/>
      <point x="74" y="598" type="curve" smooth="yes"/>
      <point x="74" y="159" type="line" smooth="yes"/>
      <point x="74" y="39"/>
      <point x="128" y="-7"/>
    </contour>
  </outline>
</glyph>
<glyph name="uhorn" format="2">
  <advance width="480.814"/>
  <unicode hex="01B0"/>
  <anchor x="241" y="0" name="bottom"/>
  <anchor x="241" y="522" name="top"/>
  <outline>
    <contour>
      <point x="243" y="-10" type="curve" smooth="yes"/>
      <point x="296" y="-10"/>
      <point x="345" y="1"/>
      <point x="393" y="16" type="curve"/>
      <point x="393" y="473" type="line"/>
      <point x="464" y="480"/>
      <point x="491" y="525"/>
      <point x="491" y="581" type="curve" smooth="yes"/>
      <point x="491" y="595"/>
      <point x="490" y="608"/>
      <point x="487" y="625" type="curve"/>
      <point x="428" y="625" type="line"/>
      <point x="431" y="609"/>
      <point x="432" y="597"/>
      <point x="432" y="583" type="curve" smooth="yes"/>
      <point x="432" y="543"/>
      <point x="415" y="522"/>
      <point x="360" y="522" type="curve"/>
      <point x="324" y="522" type="line"/>
      <point x="324" y="65" type="line"/>
      <point x="299" y="55"/>
      <point x="269" y="50"/>
      <point x="245" y="50" type="curve" smooth="yes"/>
      <point x="169" y="50"/>
      <point x="142" y="93"/>
      <point x="142" y="206" type="curve" smooth="yes"/>
      <point x="142" y="522" type="line"/>
      <point x="72" y="522" type="line"/>
      <point x="72" y="200" type="line" smooth="yes"/>
      <point x="72" y="56"/>
      <point x="124" y="-10"/>
    </contour>
  </outline>
</glyph>
<glyph name="twostroke" format="2">
  <advance width="433.342"/>
  <unicode hex="01BB"/>
  <anchor x="217" y="0" name="bottom"/>
  <anchor x="217" y="776" name="top"/>
  <outline>
    <contour>
      <point x="65" y="0" type="curve"/>
      <point x="381" y="0" type="line"/>
      <point x="381" y="62" type="line"/>
      <point x="141" y="62" type="line"/>
      <point x="147" y="175"/>
      <point x="193" y="239"/>
      <point x="257" y="325" type="curve"/>
      <point x="378" y="325" type="line"/>
      <point x="378" y="382" type="line"/>
      <point x="298" y="382" type="line"/>
      <point x="332" y="433"/>
      <point x="357" y="487"/>
      <point x="357" y="552" type="curve" smooth="yes"/>
      <point x="357" y="647"/>
      <point x="295" y="707"/>
      <point x="206" y="707" type="curve" smooth="yes"/>
      <point x="144" y="707"/>
      <point x="87" y="689"/>
      <point x="48" y="650" type="curve"/>
      <point x="81" y="602" type="line"/>
      <point x="113" y="631"/>
      <point x="151" y="646"/>
      <point x="195" y="646" type="curve" smooth="yes"/>
      <point x="247" y="646"/>
      <point x="285" y="610"/>
      <point x="285" y="545" type="curve" smooth="yes"/>
      <point x="285" y="485"/>
      <point x="257" y="434"/>
      <point x="220" y="382" type="curve"/>
      <point x="74" y="382" type="line"/>
      <point x="74" y="325" type="line"/>
      <point x="178" y="325" type="line"/>
      <point x="120" y="246"/>
      <point x="65" y="158"/>
      <point x="65" y="19" type="curve" smooth="yes"/>
      <point x="65" y="13"/>
      <point x="65" y="6"/>
    </contour>
  </outline>
</glyph>
<glyph name="glottalinvertedstroke" format="2">
  <advance width="337.016"/>
  <unicode hex="01BE"/>
  <anchor x="169" y="0" name="bottom"/>
  <anchor x="169" y="522" name="top"/>
  <outline>
    <contour>
      <point x="150" y="-11" type="curve" smooth="yes"/>
      <point x="241" y="-11"/>
      <point x="303" y="52"/>
      <point x="303" y="138" type="curve" smooth="yes"/>
      <point x="303" y="204"/>
      <point x="271" y="248"/>
      <point x="203" y="288" type="curve" smooth="yes"/>
      <point x="137" y="327"/>
      <point x="110" y="353"/>
      <point x="110" y="399" type="curve" smooth="yes"/>
      <point x="110" y="463" type="line"/>
      <point x="244" y="463" type="line"/>
      <point x="244" y="522" type="line"/>
      <point x="110" y="522" type="line"/>
      <point x="110" y="681" type="line"/>
      <point x="40" y="668" type="line"/>
      <point x="40" y="393" type="line" smooth="yes"/>
      <point x="40" y="329"/>
      <point x="75" y="286"/>
      <point x="148" y="244" type="curve"/>
      <point x="217" y="204"/>
      <point x="233" y="178"/>
      <point x="233" y="131" type="curve" smooth="yes"/>
      <point x="233" y="83"/>
      <point x="198" y="47"/>
      <point x="147" y="47" type="curve" smooth="yes"/>
      <point x="116" y="47"/>
      <point x="78" y="57"/>
      <point x="48" y="71" type="curve"/>
      <point x="35" y="13" type="line"/>
      <point x="64" y="-1"/>
      <point x="107" y="-11"/>
    </contour>
  </outline>
</glyph>
<glyph name="Hwair" format="2">
  <advance width="820.596"/>
  <unicode hex="01F6"/>
  <outline>
    <contour>
      <point x="577" y="-10" type="curve" smooth="yes"/>
      <point x="698" y="-10"/>
      <point x="753" y="54"/>
      <point x="753" y="184" type="curve" smooth="yes"/>
      <point x="753" y="520" type="line"/>
      <point x="681" y="520" type="line"/>
      <point x="681" y="187" type="line" smooth="yes"/>
      <point x="681" y="95"/>
      <point x="652" y="54"/>
      <point x="577" y="54" type="curve" smooth="yes"/>
      <point x="502" y="54"/>
      <point x="473" y="95"/>
      <point x="473" y="186" type="curve" smooth="yes"/>
      <point x="473" y="693" type="line"/>
      <point x="401" y="693" type="line"/>
      <point x="401" y="393" type="line"/>
      <point x="155" y="393" type="line"/>
      <point x="155" y="693" type="line"/>
      <point x="83" y="693" type="line"/>
      <point x="83" y="0" type="line"/>
      <point x="155" y="0" type="line"/>
      <point x="155" y="330" type="line"/>
      <point x="401" y="330" type="line"/>
      <point x="401" y="184" type="line" smooth="yes"/>
      <point x="401" y="51"/>
      <point x="459" y="-10"/>
    </contour>
  </outline>
</glyph>
<glyph name="Wynn" format="2">
  <advance width="510.586"/>
  <unicode hex="01F7"/>
  <outline>
    <contour>
      <point x="83" y="-185" type="line"/>
      <point x="155" y="-185" type="line"/>
      <point x="155" y="2" type="line"/>
      <point x="332" y="76"/>
      <point x="463" y="213"/>
      <point x="463" y="448" type="curve" smooth="yes"/>
      <point x="463" y="610"/>
      <point x="377" y="699"/>
      <point x="247" y="699" type="curve" smooth="yes"/>
      <point x="194" y="699"/>
      <point x="139" y="687"/>
      <point x="83" y="661" type="curve"/>
    </contour>
    <contour>
      <point x="155" y="73" type="curve"/>
      <point x="155" y="620" type="line"/>
      <point x="187" y="633"/>
      <point x="215" y="637"/>
      <point x="242" y="637" type="curve" smooth="yes"/>
      <point x="331" y="637"/>
      <point x="388" y="568"/>
      <point x="388" y="445" type="curve" smooth="yes"/>
      <point x="388" y="249"/>
      <point x="291" y="133"/>
    </contour>
  </outline>
</glyph>
<glyph name="yogh" format="2">
  <advance width="346.472"/>
  <unicode hex="021D"/>
  <outline>
    <contour>
      <point x="9" y="-185" type="line"/>
      <point x="205" y="-185"/>
      <point x="317" y="-101"/>
      <point x="317" y="40" type="curve" smooth="yes"/>
      <point x="317" y="122"/>
      <point x="277" y="182"/>
      <point x="202" y="207" type="curve"/>
      <point x="261" y="241"/>
      <point x="291" y="300"/>
      <point x="291" y="367" type="curve"/>
      <point x="291" y="469"/>
      <point x="231" y="533"/>
      <point x="127" y="533" type="curve" smooth="yes"/>
      <point x="85" y="533"/>
      <point x="42" y="520"/>
      <point x="5" y="503" type="curve"/>
      <point x="23" y="449" type="line"/>
      <point x="54" y="464"/>
      <point x="89" y="471"/>
      <point x="119" y="471" type="curve" smooth="yes"/>
      <point x="184" y="471"/>
      <point x="220" y="432"/>
      <point x="220" y="359" type="curve"/>
      <point x="220" y="277"/>
      <point x="175" y="230"/>
      <point x="109" y="230" type="curve" smooth="yes"/>
      <point x="76" y="230" type="line"/>
      <point x="76" y="172" type="line"/>
      <point x="111" y="172" type="line" smooth="yes"/>
      <point x="203" y="172"/>
      <point x="246" y="125"/>
      <point x="246" y="41" type="curve" smooth="yes"/>
      <point x="246" y="-64"/>
      <point x="165" y="-124"/>
      <point x="6" y="-126" type="curve"/>
    </contour>
  </outline>
</glyph>
<glyph name="Nlongrightleg" format="2">
  <advance width="539.902"/>
  <unicode hex="0220"/>
  <outline>
    <contour>
      <point x="387" y="-185" type="line"/>
      <point x="458" y="-185" type="line"/>
      <point x="458" y="466" type="line" smooth="yes"/>
      <point x="458" y="632"/>
      <point x="394" y="703"/>
      <point x="262" y="703" type="curve" smooth="yes"/>
      <point x="201" y="703"/>
      <point x="140" y="691"/>
      <point x="83" y="672" type="curve"/>
      <point x="83" y="0" type="line"/>
      <point x="155" y="0" type="line"/>
      <point x="155" y="623" type="line"/>
      <point x="185" y="633"/>
      <point x="225" y="640"/>
      <point x="257" y="640" type="curve" smooth="yes"/>
      <point x="349" y="640"/>
      <point x="387" y="591"/>
      <point x="387" y="461" type="curve" smooth="yes"/>
    </contour>
  </outline>
</glyph>
<glyph name="ou" format="2">
  <advance width="458.332"/>
  <unicode hex="0223"/>
  <outline>
    <contour>
      <point x="229" y="-10" type="curve" smooth="yes"/>
      <point x="341" y="-10"/>
      <point x="413" y="73"/>
      <point x="413" y="233" type="curve" smooth="yes"/>
      <point x="413" y="338"/>
      <point x="380" y="421"/>
      <point x="314" y="453" type="curve"/>
      <point x="367" y="482"/>
      <point x="386" y="536"/>
      <point x="386" y="626" type="curve" smooth="yes"/>
      <point x="386" y="682"/>
      <point x="381" y="732"/>
      <point x="372" y="776" type="curve"/>
      <point x="305" y="776" type="line"/>
      <point x="315" y="727"/>
      <point x="319" y="675"/>
      <point x="319" y="631" type="curve" smooth="yes"/>
      <point x="319" y="518"/>
      <point x="290" y="479"/>
      <point x="229" y="479" type="curve" smooth="yes"/>
      <point x="168" y="479"/>
      <point x="140" y="518"/>
      <point x="140" y="631" type="curve" smooth="yes"/>
      <point x="140" y="675"/>
      <point x="143" y="727"/>
      <point x="153" y="776" type="curve"/>
      <point x="87" y="776" type="line"/>
      <point x="79" y="732"/>
      <point x="72" y="682"/>
      <point x="72" y="626" type="curve" smooth="yes"/>
      <point x="72" y="536"/>
      <point x="91" y="482"/>
      <point x="145" y="453" type="curve"/>
      <point x="78" y="421"/>
      <point x="45" y="338"/>
      <point x="45" y="233" type="curve" smooth="yes"/>
      <point x="45" y="73"/>
      <point x="118" y="-10"/>
    </contour>
    <contour>
      <point x="229" y="51" type="curve" smooth="yes"/>
      <point x="157" y="51"/>
      <point x="115" y="107"/>
      <point x="115" y="235" type="curve" smooth="yes"/>
      <point x="115" y="361"/>
      <point x="157" y="418"/>
      <point x="229" y="418" type="curve" smooth="yes"/>
      <point x="300" y="418"/>
      <point x="342" y="361"/>
      <point x="342" y="235" type="curve" smooth="yes"/>
      <point x="342" y="107"/>
      <point x="301" y="51"/>
    </contour>
  </outline>
</glyph>
<glyph name="Zhook" format="2">
  <advance width="419.902"/>
  <unicode hex="0224"/>
  <outline>
    <contour>
      <point x="277" y="-187" type="curve" smooth="yes"/>
      <point x="348" y="-187"/>
      <point x="385" y="-141"/>
      <point x="385" y="-51" type="curve" smooth="yes"/>
      <point x="385" y="62" type="line"/>
      <point x="115" y="62" type="line"/>
      <point x="187" y="259"/>
      <point x="278" y="450"/>
      <point x="378" y="631" type="curve"/>
      <point x="378" y="693" type="line"/>
      <point x="49" y="693" type="line"/>
      <point x="49" y="631" type="line"/>
      <point x="302" y="631" type="line"/>
      <point x="198" y="438"/>
      <point x="110" y="244"/>
      <point x="36" y="49" type="curve"/>
      <point x="36" y="0" type="line"/>
      <point x="319" y="0" type="line"/>
      <point x="319" y="-58" type="line" smooth="yes"/>
      <point x="319" y="-106"/>
      <point x="303" y="-130"/>
      <point x="268" y="-130" type="curve" smooth="yes"/>
      <point x="255" y="-130"/>
      <point x="243" y="-127"/>
      <point x="232" y="-124" type="curve"/>
      <point x="223" y="-178" type="line"/>
      <point x="240" y="-184"/>
      <point x="259" y="-187"/>
    </contour>
  </outline>
</glyph>
<glyph name="Cstroke" format="2">
  <advance width="463.534"/>
  <unicode hex="023B"/>
  <outline>
    <contour>
      <point x="190" y="-106" type="line"/>
      <point x="215" y="8" type="line"/>
      <point x="241" y="-4"/>
      <point x="272" y="-10"/>
      <point x="305" y="-10" type="curve" smooth="yes"/>
      <point x="358" y="-10"/>
      <point x="407" y="1"/>
      <point x="444" y="24" type="curve"/>
      <point x="425" y="82" type="line"/>
      <point x="388" y="63"/>
      <point x="353" y="52"/>
      <point x="313" y="52" type="curve" smooth="yes"/>
      <point x="281" y="52"/>
      <point x="254" y="60"/>
      <point x="230" y="74" type="curve"/>
      <point x="355" y="634" type="line"/>
      <point x="379" y="629"/>
      <point x="398" y="621"/>
      <point x="415" y="612" type="curve"/>
      <point x="435" y="672" type="line"/>
      <point x="416" y="683"/>
      <point x="393" y="691"/>
      <point x="370" y="696" type="curve"/>
      <point x="385" y="766" type="line"/>
      <point x="343" y="774" type="line"/>
      <point x="327" y="703" type="line"/>
      <point x="319" y="703"/>
      <point x="310" y="703"/>
      <point x="301" y="703" type="curve" smooth="yes"/>
      <point x="140" y="703"/>
      <point x="58" y="579"/>
      <point x="58" y="343" type="curve" smooth="yes"/>
      <point x="58" y="189"/>
      <point x="99" y="80"/>
      <point x="176" y="28" type="curve"/>
      <point x="148" y="-98" type="line"/>
    </contour>
    <contour>
      <point x="193" y="108" type="line"/>
      <point x="154" y="155"/>
      <point x="133" y="234"/>
      <point x="133" y="343" type="curve" smooth="yes"/>
      <point x="133" y="552"/>
      <point x="188" y="640"/>
      <point x="299" y="641" type="curve" smooth="yes"/>
      <point x="303" y="641"/>
      <point x="308" y="641"/>
      <point x="313" y="640" type="curve"/>
    </contour>
  </outline>
</glyph>
<glyph name="Glottalstop" format="2">
  <advance width="380.674"/>
  <unicode hex="0241"/>
  <outline>
    <contour>
      <point x="109" y="0" type="line"/>
      <point x="181" y="0" type="line"/>
      <point x="181" y="187" type="line" smooth="yes"/>
      <point x="181" y="283"/>
      <point x="221" y="317"/>
      <point x="272" y="364" type="curve" smooth="yes"/>
      <point x="321" y="410"/>
      <point x="355" y="454"/>
      <point x="355" y="535" type="curve" smooth="yes"/>
      <point x="355" y="628"/>
      <point x="287" y="704"/>
      <point x="171" y="704" type="curve" smooth="yes"/>
      <point x="117" y="704"/>
      <point x="65" y="689"/>
      <point x="14" y="660" type="curve"/>
      <point x="38" y="602" type="line"/>
      <point x="79" y="627"/>
      <point x="118" y="641"/>
      <point x="163" y="641" type="curve" smooth="yes"/>
      <point x="235" y="641"/>
      <point x="279" y="594"/>
      <point x="279" y="532" type="curve" smooth="yes"/>
      <point x="279" y="467"/>
      <point x="255" y="437"/>
      <point x="206" y="389" type="curve" smooth="yes"/>
      <point x="149" y="336"/>
      <point x="109" y="301"/>
      <point x="109" y="191" type="curve" smooth="yes"/>
    </contour>
  </outline>
</glyph>
<glyph name="Estroke" format="2">
  <advance width="445.814"/>
  <unicode hex="0246"/>
  <outline>
    <contour>
      <point x="191" y="-110" type="line"/>
      <point x="219" y="0" type="line"/>
      <point x="397" y="0" type="line"/>
      <point x="397" y="61" type="line"/>
      <point x="236" y="61" type="line"/>
      <point x="302" y="333" type="line"/>
      <point x="360" y="333" type="line"/>
      <point x="360" y="394" type="line"/>
      <point x="318" y="394" type="line"/>
      <point x="408" y="758" type="line"/>
      <point x="366" y="767" type="line"/>
      <point x="347" y="693" type="line"/>
      <point x="84" y="693" type="line"/>
      <point x="84" y="0" type="line"/>
      <point x="174" y="0" type="line"/>
      <point x="149" y="-100" type="line"/>
    </contour>
    <contour>
      <point x="156" y="61" type="line"/>
      <point x="156" y="333" type="line"/>
      <point x="257" y="333" type="line"/>
      <point x="191" y="61" type="line"/>
    </contour>
    <contour>
      <point x="156" y="394" type="line"/>
      <point x="156" y="632" type="line"/>
      <point x="331" y="632" type="line"/>
      <point x="274" y="394" type="line"/>
    </contour>
  </outline>
</glyph>
<glyph name="Jstroke" format="2">
  <advance width="380.726"/>
  <unicode hex="0248"/>
  <anchor x="190" y="0" name="bottom"/>
  <anchor x="190" y="693" name="top"/>
  <outline>
    <contour>
      <point x="130" y="-10" type="curve" smooth="yes"/>
      <point x="229" y="-10"/>
      <point x="298" y="37"/>
      <point x="298" y="185" type="curve" smooth="yes"/>
      <point x="298" y="334" type="line"/>
      <point x="375" y="334" type="line"/>
      <point x="375" y="389" type="line"/>
      <point x="298" y="389" type="line"/>
      <point x="298" y="693" type="line"/>
      <point x="226" y="693" type="line"/>
      <point x="226" y="389" type="line"/>
      <point x="124" y="389" type="line"/>
      <point x="124" y="334" type="line"/>
      <point x="226" y="334" type="line"/>
      <point x="226" y="186" type="line" smooth="yes"/>
      <point x="226" y="91"/>
      <point x="191" y="54"/>
      <point x="128" y="54" type="curve" smooth="yes"/>
      <point x="92" y="54"/>
      <point x="57" y="63"/>
      <point x="27" y="81" type="curve"/>
      <point x="6" y="23" type="line"/>
      <point x="40" y="1"/>
      <point x="86" y="-10"/>
    </contour>
  </outline>
</glyph>
<glyph name="qhooktail" format="2">
  <advance width="450.042"/>
  <unicode hex="024B"/>
  <anchor x="225" y="0" name="bottom"/>
  <anchor x="225" y="522" name="top"/>
  <outline>
    <contour>
      <point x="424" y="-188" type="curve" smooth="yes"/>
      <point x="442" y="-188"/>
      <point x="464" y="-185"/>
      <point x="483" y="-177" type="curve"/>
      <point x="473" y="-121" type="line"/>
      <point x="460" y="-125"/>
      <point x="446" y="-127"/>
      <point x="432" y="-127" type="curve" smooth="yes"/>
      <point x="397" y="-127"/>
      <point x="378" y="-103"/>
      <point x="378" y="-44" type="curve" smooth="yes"/>
      <point x="378" y="508" type="line"/>
      <point x="333" y="524"/>
      <point x="293" y="533"/>
      <point x="243" y="533" type="curve" smooth="yes"/>
      <point x="106" y="533"/>
      <point x="50" y="429"/>
      <point x="50" y="262" type="curve" smooth="yes"/>
      <point x="50" y="68"/>
      <point x="123" y="-10"/>
      <point x="226" y="-10" type="curve" smooth="yes"/>
      <point x="260" y="-10"/>
      <point x="291" y="0"/>
      <point x="309" y="13" type="curve"/>
      <point x="309" y="-53" type="line" smooth="yes"/>
      <point x="309" y="-151"/>
      <point x="354" y="-188"/>
    </contour>
    <contour>
      <point x="236" y="50" type="curve" smooth="yes"/>
      <point x="183" y="50"/>
      <point x="122" y="82"/>
      <point x="122" y="262" type="curve" smooth="yes"/>
      <point x="122" y="426"/>
      <point x="166" y="473"/>
      <point x="244" y="473" type="curve" smooth="yes"/>
      <point x="270" y="473"/>
      <point x="293" y="468"/>
      <point x="309" y="460" type="curve"/>
      <point x="309" y="73" type="line"/>
      <point x="293" y="59"/>
      <point x="265" y="50"/>
    </contour>
  </outline>
</glyph>
<glyph name="rstroke" format="2">
  <advance width="316.068"/>
  <unicode hex="024D"/>
  <anchor x="159" y="0" name="bottom"/>
  <anchor x="159" y="522" name="top"/>
  <outline>
    <contour>
      <point x="79" y="0" type="line"/>
      <point x="148" y="0" type="line"/>
      <point x="148" y="216" type="line"/>
      <point x="270" y="216" type="line"/>
      <point x="270" y="266" type="line"/>
      <point x="148" y="266" type="line"/>
      <point x="148" y="456" type="line"/>
      <point x="171" y="466"/>
      <point x="198" y="472"/>
      <point x="229" y="472" type="curve" smooth="yes"/>
      <point x="254" y="472"/>
      <point x="277" y="469"/>
      <point x="296" y="462" type="curve"/>
      <point x="308" y="521" type="line"/>
      <point x="288" y="528"/>
      <point x="258" y="532"/>
      <point x="224" y="532" type="curve" smooth="yes"/>
      <point x="174" y="532"/>
      <point x="120" y="520"/>
      <point x="79" y="499" type="curve"/>
      <point x="79" y="266" type="line"/>
      <point x="13" y="266" type="line"/>
      <point x="13" y="216" type="line"/>
      <point x="79" y="216" type="line"/>
    </contour>
  </outline>
</glyph>
<glyph name="ystroke" format="2">
  <advance width="395.98"/>
  <unicode hex="024F"/>
  <anchor x="198" y="0" name="bottom"/>
  <anchor x="198" y="522" name="top"/>
  <outline>
    <contour>
      <point x="65" y="-188" type="curve" smooth="yes"/>
      <point x="136" y="-188"/>
      <point x="185" y="-134"/>
      <point x="238" y="5" type="curve" smooth="yes"/>
      <point x="271" y="92"/>
      <point x="300" y="190"/>
      <point x="327" y="296" type="curve"/>
      <point x="385" y="296" type="line"/>
      <point x="385" y="342" type="line"/>
      <point x="337" y="342" type="line"/>
      <point x="351" y="401"/>
      <point x="363" y="462"/>
      <point x="373" y="522" type="curve"/>
      <point x="305" y="522" type="line"/>
      <point x="296" y="466"/>
      <point x="285" y="405"/>
      <point x="271" y="342" type="curve"/>
      <point x="127" y="342" type="line"/>
      <point x="113" y="405"/>
      <point x="102" y="468"/>
      <point x="94" y="522" type="curve"/>
      <point x="22" y="522" type="line"/>
      <point x="34" y="461"/>
      <point x="45" y="401"/>
      <point x="59" y="342" type="curve"/>
      <point x="11" y="342" type="line"/>
      <point x="11" y="296" type="line"/>
      <point x="70" y="296" type="line"/>
      <point x="96" y="195"/>
      <point x="125" y="96"/>
      <point x="166" y="-6" type="curve"/>
      <point x="127" y="-98"/>
      <point x="93" y="-128"/>
      <point x="60" y="-128" type="curve" smooth="yes"/>
      <point x="46" y="-128"/>
      <point x="32" y="-126"/>
      <point x="19" y="-119" type="curve"/>
      <point x="7" y="-176" type="line"/>
      <point x="20" y="-183"/>
      <point x="39" y="-188"/>
    </contour>
    <contour>
      <point x="199" y="74" type="curve"/>
      <point x="178" y="133"/>
      <point x="154" y="213"/>
      <point x="135" y="296" type="curve"/>
      <point x="263" y="296" type="line"/>
      <point x="244" y="217"/>
      <point x="222" y="139"/>
    </contour>
  </outline>
</glyph>
<glyph name="dotaccent" format="2">
  <advance width="290.3"/>
  <unicode hex="02D9"/>
  <outline>
    <contour>
      <point x="146" y="625" type="curve" smooth="yes"/>
      <point x="170" y="625"/>
      <point x="192" y="646"/>
      <point x="192" y="673" type="curve" smooth="yes"/>
      <point x="192" y="701"/>
      <point x="170" y="722"/>
      <point x="146" y="722" type="curve" smooth="yes"/>
      <point x="120" y="722"/>
      <point x="98" y="701"/>
      <point x="98" y="673" type="curve" smooth="yes"/>
      <point x="98" y="646"/>
      <point x="120" y="625"/>
    </contour>
  </outline>
</glyph>
<glyph name="ring" format="2">
  <advance width="306.544"/>
  <unicode hex="02DA"/>
  <outline>
    <contour>
      <point x="151" y="600" type="curve" smooth="yes"/>
      <point x="196" y="600"/>
      <point x="234" y="631"/>
      <point x="234" y="685" type="curve" smooth="yes"/>
      <point x="234" y="733"/>
      <point x="199" y="770"/>
      <point x="151" y="770" type="curve" smooth="yes"/>
      <point x="103" y="770"/>
      <point x="67" y="733"/>
      <point x="67" y="685" type="curve" smooth="yes"/>
      <point x="67" y="632"/>
      <point x="106" y="600"/>
    </contour>
    <contour>
      <point x="151" y="637" type="curve" smooth="yes"/>
      <point x="124" y="637"/>
      <point x="106" y="657"/>
      <point x="106" y="685" type="curve" smooth="yes"/>
      <point x="106" y="713"/>
      <point x="124" y="732"/>
      <point x="151" y="732" type="curve" smooth="yes"/>
      <point x="178" y="732"/>
      <point x="196" y="713"/>
      <point x="196" y="685" type="curve" smooth="yes"/>
      <point x="196" y="657"/>
      <point x="178" y="637"/>
    </contour>
  </outline>
</glyph>
<glyph name="circumflexcomb" format="2">
  <unicode hex="0302"/>
  <anchor x="0" y="522" name="_top"/>
  <anchor x="0" y="764" name="top"/>
  <outline>
    <contour>
      <point x="-79" y="589" type="line"/>
      <point x="0" y="683" type="line"/>
      <point x="80" y="589" type="line"/>
      <point x="115" y="619" type="line"/>
      <point x="1" y="764" type="line"/>
      <point x="-115" y="619" type="line"/>
    </contour>
  </outline>
</glyph>
<glyph name="dieresiscomb" format="2">
  <unicode hex="0308"/>
  <anchor x="0" y="522" name="_top"/>
  <anchor x="0" y="718" name="top"/>
  <outline>
    <contour>
      <point x="74" y="627" type="curve" smooth="yes"/>
      <point x="97" y="627"/>
      <point x="119" y="646"/>
      <point x="119" y="672" type="curve" smooth="yes"/>
      <point x="119" y="700"/>
      <point x="97" y="718"/>
      <point x="74" y="718" type="curve" smooth="yes"/>
      <point x="50" y="718"/>
      <point x="29" y="700"/>
      <point x="29" y="672" type="curve" smooth="yes"/>
      <point x="29" y="646"/>
      <point x="50" y="627"/>
    </contour>
    <contour>
      <point x="-75" y="627" type="curve" smooth="yes"/>
      <point x="-52" y="627"/>
      <point x="-30" y="646"/>
      <point x="-30" y="672" type="curve" smooth="yes"/>
      <point x="-30" y="700"/>
      <point x="-52" y="718"/>
      <point x="-75" y="718" type="curve" smooth="yes"/>
      <point x="-100" y="718"/>
      <point x="-119" y="700"/>
      <point x="-119" y="672" type="curve" smooth="yes"/>
      <point x="-119" y="646"/>
      <point x="-100" y="627"/>
    </contour>
  </outline>
</glyph>
<glyph name="ringcomb" format="2">
  <unicode hex="030A"/>
  <anchor x="0" y="522" name="_top"/>
  <anchor x="0" y="770" name="top"/>
  <outline>
    <contour>
      <point x="0" y="600" type="curve" smooth="yes"/>
      <point x="45" y="600"/>
      <point x="84" y="631"/>
      <point x="84" y="685" type="curve" smooth="yes"/>
      <point x="84" y="733"/>
      <point x="48" y="770"/>
      <point x="0" y="770" type="curve" smooth="yes"/>
      <point x="-48" y="770"/>
      <point x="-84" y="733"/>
      <point x="-84" y="685" type="curve" smooth="yes"/>
      <point x="-84" y="632"/>
      <point x="-45" y="600"/>
    </contour>
    <contour>
      <point x="0" y="637" type="curve" smooth="yes"/>
      <point x="-27" y="637"/>
      <point x="-45" y="657"/>
      <point x="-45" y="685" type="curve" smooth="yes"/>
      <point x="-45" y="713"/>
      <point x="-27" y="732"/>
      <point x="0" y="732" type="curve" smooth="yes"/>
      <point x="27" y="732"/>
      <point x="46" y="713"/>
      <point x="46" y="685" type="curve" smooth="yes"/>
      <point x="46" y="657"/>
      <point x="27" y="637"/>
    </contour>
  </outline>
</glyph>
<glyph name="caroncomb" format="2">
  <unicode hex="030C"/>
  <anchor x="0" y="522" name="_top"/>
  <anchor x="0" y="766" name="top"/>
  <outline>
    <contour>
      <point x="1" y="591" type="line"/>
      <point x="115" y="736" type="line"/>
      <point x="80" y="766" type="line"/>
      <point x="0" y="672" type="line"/>
      <point x="-79" y="766" type="line"/>
      <point x="-115" y="736" type="line"/>
    </contour>
  </outline>
</glyph>
<glyph name="breveinvertedcomb" format="2">
  <unicode hex="0311"/>
  <anchor x="0" y="522" name="_top"/>
  <anchor x="0" y="752" name="top"/>
  <outline>
    <contour>
      <point x="-107" y="622" type="curve"/>
      <point x="-61" y="622" type="line"/>
      <point x="-59" y="674"/>
      <point x="-40" y="703"/>
      <point x="0" y="703" type="curve" smooth="yes"/>
      <point x="41" y="703"/>
      <point x="59" y="674"/>
      <point x="61" y="622" type="curve"/>
      <point x="107" y="622" type="line"/>
      <point x="107" y="701"/>
      <point x="70" y="752"/>
      <point x="0" y="752" type="curve" smooth="yes"/>
      <point x="-70" y="752"/>
      <point x="-107" y="701"/>
    </contour>
  </outline>
</glyph>
<glyph name="Theta" format="2">
  <advance width="590.534"/>
  <unicode hex="0398"/>
  <outline>
    <contour>
      <point x="296" y="-10" type="curve" smooth="yes"/>
      <point x="447" y="-10"/>
      <point x="534" y="119"/>
      <point x="534" y="345" type="curve" smooth="yes"/>
      <point x="534" y="573"/>
      <point x="447" y="704"/>
      <point x="296" y="704" type="curve" smooth="yes"/>
      <point x="144" y="704"/>
      <point x="58" y="573"/>
      <point x="58" y="345" type="curve" smooth="yes"/>
      <point x="58" y="119"/>
      <point x="144" y="-10"/>
    </contour>
    <contour>
      <point x="296" y="52" type="curve" smooth="yes"/>
      <point x="189" y="52"/>
      <point x="133" y="155"/>
      <point x="133" y="345" type="curve" smooth="yes"/>
      <point x="133" y="538"/>
      <point x="189" y="641"/>
      <point x="296" y="641" type="curve" smooth="yes"/>
      <point x="402" y="641"/>
      <point x="457" y="538"/>
      <point x="457" y="345" type="curve" smooth="yes"/>
      <point x="457" y="154"/>
      <point x="402" y="52"/>
    </contour>
    <contour>
      <point x="195" y="316" type="line"/>
      <point x="396" y="316" type="line"/>
      <point x="396" y="380" type="line"/>
      <point x="195" y="380" type="line"/>
    </contour>
  </outline>
</glyph>
<glyph name="Lambda" format="2">
  <advance width="476.56"/>
  <unicode hex="039B"/>
  <outline>
    <contour>
      <point x="21" y="1" type="curve"/>
      <point x="95" y="1" type="line"/>
      <point x="120" y="176"/>
      <point x="171" y="399"/>
      <point x="237" y="616" type="curve"/>
      <point x="305" y="403"/>
      <point x="356" y="180"/>
      <point x="382" y="0" type="curve"/>
      <point x="455" y="0" type="line"/>
      <point x="420" y="216"/>
      <point x="359" y="445"/>
      <point x="276" y="693" type="curve"/>
      <point x="198" y="693" type="line"/>
      <point x="117" y="446"/>
      <point x="56" y="216"/>
    </contour>
  </outline>
</glyph>
<glyph name="beta" format="2">
  <advance width="481.56"/>
  <unicode hex="03B2"/>
  <outline>
    <contour>
      <point x="78" y="-185" type="line"/>
      <point x="147" y="-185" type="line"/>
      <point x="147" y="12" type="line"/>
      <point x="179" y="-2"/>
      <point x="216" y="-9"/>
      <point x="255" y="-9" type="curve" smooth="yes"/>
      <point x="366" y="-9"/>
      <point x="437" y="78"/>
      <point x="437" y="224" type="curve" smooth="yes"/>
      <point x="437" y="316"/>
      <point x="399" y="404"/>
      <point x="306" y="430" type="curve"/>
      <point x="364" y="460"/>
      <point x="401" y="523"/>
      <point x="401" y="603" type="curve" smooth="yes"/>
      <point x="401" y="717"/>
      <point x="331" y="777"/>
      <point x="240" y="777" type="curve" smooth="yes"/>
      <point x="126" y="777"/>
      <point x="78" y="697"/>
      <point x="78" y="576" type="curve" smooth="yes"/>
    </contour>
    <contour>
      <point x="249" y="52" type="curve" smooth="yes"/>
      <point x="210" y="52"/>
      <point x="175" y="60"/>
      <point x="147" y="74" type="curve"/>
      <point x="147" y="574" type="line" smooth="yes"/>
      <point x="147" y="662"/>
      <point x="173" y="717"/>
      <point x="239" y="717" type="curve" smooth="yes"/>
      <point x="299" y="717"/>
      <point x="331" y="669"/>
      <point x="331" y="602" type="curve" smooth="yes"/>
      <point x="331" y="510"/>
      <point x="285" y="452"/>
      <point x="227" y="452" type="curve" smooth="yes"/>
      <point x="218" y="452" type="line"/>
      <point x="218" y="395" type="line"/>
      <point x="226" y="395" type="line" smooth="yes"/>
      <point x="323" y="395"/>
      <point x="366" y="315"/>
      <point x="366" y="220" type="curve" smooth="yes"/>
      <point x="366" y="111"/>
      <point x="314" y="52"/>
    </contour>
  </outline>
</glyph>
<glyph name="gamma" format="2">
  <advance width="372.41"/>
  <unicode hex="03B3"/>
  <outline>
    <contour>
      <point x="153" y="-185" type="curve"/>
      <point x="217" y="-185" type="line"/>
      <point x="214" y="-131"/>
      <point x="208" y="-72"/>
      <point x="198" y="5" type="curve"/>
      <point x="292" y="201"/>
      <point x="337" y="351"/>
      <point x="365" y="522" type="curve"/>
      <point x="294" y="522" type="line"/>
      <point x="271" y="377"/>
      <point x="236" y="237"/>
      <point x="180" y="110" type="curve"/>
      <point x="154" y="263"/>
      <point x="120" y="405"/>
      <point x="84" y="522" type="curve"/>
      <point x="12" y="522" type="line"/>
      <point x="82" y="293"/>
      <point x="137" y="49"/>
    </contour>
  </outline>
</glyph>
<glyph name="iota" format="2">
  <advance width="230.042"/>
  <unicode hex="03B9"/>
  <anchor x="117" y="522" name="top"/>
  <outline>
    <contour>
      <point x="202" y="-7" type="curve"/>
      <point x="211" y="48" type="line"/>
      <point x="145" y="55"/>
      <point x="144" y="91"/>
      <point x="144" y="148" type="curve" smooth="yes"/>
      <point x="144" y="522" type="line"/>
      <point x="75" y="522" type="line"/>
      <point x="75" y="138" type="line" smooth="yes"/>
      <point x="75" y="48"/>
      <point x="96" y="1"/>
    </contour>
  </outline>
</glyph>
<glyph name="nu" format="2">
  <advance width="384.068"/>
  <unicode hex="03BD"/>
  <outline>
    <contour>
      <point x="139" y="0" type="curve"/>
      <point x="212" y="0" type="line"/>
      <point x="283" y="145"/>
      <point x="342" y="317"/>
      <point x="368" y="522" type="curve"/>
      <point x="297" y="522" type="line"/>
      <point x="276" y="362"/>
      <point x="242" y="218"/>
      <point x="190" y="88" type="curve"/>
      <point x="169" y="239"/>
      <point x="133" y="393"/>
      <point x="84" y="522" type="curve"/>
      <point x="12" y="522" type="line"/>
      <point x="73" y="363"/>
      <point x="119" y="160"/>
    </contour>
  </outline>
</glyph>
<glyph name="rho" format="2">
  <advance width="463.332"/>
  <unicode hex="03C1"/>
  <anchor x="236" y="522" name="top"/>
  <outline>
    <contour>
      <point x="72" y="-185" type="line"/>
      <point x="142" y="-185" type="line"/>
      <point x="142" y="13" type="line"/>
      <point x="163" y="-2"/>
      <point x="193" y="-10"/>
      <point x="228" y="-10" type="curve" smooth="yes"/>
      <point x="346" y="-10"/>
      <point x="413" y="89"/>
      <point x="413" y="264" type="curve" smooth="yes"/>
      <point x="413" y="442"/>
      <point x="350" y="533"/>
      <point x="236" y="533" type="curve" smooth="yes"/>
      <point x="137" y="533"/>
      <point x="72" y="468"/>
      <point x="72" y="335" type="curve" smooth="yes"/>
    </contour>
    <contour>
      <point x="217" y="50" type="curve" smooth="yes"/>
      <point x="193" y="50"/>
      <point x="164" y="56"/>
      <point x="142" y="74" type="curve"/>
      <point x="142" y="335" type="line" smooth="yes"/>
      <point x="142" y="431"/>
      <point x="179" y="473"/>
      <point x="238" y="473" type="curve" smooth="yes"/>
      <point x="304" y="473"/>
      <point x="341" y="405"/>
      <point x="341" y="264" type="curve" smooth="yes"/>
      <point x="341" y="123"/>
      <point x="298" y="50"/>
    </contour>
  </outline>
</glyph>
<glyph name="sigma" format="2">
  <advance width="466.964"/>
  <unicode hex="03C3"/>
  <outline>
    <contour>
      <point x="228" y="-11" type="curve" smooth="yes"/>
      <point x="336" y="-11"/>
      <point x="403" y="88"/>
      <point x="403" y="248" type="curve" smooth="yes"/>
      <point x="403" y="342"/>
      <point x="374" y="409"/>
      <point x="336" y="461" type="curve"/>
      <point x="448" y="461" type="line"/>
      <point x="448" y="522" type="line"/>
      <point x="257" y="522" type="line" smooth="yes"/>
      <point x="124" y="522"/>
      <point x="50" y="424"/>
      <point x="50" y="253" type="curve" smooth="yes"/>
      <point x="50" y="88"/>
      <point x="118" y="-11"/>
    </contour>
    <contour>
      <point x="228" y="50" type="curve" smooth="yes"/>
      <point x="159" y="50"/>
      <point x="121" y="124"/>
      <point x="121" y="252" type="curve" smooth="yes"/>
      <point x="121" y="387"/>
      <point x="167" y="461"/>
      <point x="254" y="461" type="curve" smooth="yes"/>
      <point x="266" y="461" type="line"/>
      <point x="300" y="422"/>
      <point x="332" y="354"/>
      <point x="332" y="249" type="curve" smooth="yes"/>
      <point x="332" y="126"/>
      <point x="294" y="50"/>
    </contour>
  </outline>
</glyph>
<glyph name="phi" format="2">
  <advance width="606.482"/>
  <unicode hex="03C6"/>
  <outline>
    <contour>
      <point x="269" y="-185" type="line"/>
      <point x="338" y="-185" type="line"/>
      <point x="338" y="-9" type="line"/>
      <point x="479" y="3"/>
      <point x="560" y="95"/>
      <point x="560" y="262" type="curve" smooth="yes"/>
      <point x="560" y="431"/>
      <point x="466" y="534"/>
      <point x="304" y="534" type="curve" smooth="yes"/>
      <point x="141" y="534"/>
      <point x="47" y="431"/>
      <point x="47" y="262" type="curve" smooth="yes"/>
      <point x="47" y="95"/>
      <point x="122" y="3"/>
      <point x="269" y="-9" type="curve"/>
    </contour>
    <contour>
      <point x="269" y="52" type="line"/>
      <point x="166" y="62"/>
      <point x="118" y="133"/>
      <point x="118" y="263" type="curve" smooth="yes"/>
      <point x="118" y="388"/>
      <point x="170" y="460"/>
      <point x="269" y="472" type="curve"/>
    </contour>
    <contour>
      <point x="338" y="52" type="curve"/>
      <point x="338" y="472" type="line"/>
      <point x="438" y="460"/>
      <point x="489" y="387"/>
      <point x="489" y="262" type="curve" smooth="yes"/>
      <point x="489" y="132"/>
      <point x="438" y="62"/>
    </contour>
  </outline>
</glyph>
<glyph name="chi" format="2">
  <advance width="357.384"/>
  <unicode hex="03C7"/>
  <outline>
    <contour>
      <point x="5" y="-185" type="curve"/>
      <point x="73" y="-185" type="line"/>
      <point x="96" y="-91"/>
      <point x="129" y="8"/>
      <point x="179" y="125" type="curve"/>
      <point x="227" y="7"/>
      <point x="255" y="-85"/>
      <point x="281" y="-185" type="curve"/>
      <point x="353" y="-185" type="line"/>
      <point x="323" y="-78"/>
      <point x="287" y="30"/>
      <point x="220" y="185" type="curve"/>
      <point x="342" y="522" type="line"/>
      <point x="272" y="522" type="line"/>
      <point x="180" y="242" type="line"/>
      <point x="88" y="522" type="line"/>
      <point x="15" y="522" type="line"/>
      <point x="136" y="184" type="line"/>
      <point x="71" y="31"/>
      <point x="35" y="-78"/>
    </contour>
  </outline>
</glyph>
<glyph name="omega" format="2">
  <advance width="663.342"/>
  <unicode hex="03C9"/>
  <anchor x="325" y="0" name="bottom"/>
  <anchor x="332" y="522" name="top"/>
  <outline>
    <contour>
      <point x="203" y="-9" type="curve" smooth="yes"/>
      <point x="271" y="-9"/>
      <point x="310" y="23"/>
      <point x="331" y="93" type="curve"/>
      <point x="354" y="22"/>
      <point x="394" y="-9"/>
      <point x="460" y="-9" type="curve" smooth="yes"/>
      <point x="554" y="-9"/>
      <point x="610" y="73"/>
      <point x="610" y="247" type="curve" smooth="yes"/>
      <point x="610" y="346"/>
      <point x="587" y="444"/>
      <point x="534" y="535" type="curve"/>
      <point x="474" y="512" type="line"/>
      <point x="521" y="426"/>
      <point x="540" y="332"/>
      <point x="540" y="244" type="curve" smooth="yes"/>
      <point x="540" y="117"/>
      <point x="513" y="53"/>
      <point x="455" y="53" type="curve" smooth="yes"/>
      <point x="394" y="53"/>
      <point x="367" y="106"/>
      <point x="367" y="205" type="curve" smooth="yes"/>
      <point x="367" y="417" type="line"/>
      <point x="297" y="417" type="line"/>
      <point x="297" y="205" type="line" smooth="yes"/>
      <point x="297" y="106"/>
      <point x="269" y="53"/>
      <point x="209" y="53" type="curve" smooth="yes"/>
      <point x="152" y="53"/>
      <point x="123" y="117"/>
      <point x="123" y="244" type="curve" smooth="yes"/>
      <point x="123" y="332"/>
      <point x="142" y="426"/>
      <point x="189" y="512" type="curve"/>
      <point x="129" y="535" type="line"/>
      <point x="76" y="444"/>
      <point x="54" y="346"/>
      <point x="54" y="247" type="curve" smooth="yes"/>
      <point x="54" y="73"/>
      <point x="109" y="-9"/>
    </contour>
  </outline>
</glyph>
<glyph name="Dje-cy" format="2">
  <advance width="580"/>
  <unicode hex="0402"/>
  <outline>
    <contour>
      <point x="383" y="-2" type="curve" smooth="yes"/>
      <point x="477" y="-2"/>
      <point x="542" y="78"/>
      <point x="542" y="207" type="curve" smooth="yes"/>
      <point x="542" y="348"/>
      <point x="468" y="432"/>
      <point x="338" y="432" type="curve" smooth="yes"/>
      <point x="301" y="432"/>
      <point x="267" y="424"/>
      <point x="241" y="412" type="curve"/>
      <point x="241" y="631" type="line"/>
      <point x="403" y="631" type="line"/>
      <point x="403" y="693" type="line"/>
      <point x="19" y="693" type="line"/>
      <point x="19" y="631" type="line"/>
      <point x="169" y="631" type="line"/>
      <point x="169" y="0" type="line"/>
      <point x="241" y="0" type="line"/>
      <point x="241" y="348" type="line"/>
      <point x="264" y="359"/>
      <point x="299" y="370"/>
      <point x="335" y="370" type="curve" smooth="yes"/>
      <point x="419" y="370"/>
      <point x="469" y="313"/>
      <point x="469" y="209" type="curve" smooth="yes"/>
      <point x="469" y="107"/>
      <point x="433" y="58"/>
      <point x="373" y="58" type="curve" smooth="yes"/>
      <point x="361" y="58"/>
      <point x="353" y="58"/>
      <point x="342" y="60" type="curve"/>
      <point x="338" y="2" type="line"/>
      <point x="353" y="-1"/>
      <point x="369" y="-2"/>
    </contour>
  </outline>
</glyph>
<glyph name="Lje-cy" format="2">
  <advance width="802"/>
  <unicode hex="0409"/>
  <outline>
    <contour>
      <point x="14" y="-9" type="line"/>
      <point x="124" y="9"/>
      <point x="172" y="69"/>
      <point x="202" y="192" type="curve" smooth="yes"/>
      <point x="231" y="304"/>
      <point x="235" y="440"/>
      <point x="235" y="631" type="curve"/>
      <point x="402" y="631" type="line"/>
      <point x="402" y="12" type="line"/>
      <point x="445" y="2"/>
      <point x="498" y="-5"/>
      <point x="543" y="-5" type="curve" smooth="yes"/>
      <point x="690" y="-5"/>
      <point x="768" y="69"/>
      <point x="768" y="209" type="curve" smooth="yes"/>
      <point x="768" y="333"/>
      <point x="709" y="420"/>
      <point x="550" y="420" type="curve" smooth="yes"/>
      <point x="525" y="420"/>
      <point x="499" y="420"/>
      <point x="474" y="420" type="curve"/>
      <point x="474" y="693" type="line"/>
      <point x="167" y="693" type="line"/>
      <point x="167" y="468"/>
      <point x="163" y="322"/>
      <point x="139" y="223" type="curve" smooth="yes"/>
      <point x="116" y="120"/>
      <point x="82" y="76"/>
      <point x="5" y="56" type="curve"/>
    </contour>
    <contour>
      <point x="543" y="59" type="curve" smooth="yes"/>
      <point x="521" y="59"/>
      <point x="494" y="62"/>
      <point x="474" y="65" type="curve"/>
      <point x="474" y="357" type="line"/>
      <point x="497" y="357"/>
      <point x="522" y="357"/>
      <point x="546" y="357" type="curve" smooth="yes"/>
      <point x="661" y="357"/>
      <point x="692" y="296"/>
      <point x="692" y="208" type="curve" smooth="yes"/>
      <point x="692" y="105"/>
      <point x="646" y="59"/>
    </contour>
  </outline>
</glyph>
<glyph name="De-cy" format="2">
  <advance width="565"/>
  <unicode hex="0414"/>
  <outline>
    <contour>
      <point x="18" y="-185" type="line"/>
      <point x="87" y="-185" type="line"/>
      <point x="87" y="0" type="line"/>
      <point x="460" y="0" type="line"/>
      <point x="460" y="-185" type="line"/>
      <point x="528" y="-185" type="line"/>
      <point x="528" y="62" type="line"/>
      <point x="471" y="62" type="line"/>
      <point x="471" y="693" type="line"/>
      <point x="159" y="693" type="line"/>
      <point x="159" y="320"/>
      <point x="141" y="159"/>
      <point x="63" y="62" type="curve"/>
      <point x="18" y="62" type="line"/>
    </contour>
    <contour>
      <point x="147" y="62" type="line"/>
      <point x="217" y="168"/>
      <point x="229" y="350"/>
      <point x="229" y="631" type="curve"/>
      <point x="399" y="631" type="line"/>
      <point x="399" y="62" type="line"/>
    </contour>
  </outline>
</glyph>
<glyph name="El-cy" format="2">
  <advance width="558"/>
  <unicode hex="041B"/>
  <outline>
    <contour>
      <point x="14" y="-9" type="line"/>
      <point x="124" y="9"/>
      <point x="172" y="69"/>
      <point x="202" y="192" type="curve" smooth="yes"/>
      <point x="231" y="304"/>
      <point x="235" y="440"/>
      <point x="235" y="631" type="curve"/>
      <point x="402" y="631" type="line"/>
      <point x="402" y="0" type="line"/>
      <point x="474" y="0" type="line"/>
      <point x="474" y="693" type="line"/>
      <point x="167" y="693" type="line"/>
      <point x="167" y="468"/>
      <point x="163" y="322"/>
      <point x="139" y="223" type="curve" smooth="yes"/>
      <point x="116" y="120"/>
      <point x="82" y="76"/>
      <point x="5" y="56" type="curve"/>
    </contour>
  </outline>
</glyph>
<glyph name="Hardsign-cy" format="2">
  <advance width="547"/>
  <unicode hex="042A"/>
  <anchor x="273" y="693" name="top"/>
  <outline>
    <contour>
      <point x="285" y="-5" type="curve" smooth="yes"/>
      <point x="433" y="-5"/>
      <point x="513" y="70"/>
      <point x="513" y="212" type="curve" smooth="yes"/>
      <point x="513" y="333"/>
      <point x="453" y="420"/>
      <point x="291" y="419" type="curve" smooth="yes"/>
      <point x="266" y="419"/>
      <point x="241" y="416"/>
      <point x="215" y="414" type="curve"/>
      <point x="215" y="693" type="line"/>
      <point x="14" y="693" type="line"/>
      <point x="14" y="631" type="line"/>
      <point x="143" y="631" type="line"/>
      <point x="143" y="12" type="line"/>
      <point x="186" y="2"/>
      <point x="239" y="-5"/>
    </contour>
    <contour>
      <point x="286" y="59" type="curve" smooth="yes"/>
      <point x="262" y="59"/>
      <point x="235" y="62"/>
      <point x="215" y="65" type="curve"/>
      <point x="215" y="351" type="line"/>
      <point x="238" y="354"/>
      <point x="264" y="356"/>
      <point x="290" y="356" type="curve" smooth="yes"/>
      <point x="406" y="357"/>
      <point x="438" y="297"/>
      <point x="438" y="210" type="curve" smooth="yes"/>
      <point x="438" y="106"/>
      <point x="390" y="59"/>
    </contour>
  </outline>
</glyph>
<glyph name="Ereversed-cy" format="2">
  <advance width="465"/>
  <unicode hex="042D"/>
  <anchor x="193" y="673" name="top"/>
  <outline>
    <contour>
      <point x="165" y="-10" type="curve" smooth="yes"/>
      <point x="323" y="-10"/>
      <point x="407" y="116"/>
      <point x="407" y="343" type="curve" smooth="yes"/>
      <point x="407" y="579"/>
      <point x="329" y="703"/>
      <point x="168" y="703" type="curve" smooth="yes"/>
      <point x="116" y="703"/>
      <point x="68" y="691"/>
      <point x="29" y="671" type="curve"/>
      <point x="50" y="610" type="line"/>
      <point x="82" y="628"/>
      <point x="123" y="641"/>
      <point x="168" y="641" type="curve" smooth="yes"/>
      <point x="274" y="641"/>
      <point x="323" y="561"/>
      <point x="330" y="390" type="curve"/>
      <point x="117" y="390" type="line"/>
      <point x="117" y="329" type="line"/>
      <point x="331" y="329" type="line"/>
      <point x="329" y="145"/>
      <point x="273" y="52"/>
      <point x="157" y="52" type="curve" smooth="yes"/>
      <point x="115" y="52"/>
      <point x="75" y="60"/>
      <point x="39" y="80" type="curve"/>
      <point x="21" y="22" type="line"/>
      <point x="59" y="-1"/>
      <point x="110" y="-10"/>
    </contour>
  </outline>
</glyph>
<glyph name="Yu-cy" format="2">
  <advance width="809"/>
  <unicode hex="042E"/>
  <anchor x="405" y="693" name="top"/>
  <outline>
    <contour>
      <point x="518" y="-10" type="curve" smooth="yes"/>
      <point x="666" y="-10"/>
      <point x="751" y="119"/>
      <point x="751" y="345" type="curve" smooth="yes"/>
      <point x="751" y="573"/>
      <point x="666" y="704"/>
      <point x="518" y="704" type="curve" smooth="yes"/>
      <point x="380" y="704"/>
      <point x="298" y="591"/>
      <point x="287" y="393" type="curve"/>
      <point x="156" y="393" type="line"/>
      <point x="156" y="693" type="line"/>
      <point x="84" y="693" type="line"/>
      <point x="84" y="0" type="line"/>
      <point x="156" y="0" type="line"/>
      <point x="156" y="330" type="line"/>
      <point x="286" y="330" type="line"/>
      <point x="290" y="112"/>
      <point x="374" y="-10"/>
    </contour>
    <contour>
      <point x="518" y="52" type="curve" smooth="yes"/>
      <point x="414" y="52"/>
      <point x="360" y="155"/>
      <point x="360" y="345" type="curve" smooth="yes"/>
      <point x="360" y="538"/>
      <point x="414" y="641"/>
      <point x="518" y="641" type="curve" smooth="yes"/>
      <point x="622" y="641"/>
      <point x="675" y="537"/>
      <point x="675" y="345" type="curve" smooth="yes"/>
      <point x="675" y="154"/>
      <point x="622" y="52"/>
    </contour>
  </outline>
</glyph>
<glyph name="de-cy" format="2">
  <advance width="477.348"/>
  <unicode hex="0434"/>
  <outline>
    <contour>
      <point x="8" y="-145" type="line"/>
      <point x="74.006" y="-145" type="line"/>
      <point x="74.006" y="0" type="line"/>
      <point x="383" y="0" type="line"/>
      <point x="383" y="-145" type="line"/>
      <point x="449" y="-145" type="line"/>
      <point x="449" y="59" type="line"/>
      <point x="389" y="59" type="line"/>
      <point x="389" y="522" type="line"/>
      <point x="127" y="522" type="line"/>
      <point x="127" y="295"/>
      <point x="104" y="143"/>
      <point x="49" y="59" type="curve"/>
      <point x="8" y="59" type="line"/>
    </contour>
    <contour>
      <point x="123" y="59" type="line"/>
      <point x="166" y="138"/>
      <point x="194" y="261"/>
      <point x="194" y="463" type="curve"/>
      <point x="320" y="463" type="line"/>
      <point x="320" y="59" type="line"/>
    </contour>
  </outline>
</glyph>
<glyph name="ka-cy" format="2">
  <advance width="398.638"/>
  <unicode hex="043A"/>
  <anchor x="379" y="0" name="bottomright"/>
  <anchor x="233" y="522" name="top"/>
  <outline>
    <contour>
      <point x="79" y="0" type="line"/>
      <point x="148" y="0" type="line"/>
      <point x="148" y="252" type="line"/>
      <point x="220" y="183"/>
      <point x="279" y="89"/>
      <point x="320" y="0" type="curve"/>
      <point x="394" y="0" type="line"/>
      <point x="355" y="95"/>
      <point x="281" y="203"/>
      <point x="207" y="278" type="curve"/>
      <point x="269" y="355"/>
      <point x="327" y="434"/>
      <point x="379" y="522" type="curve"/>
      <point x="305" y="522" type="line"/>
      <point x="264" y="451"/>
      <point x="208" y="370"/>
      <point x="148" y="295" type="curve"/>
      <point x="148" y="522" type="line"/>
      <point x="79" y="522" type="line"/>
    </contour>
  </outline>
</glyph>
<glyph name="em-cy" format="2">
  <advance width="601.876"/>
  <unicode hex="043C"/>
  <outline>
    <contour>
      <point x="69" y="0" type="curve"/>
      <point x="139" y="0" type="line"/>
      <point x="140" y="131"/>
      <point x="145" y="276"/>
      <point x="154" y="413" type="curve"/>
      <point x="202" y="296"/>
      <point x="240" y="186"/>
      <point x="274" y="74" type="curve"/>
      <point x="329" y="74" type="line"/>
      <point x="362" y="187"/>
      <point x="400" y="297"/>
      <point x="448" y="415" type="curve"/>
      <point x="456" y="277"/>
      <point x="461" y="131"/>
      <point x="463" y="0" type="curve"/>
      <point x="533" y="0" type="line"/>
      <point x="529" y="177"/>
      <point x="519" y="369"/>
      <point x="505" y="522" type="curve"/>
      <point x="436" y="522" type="line"/>
      <point x="390" y="421"/>
      <point x="343" y="299"/>
      <point x="301" y="162" type="curve"/>
      <point x="259" y="299"/>
      <point x="212" y="421"/>
      <point x="166" y="522" type="curve"/>
      <point x="96" y="522" type="line"/>
      <point x="83" y="369"/>
      <point x="74" y="177"/>
    </contour>
  </outline>
</glyph>
<glyph name="che-cy" format="2">
  <advance width="438.042"/>
  <unicode hex="0447"/>
  <anchor x="418" y="0" name="bottomright"/>
  <anchor x="203" y="522" name="top"/>
  <outline>
    <contour>
      <point x="290" y="0" type="line"/>
      <point x="359" y="0" type="line"/>
      <point x="359" y="522" type="line"/>
      <point x="290" y="522" type="line"/>
      <point x="290" y="266" type="line"/>
      <point x="262" y="256"/>
      <point x="232" y="250"/>
      <point x="202" y="250" type="curve" smooth="yes"/>
      <point x="136" y="250"/>
      <point x="112" y="280"/>
      <point x="112" y="353" type="curve" smooth="yes"/>
      <point x="112" y="522" type="line"/>
      <point x="42" y="522" type="line"/>
      <point x="42" y="350" type="line" smooth="yes"/>
      <point x="42" y="229"/>
      <point x="100" y="188"/>
      <point x="195" y="188" type="curve" smooth="yes"/>
      <point x="228" y="188"/>
      <point x="262" y="198"/>
      <point x="290" y="207" type="curve"/>
    </contour>
  </outline>
</glyph>
<glyph name="yeru-cy" format="2">
  <advance width="642.69"/>
  <unicode hex="044B"/>
  <anchor x="322" y="522" name="top"/>
  <outline>
    <contour>
      <point x="219" y="-10" type="curve" smooth="yes"/>
      <point x="320" y="-10"/>
      <point x="398" y="36"/>
      <point x="398" y="161" type="curve" smooth="yes"/>
      <point x="398" y="279"/>
      <point x="325" y="332"/>
      <point x="235" y="332" type="curve" smooth="yes"/>
      <point x="204" y="332"/>
      <point x="172" y="324"/>
      <point x="148" y="316" type="curve"/>
      <point x="148" y="522" type="line"/>
      <point x="79" y="522" type="line"/>
      <point x="79" y="14" type="line"/>
      <point x="118" y="0"/>
      <point x="175" y="-10"/>
    </contour>
    <contour>
      <point x="222" y="50" type="curve" smooth="yes"/>
      <point x="196" y="50"/>
      <point x="167" y="55"/>
      <point x="148" y="61" type="curve"/>
      <point x="148" y="254" type="line"/>
      <point x="169" y="264"/>
      <point x="197" y="270"/>
      <point x="227" y="270" type="curve" smooth="yes"/>
      <point x="292" y="270"/>
      <point x="327" y="230"/>
      <point x="327" y="160" type="curve" smooth="yes"/>
      <point x="327" y="86"/>
      <point x="289" y="50"/>
    </contour>
    <contour>
      <point x="495" y="0" type="line"/>
      <point x="564" y="0" type="line"/>
      <point x="564" y="522" type="line"/>
      <point x="495" y="522" type="line"/>
    </contour>
  </outline>
</glyph>
<glyph name="ereversed-cy" format="2">
  <advance width="359.674"/>
  <unicode hex="044D"/>
  <anchor x="150" y="522" name="top"/>
  <outline>
    <contour>
      <point x="126" y="-10" type="curve" smooth="yes"/>
      <point x="245" y="-10"/>
      <point x="311" y="88"/>
      <point x="311" y="260" type="curve" smooth="yes"/>
      <point x="311" y="436"/>
      <point x="243" y="535"/>
      <point x="124" y="535" type="curve" smooth="yes"/>
      <point x="87" y="535"/>
      <point x="53" y="528"/>
      <point x="26" y="515" type="curve"/>
      <point x="39" y="458" type="line"/>
      <point x="60" y="468"/>
      <point x="88" y="474"/>
      <point x="115" y="474" type="curve" smooth="yes"/>
      <point x="189" y="474"/>
      <point x="231" y="418"/>
      <point x="238" y="298" type="curve"/>
      <point x="73" y="298" type="line"/>
      <point x="73" y="239" type="line"/>
      <point x="238" y="239" type="line"/>
      <point x="234" y="116"/>
      <point x="186" y="51"/>
      <point x="112" y="51" type="curve" smooth="yes"/>
      <point x="84" y="51"/>
      <point x="57" y="55"/>
      <point x="33" y="67" type="curve"/>
      <point x="20" y="11" type="line"/>
      <point x="49" y="-5"/>
      <point x="86" y="-10"/>
    </contour>
  </outline>
</glyph>
<glyph name="ya-cy" format="2">
  <advance width="432.534"/>
  <unicode hex="044F"/>
  <anchor x="217" y="522" name="top"/>
  <outline>
    <contour>
      <point x="20" y="0" type="curve"/>
      <point x="95" y="0" type="line"/>
      <point x="125" y="73"/>
      <point x="161" y="146"/>
      <point x="198" y="207" type="curve"/>
      <point x="211" y="205"/>
      <point x="224" y="204"/>
      <point x="236" y="204" type="curve" smooth="yes"/>
      <point x="286" y="204" type="line"/>
      <point x="286" y="0" type="line"/>
      <point x="354" y="0" type="line"/>
      <point x="354" y="516" type="line"/>
      <point x="317" y="528"/>
      <point x="273" y="535"/>
      <point x="229" y="535" type="curve" smooth="yes"/>
      <point x="107" y="535"/>
      <point x="44" y="476"/>
      <point x="44" y="374" type="curve" smooth="yes"/>
      <point x="44" y="305"/>
      <point x="79" y="254"/>
      <point x="139" y="231" type="curve"/>
      <point x="100" y="168"/>
      <point x="62" y="91"/>
    </contour>
    <contour>
      <point x="233" y="263" type="line" smooth="yes"/>
      <point x="154" y="263"/>
      <point x="115" y="301"/>
      <point x="115" y="369" type="curve" smooth="yes"/>
      <point x="115" y="440"/>
      <point x="150" y="477"/>
      <point x="224" y="477" type="curve" smooth="yes"/>
      <point x="244" y="477"/>
      <point x="267" y="474"/>
      <point x="285" y="469" type="curve"/>
      <point x="285" y="263" type="line"/>
    </contour>
  </outline>
</glyph>
<glyph name="Yat-cy" format="2">
  <advance width="543.56"/>
  <unicode hex="0462"/>
  <outline>
    <contour>
      <point x="279" y="-5" type="curve" smooth="yes"/>
      <point x="427" y="-5"/>
      <point x="509" y="70"/>
      <point x="509" y="211" type="curve" smooth="yes"/>
      <point x="509" y="355"/>
      <point x="439" y="426"/>
      <point x="282" y="426" type="curve" smooth="yes"/>
      <point x="259" y="426"/>
      <point x="235" y="426"/>
      <point x="212" y="426" type="curve"/>
      <point x="212" y="615" type="line"/>
      <point x="346" y="615" type="line"/>
      <point x="346" y="672" type="line"/>
      <point x="212" y="672" type="line"/>
      <point x="212" y="741" type="line"/>
      <point x="140" y="741" type="line"/>
      <point x="140" y="672" type="line"/>
      <point x="23" y="672" type="line"/>
      <point x="23" y="615" type="line"/>
      <point x="140" y="615" type="line"/>
      <point x="140" y="12" type="line"/>
      <point x="181" y="2"/>
      <point x="237" y="-5"/>
    </contour>
    <contour>
      <point x="281" y="59" type="curve" smooth="yes"/>
      <point x="255" y="59"/>
      <point x="232" y="62"/>
      <point x="212" y="65" type="curve"/>
      <point x="212" y="362" type="line"/>
      <point x="235" y="362"/>
      <point x="261" y="362"/>
      <point x="284" y="362" type="curve" smooth="yes"/>
      <point x="394" y="362"/>
      <point x="435" y="312"/>
      <point x="435" y="212" type="curve" smooth="yes"/>
      <point x="435" y="110"/>
      <point x="384" y="59"/>
    </contour>
  </outline>
</glyph>
<glyph name="yat-cy" format="2">
  <advance width="454.928"/>
  <unicode hex="0463"/>
  <outline>
    <contour>
      <point x="248" y="-10" type="curve" smooth="yes"/>
      <point x="351" y="-10"/>
      <point x="429" y="36"/>
      <point x="429" y="161" type="curve" smooth="yes"/>
      <point x="429" y="279"/>
      <point x="355" y="332"/>
      <point x="266" y="332" type="curve" smooth="yes"/>
      <point x="234" y="332"/>
      <point x="202" y="324"/>
      <point x="178" y="316" type="curve"/>
      <point x="178" y="466" type="line"/>
      <point x="300" y="466" type="line"/>
      <point x="300" y="522" type="line"/>
      <point x="178" y="522" type="line"/>
      <point x="178" y="760" type="line"/>
      <point x="109" y="760" type="line"/>
      <point x="109" y="522" type="line"/>
      <point x="15" y="522" type="line"/>
      <point x="15" y="466" type="line"/>
      <point x="109" y="466" type="line"/>
      <point x="109" y="14" type="line"/>
      <point x="147" y="0"/>
      <point x="206" y="-10"/>
    </contour>
    <contour>
      <point x="252" y="50" type="curve" smooth="yes"/>
      <point x="227" y="50"/>
      <point x="197" y="55"/>
      <point x="178" y="61" type="curve"/>
      <point x="178" y="254" type="line"/>
      <point x="200" y="264"/>
      <point x="226" y="270"/>
      <point x="257" y="270" type="curve" smooth="yes"/>
      <point x="322" y="270"/>
      <point x="358" y="230"/>
      <point x="358" y="160" type="curve" smooth="yes"/>
      <point x="358" y="86"/>
      <point x="319" y="50"/>
    </contour>
  </outline>
</glyph>
<glyph name="Fita-cy" format="2">
  <advance width="594.964"/>
  <unicode hex="0472"/>
  <outline>
    <contour>
      <point x="296" y="-10" type="curve" smooth="yes"/>
      <point x="447" y="-10"/>
      <point x="534" y="119"/>
      <point x="534" y="345" type="curve" smooth="yes"/>
      <point x="534" y="573"/>
      <point x="447" y="704"/>
      <point x="296" y="704" type="curve" smooth="yes"/>
      <point x="144" y="704"/>
      <point x="58" y="573"/>
      <point x="58" y="345" type="curve" smooth="yes"/>
      <point x="58" y="119"/>
      <point x="144" y="-10"/>
    </contour>
    <contour>
      <point x="296" y="52" type="curve" smooth="yes"/>
      <point x="197" y="52"/>
      <point x="142" y="140"/>
      <point x="134" y="303" type="curve"/>
      <point x="154" y="327"/>
      <point x="182" y="342"/>
      <point x="214" y="342" type="curve" smooth="yes"/>
      <point x="273" y="342"/>
      <point x="302" y="283"/>
      <point x="374" y="283" type="curve" smooth="yes"/>
      <point x="406" y="283"/>
      <point x="433" y="294"/>
      <point x="457" y="318" type="curve"/>
      <point x="453" y="147"/>
      <point x="398" y="52"/>
    </contour>
    <contour>
      <point x="377" y="342" type="curve" smooth="yes"/>
      <point x="321" y="342"/>
      <point x="289" y="401"/>
      <point x="217" y="401" type="curve" smooth="yes"/>
      <point x="184" y="401"/>
      <point x="157" y="389"/>
      <point x="134" y="366" type="curve"/>
      <point x="136" y="544"/>
      <point x="192" y="641"/>
      <point x="296" y="641" type="curve" smooth="yes"/>
      <point x="395" y="641"/>
      <point x="450" y="551"/>
      <point x="456" y="383" type="curve"/>
      <point x="436" y="357"/>
      <point x="407" y="342"/>
    </contour>
  </outline>
</glyph>
<glyph name="Iishorttail-cy" format="2">
  <advance width="591.182"/>
  <unicode hex="048A"/>
  <outline>
    <contour>
      <point x="451" y="-188" type="line"/>
      <point x="508" y="-130"/>
      <point x="549" y="-45"/>
      <point x="550" y="49" type="curve" smooth="yes"/>
      <point x="550" y="62" type="line"/>
      <point x="493" y="62" type="line"/>
      <point x="493" y="693" type="line"/>
      <point x="427" y="693" type="line"/>
      <point x="333" y="535"/>
      <point x="230" y="337"/>
      <point x="153" y="159" type="curve"/>
      <point x="153" y="693" type="line"/>
      <point x="84" y="693" type="line"/>
      <point x="84" y="0" type="line"/>
      <point x="147" y="0" type="line"/>
      <point x="226" y="189"/>
      <point x="325" y="394"/>
      <point x="424" y="565" type="curve"/>
      <point x="424" y="0" type="line"/>
      <point x="475" y="0" type="line"/>
      <point x="467" y="-59"/>
      <point x="444" y="-111"/>
      <point x="403" y="-154" type="curve"/>
    </contour>
    <contour>
      <point x="294" y="758" type="curve" smooth="yes"/>
      <point x="358" y="758"/>
      <point x="406" y="801"/>
      <point x="415" y="877" type="curve"/>
      <point x="368" y="888" type="line"/>
      <point x="357" y="829"/>
      <point x="331" y="809"/>
      <point x="294" y="809" type="curve" smooth="yes"/>
      <point x="257" y="809"/>
      <point x="232" y="830"/>
      <point x="221" y="888" type="curve"/>
      <point x="172" y="878" type="line"/>
      <point x="182" y="801"/>
      <point x="230" y="758"/>
    </contour>
  </outline>
</glyph>
<glyph name="Semisoftsign-cy" format="2">
  <advance width="494"/>
  <unicode hex="048C"/>
  <outline>
    <contour>
      <point x="232" y="-5" type="curve" smooth="yes"/>
      <point x="380" y="-5"/>
      <point x="460" y="70"/>
      <point x="460" y="212" type="curve" smooth="yes"/>
      <point x="460" y="333"/>
      <point x="400" y="420"/>
      <point x="238" y="419" type="curve" smooth="yes"/>
      <point x="213" y="419"/>
      <point x="187" y="416"/>
      <point x="162" y="414" type="curve"/>
      <point x="162" y="552" type="line"/>
      <point x="267" y="552" type="line"/>
      <point x="267" y="608" type="line"/>
      <point x="162" y="608" type="line"/>
      <point x="162" y="693" type="line"/>
      <point x="90" y="693" type="line"/>
      <point x="90" y="608" type="line"/>
      <point x="20" y="608" type="line"/>
      <point x="20" y="552" type="line"/>
      <point x="90" y="552" type="line"/>
      <point x="90" y="12" type="line"/>
      <point x="133" y="2"/>
      <point x="186" y="-5"/>
    </contour>
    <contour>
      <point x="232" y="59" type="curve" smooth="yes"/>
      <point x="209" y="59"/>
      <point x="182" y="62"/>
      <point x="162" y="65" type="curve"/>
      <point x="162" y="351" type="line"/>
      <point x="184" y="354"/>
      <point x="211" y="356"/>
      <point x="237" y="356" type="curve" smooth="yes"/>
      <point x="353" y="357"/>
      <point x="385" y="297"/>
      <point x="385" y="210" type="curve" smooth="yes"/>
      <point x="385" y="106"/>
      <point x="337" y="59"/>
    </contour>
  </outline>
</glyph>
<glyph name="gemiddlehook-cy" format="2">
  <advance width="422.674"/>
  <unicode hex="0495"/>
  <outline>
    <contour>
      <point x="243" y="-187" type="curve" smooth="yes"/>
      <point x="334" y="-187"/>
      <point x="390" y="-102"/>
      <point x="390" y="68" type="curve" smooth="yes"/>
      <point x="390" y="235"/>
      <point x="332" y="322"/>
      <point x="233" y="322" type="curve" smooth="yes"/>
      <point x="198" y="322"/>
      <point x="172" y="314"/>
      <point x="147" y="302" type="curve"/>
      <point x="147" y="462" type="line"/>
      <point x="320" y="462" type="line"/>
      <point x="320" y="522" type="line"/>
      <point x="78" y="522" type="line"/>
      <point x="78" y="0" type="line"/>
      <point x="147" y="0" type="line"/>
      <point x="147" y="244" type="line"/>
      <point x="166" y="255"/>
      <point x="196" y="264"/>
      <point x="223" y="264" type="curve" smooth="yes"/>
      <point x="288" y="264"/>
      <point x="324" y="200"/>
      <point x="324" y="67" type="curve" smooth="yes"/>
      <point x="324" y="-71"/>
      <point x="292" y="-128"/>
      <point x="239" y="-128" type="curve" smooth="yes"/>
      <point x="228" y="-128"/>
      <point x="216" y="-127"/>
      <point x="207" y="-125" type="curve"/>
      <point x="203" y="-182" type="line"/>
      <point x="216" y="-185"/>
      <point x="231" y="-187"/>
    </contour>
  </outline>
</glyph>
<glyph name="kaverticalstroke-cy" format="2">
  <advance width="448.198"/>
  <unicode hex="049D"/>
  <outline>
    <contour>
      <point x="78" y="0" type="line"/>
      <point x="147" y="0" type="line"/>
      <point x="147" y="252" type="line"/>
      <point x="184" y="252" type="line"/>
      <point x="184" y="125" type="line"/>
      <point x="227" y="125" type="line"/>
      <point x="227" y="252" type="line"/>
      <point x="281" y="185"/>
      <point x="336" y="88"/>
      <point x="368" y="0" type="curve"/>
      <point x="442" y="0" type="line"/>
      <point x="407" y="96"/>
      <point x="343" y="207"/>
      <point x="283" y="281" type="curve"/>
      <point x="335" y="354"/>
      <point x="386" y="438"/>
      <point x="425" y="522" type="curve"/>
      <point x="354" y="522" type="line"/>
      <point x="323" y="455"/>
      <point x="276" y="374"/>
      <point x="227" y="303" type="curve"/>
      <point x="227" y="422" type="line"/>
      <point x="184" y="422" type="line"/>
      <point x="184" y="303" type="line"/>
      <point x="147" y="303" type="line"/>
      <point x="147" y="522" type="line"/>
      <point x="78" y="522" type="line"/>
    </contour>
  </outline>
</glyph>
<glyph name="kastroke-cy" format="2">
  <advance width="395.576"/>
  <unicode hex="049F"/>
  <outline>
    <contour>
      <point x="78" y="0" type="line"/>
      <point x="147" y="0" type="line"/>
      <point x="147" y="252" type="line"/>
      <point x="219" y="182"/>
      <point x="277" y="89"/>
      <point x="317" y="0" type="curve"/>
      <point x="392" y="0" type="line"/>
      <point x="352" y="95"/>
      <point x="284" y="203"/>
      <point x="210" y="278" type="curve"/>
      <point x="270" y="352"/>
      <point x="325" y="434"/>
      <point x="377" y="522" type="curve"/>
      <point x="302" y="522" type="line"/>
      <point x="261" y="451"/>
      <point x="207" y="369"/>
      <point x="147" y="295" type="curve"/>
      <point x="147" y="648" type="line"/>
      <point x="222" y="648" type="line"/>
      <point x="222" y="693" type="line"/>
      <point x="147" y="693" type="line"/>
      <point x="147" y="776" type="line"/>
      <point x="78" y="763" type="line"/>
      <point x="78" y="693" type="line"/>
      <point x="12" y="693" type="line"/>
      <point x="12" y="648" type="line"/>
      <point x="78" y="648" type="line"/>
    </contour>
  </outline>
</glyph>
<glyph name="Kabashkir-cy" format="2">
  <advance width="539.41"/>
  <unicode hex="04A0"/>
  <outline>
    <contour>
      <point x="138" y="0" type="line"/>
      <point x="210" y="0" type="line"/>
      <point x="210" y="329" type="line"/>
      <point x="304" y="249"/>
      <point x="389" y="121"/>
      <point x="443" y="0" type="curve"/>
      <point x="522" y="0" type="line"/>
      <point x="466" y="128"/>
      <point x="370" y="269"/>
      <point x="274" y="360" type="curve"/>
      <point x="354" y="462"/>
      <point x="428" y="572"/>
      <point x="500" y="693" type="curve"/>
      <point x="427" y="693" type="line"/>
      <point x="366" y="591"/>
      <point x="292" y="480"/>
      <point x="210" y="378" type="curve"/>
      <point x="210" y="693" type="line"/>
      <point x="14" y="693" type="line"/>
      <point x="14" y="631" type="line"/>
      <point x="138" y="631" type="line"/>
    </contour>
  </outline>
</glyph>
<glyph name="ustraightstroke-cy" format="2">
  <advance width="386.814"/>
  <unicode hex="04B1"/>
  <outline>
    <contour>
      <point x="159" y="-185" type="line"/>
      <point x="227" y="-185" type="line"/>
      <point x="227" y="0" type="line"/>
      <point x="335" y="0" type="line"/>
      <point x="335" y="49" type="line"/>
      <point x="244" y="49" type="line"/>
      <point x="291" y="169"/>
      <point x="342" y="361"/>
      <point x="369" y="522" type="curve"/>
      <point x="300" y="522" type="line"/>
      <point x="277" y="377"/>
      <point x="239" y="212"/>
      <point x="195" y="81" type="curve"/>
      <point x="150" y="211"/>
      <point x="112" y="377"/>
      <point x="90" y="522" type="curve"/>
      <point x="18" y="522" type="line"/>
      <point x="44" y="361"/>
      <point x="96" y="169"/>
      <point x="143" y="49" type="curve"/>
      <point x="51" y="49" type="line"/>
      <point x="51" y="0" type="line"/>
      <point x="159" y="0" type="line"/>
    </contour>
  </outline>
</glyph>
<glyph name="Hadescender-cy" format="2">
  <advance width="461.198"/>
  <unicode hex="04B2"/>
  <outline>
    <contour>
      <point x="384" y="-185" type="line"/>
      <point x="454" y="-185" type="line"/>
      <point x="454" y="64" type="line"/>
      <point x="397" y="64" type="line"/>
      <point x="360" y="162"/>
      <point x="323" y="247"/>
      <point x="264" y="365" type="curve"/>
      <point x="413" y="693" type="line"/>
      <point x="339" y="693" type="line"/>
      <point x="220" y="416" type="line"/>
      <point x="102" y="693" type="line"/>
      <point x="25" y="693" type="line"/>
      <point x="175" y="362" type="line"/>
      <point x="96" y="202"/>
      <point x="55" y="106"/>
      <point x="16" y="0" type="curve"/>
      <point x="89" y="0" type="line"/>
      <point x="122" y="98"/>
      <point x="161" y="188"/>
      <point x="218" y="305" type="curve"/>
      <point x="272" y="197"/>
      <point x="307" y="114"/>
      <point x="347" y="0" type="curve"/>
      <point x="384" y="0" type="line"/>
    </contour>
  </outline>
</glyph>
<glyph name="Kahook-cy" format="2">
  <advance width="493.348"/>
  <unicode hex="04C3"/>
  <outline>
    <contour>
      <point x="262" y="-185" type="curve" smooth="yes"/>
      <point x="381" y="-185"/>
      <point x="449" y="-82"/>
      <point x="449" y="104" type="curve" smooth="yes"/>
      <point x="449" y="273"/>
      <point x="391" y="383"/>
      <point x="242" y="393" type="curve"/>
      <point x="315" y="485"/>
      <point x="382" y="585"/>
      <point x="447" y="693" type="curve"/>
      <point x="373" y="693" type="line"/>
      <point x="312" y="591"/>
      <point x="238" y="480"/>
      <point x="156" y="378" type="curve"/>
      <point x="156" y="693" type="line"/>
      <point x="84" y="693" type="line"/>
      <point x="84" y="0" type="line"/>
      <point x="156" y="0" type="line"/>
      <point x="156" y="325" type="line"/>
      <point x="173" y="331"/>
      <point x="189" y="335"/>
      <point x="208" y="335" type="curve" smooth="yes"/>
      <point x="334" y="335"/>
      <point x="378" y="249"/>
      <point x="378" y="104" type="curve" smooth="yes"/>
      <point x="378" y="-56"/>
      <point x="334" y="-124"/>
      <point x="256" y="-124" type="curve" smooth="yes"/>
      <point x="242" y="-124"/>
      <point x="231" y="-124"/>
      <point x="220" y="-120" type="curve"/>
      <point x="217" y="-180" type="line"/>
      <point x="232" y="-184"/>
      <point x="245" y="-185"/>
    </contour>
  </outline>
</glyph>
<glyph name="kahook-cy" format="2">
  <advance width="401.664"/>
  <unicode hex="04C4"/>
  <outline>
    <contour>
      <point x="230" y="-187" type="curve" smooth="yes"/>
      <point x="324" y="-187"/>
      <point x="383" y="-107"/>
      <point x="383" y="54" type="curve" smooth="yes"/>
      <point x="383" y="196"/>
      <point x="328" y="277"/>
      <point x="217" y="287" type="curve"/>
      <point x="274" y="360"/>
      <point x="327" y="438"/>
      <point x="376" y="522" type="curve"/>
      <point x="302" y="522" type="line"/>
      <point x="260" y="450"/>
      <point x="205" y="363"/>
      <point x="147" y="287" type="curve"/>
      <point x="147" y="522" type="line"/>
      <point x="78" y="522" type="line"/>
      <point x="78" y="0" type="line"/>
      <point x="147" y="0" type="line"/>
      <point x="147" y="230" type="line"/>
      <point x="158" y="234"/>
      <point x="170" y="236"/>
      <point x="186" y="236" type="curve" smooth="yes"/>
      <point x="271" y="236"/>
      <point x="317" y="176"/>
      <point x="317" y="53" type="curve" smooth="yes"/>
      <point x="317" y="-76"/>
      <point x="283" y="-128"/>
      <point x="226" y="-128" type="curve" smooth="yes"/>
      <point x="214" y="-128"/>
      <point x="203" y="-127"/>
      <point x="193" y="-125" type="curve"/>
      <point x="190" y="-182" type="line"/>
      <point x="203" y="-185"/>
      <point x="217" y="-187"/>
    </contour>
  </outline>
</glyph>
<glyph name="Enhook-cy" format="2">
  <advance width="565.218"/>
  <unicode hex="04C7"/>
  <outline>
    <contour>
      <point x="359" y="-187" type="curve" smooth="yes"/>
      <point x="441" y="-187"/>
      <point x="481" y="-133"/>
      <point x="481" y="-43" type="curve" smooth="yes"/>
      <point x="481" y="693" type="line"/>
      <point x="409" y="693" type="line"/>
      <point x="409" y="393" type="line"/>
      <point x="156" y="393" type="line"/>
      <point x="156" y="693" type="line"/>
      <point x="84" y="693" type="line"/>
      <point x="84" y="0" type="line"/>
      <point x="156" y="0" type="line"/>
      <point x="156" y="330" type="line"/>
      <point x="409" y="330" type="line"/>
      <point x="409" y="-49" type="line" smooth="yes"/>
      <point x="409" y="-102"/>
      <point x="392" y="-126"/>
      <point x="353" y="-126" type="curve" smooth="yes"/>
      <point x="338" y="-126"/>
      <point x="323" y="-124"/>
      <point x="310" y="-120" type="curve"/>
      <point x="300" y="-177" type="line"/>
      <point x="317" y="-184"/>
      <point x="335" y="-187"/>
    </contour>
  </outline>
</glyph>
<glyph name="Entail-cy" format="2">
  <advance width="579.524"/>
  <unicode hex="04C9"/>
  <outline>
    <contour>
      <point x="439" y="-188" type="line"/>
      <point x="498" y="-130"/>
      <point x="538" y="-47"/>
      <point x="538" y="62" type="curve"/>
      <point x="481" y="62" type="line"/>
      <point x="481" y="693" type="line"/>
      <point x="409" y="693" type="line"/>
      <point x="409" y="393" type="line"/>
      <point x="156" y="393" type="line"/>
      <point x="156" y="693" type="line"/>
      <point x="84" y="693" type="line"/>
      <point x="84" y="0" type="line"/>
      <point x="156" y="0" type="line"/>
      <point x="156" y="330" type="line"/>
      <point x="409" y="330" type="line"/>
      <point x="409" y="0" type="line"/>
      <point x="464" y="0" type="line"/>
      <point x="455" y="-59"/>
      <point x="433" y="-111"/>
      <point x="392" y="-154" type="curve"/>
    </contour>
  </outline>
</glyph>
<glyph name="Chekhakassian-cy" format="2">
  <advance width="494.84"/>
  <unicode hex="04CB"/>
  <outline>
    <contour>
      <point x="289" y="-185" type="line"/>
      <point x="359" y="-185" type="line"/>
      <point x="359" y="0" type="line"/>
      <point x="411" y="0" type="line"/>
      <point x="411" y="693" type="line"/>
      <point x="339" y="693" type="line"/>
      <point x="339" y="332" type="line"/>
      <point x="304" y="318"/>
      <point x="266" y="314"/>
      <point x="229" y="314" type="curve" smooth="yes"/>
      <point x="155" y="314"/>
      <point x="120" y="352"/>
      <point x="120" y="456" type="curve" smooth="yes"/>
      <point x="120" y="693" type="line"/>
      <point x="49" y="693" type="line"/>
      <point x="49" y="445" type="line" smooth="yes"/>
      <point x="49" y="309"/>
      <point x="111" y="251"/>
      <point x="222" y="251" type="curve" smooth="yes"/>
      <point x="265" y="251"/>
      <point x="303" y="257"/>
      <point x="339" y="269" type="curve"/>
      <point x="339" y="58" type="line"/>
      <point x="289" y="58" type="line"/>
    </contour>
  </outline>
</glyph>
<glyph name="obarred-cy" format="2">
  <advance width="455.876"/>
  <unicode hex="04E9"/>
  <anchor x="228" y="522" name="top"/>
  <outline>
    <contour>
      <point x="228" y="-11" type="curve" smooth="yes"/>
      <point x="341" y="-11"/>
      <point x="406" y="88"/>
      <point x="406" y="262" type="curve" smooth="yes"/>
      <point x="406" y="435"/>
      <point x="341" y="535"/>
      <point x="228" y="535" type="curve" smooth="yes"/>
      <point x="115" y="535"/>
      <point x="50" y="435"/>
      <point x="50" y="262" type="curve" smooth="yes"/>
      <point x="50" y="88"/>
      <point x="115" y="-11"/>
    </contour>
    <contour>
      <point x="228" y="48" type="curve" smooth="yes"/>
      <point x="162" y="48"/>
      <point x="123" y="116"/>
      <point x="121" y="242" type="curve"/>
      <point x="336" y="242" type="line"/>
      <point x="333" y="115"/>
      <point x="295" y="48"/>
    </contour>
    <contour>
      <point x="121" y="290" type="line"/>
      <point x="125" y="411"/>
      <point x="163" y="475"/>
      <point x="228" y="475" type="curve" smooth="yes"/>
      <point x="293" y="475"/>
      <point x="331" y="411"/>
      <point x="336" y="290" type="curve"/>
    </contour>
  </outline>
</glyph>
<glyph name="prosgegrammeni" format="2">
  <advance width="370.422"/>
  <unicode hex="1FBE"/>
  <anchor x="132" y="0" name="_bottom"/>
  <outline>
    <contour>
      <point x="203" y="-192" type="curve" smooth="yes"/>
      <point x="215" y="-192"/>
      <point x="225" y="-191"/>
      <point x="234" y="-188" type="curve"/>
      <point x="234" y="-143" type="line"/>
      <point x="177" y="-143"/>
      <point x="164" y="-123"/>
      <point x="164" y="-77" type="curve" smooth="yes"/>
      <point x="164" y="-57" type="line"/>
      <point x="104" y="-57" type="line"/>
      <point x="102" y="-67"/>
      <point x="102" y="-77"/>
      <point x="102" y="-85" type="curve"/>
      <point x="102" y="-161"/>
      <point x="149" y="-192"/>
    </contour>
  </outline>
</glyph>
<glyph name="psili" format="2">
  <advance width="154"/>
  <unicode hex="1FBF"/>
  <anchor x="154" y="522" name="_top"/>
  <outline>
    <contour>
      <point x="128" y="597" type="line"/>
      <point x="178" y="637"/>
      <point x="220" y="687"/>
      <point x="220" y="745" type="curve" smooth="yes"/>
      <point x="220" y="774"/>
      <point x="203" y="790"/>
      <point x="178" y="790" type="curve" smooth="yes"/>
      <point x="156" y="790"/>
      <point x="138" y="774"/>
      <point x="138" y="749" type="curve" smooth="yes"/>
      <point x="138" y="734"/>
      <point x="146" y="715"/>
      <point x="167" y="708" type="curve"/>
      <point x="158" y="673"/>
      <point x="127" y="646"/>
      <point x="102" y="622" type="curve"/>
    </contour>
  </outline>
</glyph>
<glyph name="perispomeni" format="2">
  <advance width="314"/>
  <unicode hex="1FC0"/>
  <anchor x="157" y="522" name="_top"/>
  <outline>
    <contour>
      <point x="47" y="630" type="curve"/>
      <point x="94" y="630" type="line"/>
      <point x="96" y="680"/>
      <point x="115" y="708"/>
      <point x="157" y="708" type="curve" smooth="yes"/>
      <point x="199" y="708"/>
      <point x="218" y="680"/>
      <point x="220" y="630" type="curve"/>
      <point x="267" y="630" type="line"/>
      <point x="267" y="708"/>
      <point x="228" y="758"/>
      <point x="157" y="758" type="curve" smooth="yes"/>
      <point x="86" y="758"/>
      <point x="47" y="708"/>
    </contour>
  </outline>
</glyph>
<glyph name="psilivaria" format="2">
  <advance width="182"/>
  <unicode hex="1FCD"/>
  <anchor x="182" y="522" name="_top"/>
  <outline>
    <contour>
      <point x="278" y="592" type="line"/>
      <point x="314" y="609" type="line"/>
      <point x="243" y="789" type="line"/>
      <point x="192" y="766" type="line"/>
    </contour>
    <contour>
      <point x="63" y="597" type="line"/>
      <point x="114" y="637"/>
      <point x="153" y="687"/>
      <point x="153" y="745" type="curve" smooth="yes"/>
      <point x="153" y="774"/>
      <point x="138" y="790"/>
      <point x="113" y="790" type="curve" smooth="yes"/>
      <point x="91" y="790"/>
      <point x="74" y="774"/>
      <point x="74" y="749" type="curve" smooth="yes"/>
      <point x="74" y="734"/>
      <point x="82" y="715"/>
      <point x="104" y="708" type="curve"/>
      <point x="94" y="673"/>
      <point x="63" y="646"/>
      <point x="38" y="622" type="curve"/>
    </contour>
  </outline>
</glyph>
<glyph name="psilioxia" format="2">
  <advance width="326"/>
  <unicode hex="1FCE"/>
  <anchor x="157" y="522" name="_top"/>
  <outline>
    <contour>
      <point x="216" y="592" type="line"/>
      <point x="302" y="766" type="line"/>
      <point x="251" y="789" type="line"/>
      <point x="179" y="609" type="line"/>
    </contour>
    <contour>
      <point x="67" y="597" type="line"/>
      <point x="117" y="637"/>
      <point x="157" y="687"/>
      <point x="157" y="745" type="curve" smooth="yes"/>
      <point x="157" y="774"/>
      <point x="141" y="790"/>
      <point x="117" y="790" type="curve" smooth="yes"/>
      <point x="94" y="790"/>
      <point x="78" y="774"/>
      <point x="78" y="749" type="curve" smooth="yes"/>
      <point x="78" y="734"/>
      <point x="86" y="715"/>
      <point x="107" y="708" type="curve"/>
      <point x="96" y="673"/>
      <point x="67" y="646"/>
      <point x="42" y="622" type="curve"/>
    </contour>
  </outline>
</glyph>
<glyph name="dasiavaria" format="2">
  <advance width="184"/>
  <unicode hex="1FDD"/>
  <anchor x="184" y="522" name="_top"/>
  <outline>
    <contour>
      <point x="247" y="592" type="line"/>
      <point x="284" y="609" type="line"/>
      <point x="212" y="789" type="line"/>
      <point x="161" y="766" type="line"/>
    </contour>
    <contour>
      <point x="127" y="597" type="curve"/>
      <point x="152" y="619" type="line"/>
      <point x="127" y="644"/>
      <point x="96" y="673"/>
      <point x="86" y="708" type="curve"/>
      <point x="107" y="715"/>
      <point x="116" y="734"/>
      <point x="116" y="749" type="curve" smooth="yes"/>
      <point x="116" y="774"/>
      <point x="99" y="790"/>
      <point x="77" y="790" type="curve" smooth="yes"/>
      <point x="51" y="790"/>
      <point x="37" y="774"/>
      <point x="37" y="745" type="curve" smooth="yes"/>
      <point x="37" y="687"/>
      <point x="76" y="637"/>
    </contour>
  </outline>
</glyph>
<glyph name="varia" format="2">
  <advance width="313.342"/>
  <unicode hex="1FEF"/>
  <anchor x="155" y="522" name="_top"/>
  <outline>
    <contour>
      <point x="205" y="594" type="line"/>
      <point x="232" y="631" type="line"/>
      <point x="81" y="766" type="line"/>
      <point x="40" y="716" type="line"/>
    </contour>
  </outline>
</glyph>
<glyph name="dagger" format="2">
  <advance width="372.964"/>
  <unicode hex="2020"/>
  <outline>
    <contour>
      <point x="166" y="-145" type="curve"/>
      <point x="206" y="-145" type="line"/>
      <point x="213" y="-9"/>
      <point x="216" y="108"/>
      <point x="216" y="205" type="curve" smooth="yes"/>
      <point x="216" y="414" type="line"/>
      <point x="339" y="414" type="line"/>
      <point x="339" y="471" type="line"/>
      <point x="216" y="471" type="line"/>
      <point x="216" y="693" type="line"/>
      <point x="155" y="693" type="line"/>
      <point x="155" y="471" type="line"/>
      <point x="34" y="471" type="line"/>
      <point x="34" y="414" type="line"/>
      <point x="155" y="414" type="line"/>
      <point x="155" y="205" type="line" smooth="yes"/>
      <point x="155" y="108"/>
      <point x="160" y="-10"/>
    </contour>
  </outline>
</glyph>
<glyph name="daggerdbl" format="2">
  <advance width="372.964"/>
  <unicode hex="2021"/>
  <outline>
    <contour>
      <point x="166" y="-145" type="curve"/>
      <point x="206" y="-145" type="line"/>
      <point x="213" y="-13"/>
      <point x="216" y="78"/>
      <point x="216" y="143" type="curve"/>
      <point x="339" y="143" type="line"/>
      <point x="339" y="201" type="line"/>
      <point x="216" y="201" type="line"/>
      <point x="216" y="414" type="line"/>
      <point x="339" y="414" type="line"/>
      <point x="339" y="471" type="line"/>
      <point x="216" y="471" type="line"/>
      <point x="216" y="693" type="line"/>
      <point x="155" y="693" type="line"/>
      <point x="155" y="471" type="line"/>
      <point x="34" y="471" type="line"/>
      <point x="34" y="414" type="line"/>
      <point x="155" y="414" type="line"/>
      <point x="155" y="201" type="line"/>
      <point x="34" y="201" type="line"/>
      <point x="34" y="143" type="line"/>
      <point x="155" y="143" type="line"/>
      <point x="156" y="79"/>
      <point x="160" y="-13"/>
    </contour>
  </outline>
</glyph>
<glyph name="bullet" format="2">
  <advance width="328.114"/>
  <unicode hex="2022"/>
  <outline>
    <contour>
      <point x="164" y="246" type="curve" smooth="yes"/>
      <point x="224" y="246"/>
      <point x="269" y="289"/>
      <point x="269" y="353" type="curve" smooth="yes"/>
      <point x="269" y="416"/>
      <point x="225" y="457"/>
      <point x="164" y="457" type="curve" smooth="yes"/>
      <point x="103" y="457"/>
      <point x="59" y="417"/>
      <point x="59" y="353" type="curve" smooth="yes"/>
      <point x="59" y="289"/>
      <point x="103" y="246"/>
    </contour>
  </outline>
</glyph>
<glyph name="tugrik" format="2">
  <advance width="420"/>
  <unicode hex="20AE"/>
  <outline>
    <contour>
      <point x="175" y="0" type="line"/>
      <point x="246" y="0" type="line"/>
      <point x="246" y="206" type="line"/>
      <point x="369" y="266" type="line"/>
      <point x="347" y="312" type="line"/>
      <point x="246" y="263" type="line"/>
      <point x="246" y="383" type="line"/>
      <point x="369" y="443" type="line"/>
      <point x="347" y="488" type="line"/>
      <point x="246" y="439" type="line"/>
      <point x="246" y="632" type="line"/>
      <point x="400" y="632" type="line"/>
      <point x="400" y="693" type="line"/>
      <point x="21" y="693" type="line"/>
      <point x="21" y="632" type="line"/>
      <point x="175" y="632" type="line"/>
      <point x="175" y="404" type="line"/>
      <point x="53" y="344" type="line"/>
      <point x="76" y="300" type="line"/>
      <point x="175" y="348" type="line"/>
      <point x="175" y="228" type="line"/>
      <point x="53" y="169" type="line"/>
      <point x="77" y="123" type="line"/>
      <point x="175" y="172" type="line"/>
    </contour>
  </outline>
</glyph>
<glyph name="hryvnia" format="2">
  <advance width="420"/>
  <unicode hex="20B4"/>
  <outline>
    <contour>
      <point x="246" y="-11" type="curve" smooth="yes"/>
      <point x="294" y="-11"/>
      <point x="343" y="2"/>
      <point x="383" y="25" type="curve"/>
      <point x="362" y="86" type="line"/>
      <point x="327" y="64"/>
      <point x="289" y="50"/>
      <point x="248" y="50" type="curve" smooth="yes"/>
      <point x="170" y="50"/>
      <point x="126" y="98"/>
      <point x="126" y="174" type="curve" smooth="yes"/>
      <point x="126" y="199"/>
      <point x="130" y="218"/>
      <point x="138" y="235" type="curve"/>
      <point x="399" y="235" type="line"/>
      <point x="399" y="286" type="line"/>
      <point x="170" y="286" type="line"/>
      <point x="204" y="329"/>
      <point x="264" y="357"/>
      <point x="323" y="406" type="curve"/>
      <point x="399" y="406" type="line"/>
      <point x="399" y="457" type="line"/>
      <point x="357" y="457" type="line"/>
      <point x="368" y="477"/>
      <point x="376" y="501"/>
      <point x="376" y="530" type="curve" smooth="yes"/>
      <point x="376" y="630"/>
      <point x="308" y="704"/>
      <point x="193" y="704" type="curve" smooth="yes"/>
      <point x="148" y="704"/>
      <point x="107" y="693"/>
      <point x="71" y="675" type="curve"/>
      <point x="92" y="617" type="line"/>
      <point x="124" y="635"/>
      <point x="157" y="643"/>
      <point x="190" y="643" type="curve" smooth="yes"/>
      <point x="259" y="643"/>
      <point x="306" y="603"/>
      <point x="306" y="532" type="curve" smooth="yes"/>
      <point x="306" y="501"/>
      <point x="295" y="477"/>
      <point x="279" y="457" type="curve"/>
      <point x="22" y="457" type="line"/>
      <point x="22" y="406" type="line"/>
      <point x="225" y="406" type="line"/>
      <point x="175" y="367"/>
      <point x="124" y="339"/>
      <point x="85" y="286" type="curve"/>
      <point x="22" y="286" type="line"/>
      <point x="22" y="235" type="line"/>
      <point x="64" y="235" type="line"/>
      <point x="60" y="221"/>
      <point x="56" y="205"/>
      <point x="56" y="186" type="curve" smooth="yes"/>
      <point x="56" y="70"/>
      <point x="123" y="-11"/>
    </contour>
  </outline>
</glyph>
<glyph name="ruble" format="2">
  <advance width="420"/>
  <unicode hex="20BD"/>
  <outline>
    <contour>
      <point x="81" y="0" type="line"/>
      <point x="149" y="0" type="line"/>
      <point x="149" y="114" type="line"/>
      <point x="299" y="114" type="line"/>
      <point x="299" y="170" type="line"/>
      <point x="149" y="170" type="line"/>
      <point x="149" y="276" type="line"/>
      <point x="194" y="276" type="line" smooth="yes"/>
      <point x="328" y="276"/>
      <point x="406" y="354"/>
      <point x="406" y="490" type="curve" smooth="yes"/>
      <point x="406" y="622"/>
      <point x="332" y="700"/>
      <point x="205" y="700" type="curve" smooth="yes"/>
      <point x="167" y="700"/>
      <point x="125" y="695"/>
      <point x="81" y="685" type="curve"/>
      <point x="81" y="335" type="line"/>
      <point x="12" y="335" type="line"/>
      <point x="12" y="279" type="line"/>
      <point x="81" y="279" type="line"/>
      <point x="81" y="170" type="line"/>
      <point x="12" y="170" type="line"/>
      <point x="12" y="114" type="line"/>
      <point x="81" y="114" type="line"/>
    </contour>
    <contour>
      <point x="149" y="337" type="line"/>
      <point x="149" y="632" type="line"/>
      <point x="166" y="636"/>
      <point x="184" y="638"/>
      <point x="201" y="638" type="curve" smooth="yes"/>
      <point x="288" y="638"/>
      <point x="333" y="588"/>
      <point x="333" y="490" type="curve" smooth="yes"/>
      <point x="333" y="386"/>
      <point x="288" y="337"/>
      <point x="196" y="337" type="curve" smooth="yes"/>
    </contour>
  </outline>
</glyph>
<glyph name="product" format="2">
  <advance width="542.7"/>
  <unicode hex="220F"/>
  <outline>
    <contour>
      <point x="87" y="-109" type="line"/>
      <point x="160" y="-109" type="line"/>
      <point x="160" y="631" type="line"/>
      <point x="384" y="631" type="line"/>
      <point x="384" y="-109" type="line"/>
      <point x="456" y="-109" type="line"/>
      <point x="456" y="693" type="line"/>
      <point x="87" y="693" type="line"/>
    </contour>
  </outline>
</glyph>
<glyph name="radical" format="2">
  <advance width="434.99"/>
  <unicode hex="221A"/>
  <outline>
    <contour>
      <point x="199" y="-15" type="curve"/>
      <point x="276" y="-15" type="line"/>
      <point x="439" y="783" type="line"/>
      <point x="372" y="783" type="line"/>
      <point x="235" y="77" type="line"/>
      <point x="204" y="197"/>
      <point x="174" y="305"/>
      <point x="146" y="392" type="curve"/>
      <point x="18" y="359" type="line"/>
      <point x="33" y="307" type="line"/>
      <point x="101" y="323" type="line"/>
      <point x="133" y="226"/>
      <point x="161" y="129"/>
    </contour>
  </outline>
</glyph>
<glyph name="integral" format="2">
  <advance width="287.902"/>
  <unicode hex="222B"/>
  <outline>
    <contour>
      <point x="40" y="-185" type="curve" smooth="yes"/>
      <point x="136" y="-185"/>
      <point x="179" y="-115"/>
      <point x="179" y="-23" type="curve" smooth="yes"/>
      <point x="179" y="616" type="line" smooth="yes"/>
      <point x="179" y="687"/>
      <point x="208" y="714"/>
      <point x="249" y="714" type="curve" smooth="yes"/>
      <point x="280" y="714" type="line"/>
      <point x="280" y="775" type="line"/>
      <point x="272" y="776"/>
      <point x="259" y="776"/>
      <point x="247" y="776" type="curve" smooth="yes"/>
      <point x="151" y="776"/>
      <point x="108" y="706"/>
      <point x="108" y="615" type="curve" smooth="yes"/>
      <point x="108" y="-24" type="line" smooth="yes"/>
      <point x="108" y="-95"/>
      <point x="79" y="-122"/>
      <point x="38" y="-122" type="curve" smooth="yes"/>
      <point x="7" y="-122" type="line"/>
      <point x="7" y="-183" type="line"/>
      <point x="15" y="-185"/>
      <point x="28" y="-185"/>
    </contour>
  </outline>
</glyph>
<glyph name="approxequal" format="2">
  <advance width="420"/>
  <unicode hex="2248"/>
  <outline>
    <contour>
      <point x="288" y="136" type="curve" smooth="yes"/>
      <point x="342" y="136"/>
      <point x="380" y="176"/>
      <point x="395" y="264" type="curve"/>
      <point x="344" y="279" type="line"/>
      <point x="334" y="210"/>
      <point x="304" y="201"/>
      <point x="286" y="201" type="curve" smooth="yes"/>
      <point x="240" y="201"/>
      <point x="198" y="281"/>
      <point x="130" y="281" type="curve" smooth="yes"/>
      <point x="77" y="281"/>
      <point x="39" y="242"/>
      <point x="25" y="153" type="curve"/>
      <point x="75" y="139" type="line"/>
      <point x="85" y="208"/>
      <point x="115" y="216"/>
      <point x="133" y="216" type="curve" smooth="yes"/>
      <point x="178" y="216"/>
      <point x="222" y="136"/>
    </contour>
    <contour>
      <point x="288" y="317" type="curve" smooth="yes"/>
      <point x="342" y="317"/>
      <point x="380" y="357"/>
      <point x="395" y="446" type="curve"/>
      <point x="344" y="460" type="line"/>
      <point x="334" y="391"/>
      <point x="304" y="382"/>
      <point x="286" y="382" type="curve" smooth="yes"/>
      <point x="240" y="382"/>
      <point x="198" y="462"/>
      <point x="130" y="462" type="curve" smooth="yes"/>
      <point x="77" y="462"/>
      <point x="39" y="422"/>
      <point x="25" y="333" type="curve"/>
      <point x="75" y="319" type="line"/>
      <point x="85" y="389"/>
      <point x="115" y="397"/>
      <point x="133" y="397" type="curve" smooth="yes"/>
      <point x="178" y="397"/>
      <point x="222" y="317"/>
    </contour>
  </outline>
</glyph>
<glyph name="lessequal" format="2">
  <advance width="420"/>
  <unicode hex="2264"/>
  <outline>
    <contour>
      <point x="351" y="159" type="line"/>
      <point x="378" y="210" type="line"/>
      <point x="116" y="349" type="line"/>
      <point x="378" y="487" type="line"/>
      <point x="351" y="539" type="line"/>
      <point x="44" y="375" type="line"/>
      <point x="44" y="323" type="line"/>
    </contour>
    <contour>
      <point x="40" y="0" type="line"/>
      <point x="380" y="0" type="line"/>
      <point x="380" y="59" type="line"/>
      <point x="40" y="59" type="line"/>
    </contour>
  </outline>
</glyph>
<glyph name="lozenge" format="2">
  <advance width="435.876"/>
  <unicode hex="25CA"/>
  <outline>
    <contour>
      <point x="217" y="-19" type="curve"/>
      <point x="280" y="97"/>
      <point x="326" y="197"/>
      <point x="398" y="347" type="curve"/>
      <point x="326" y="497"/>
      <point x="280" y="597"/>
      <point x="217" y="713" type="curve"/>
      <point x="154" y="597"/>
      <point x="109" y="497"/>
      <point x="37" y="347" type="curve"/>
      <point x="108" y="197"/>
      <point x="155" y="97"/>
    </contour>
    <contour>
      <point x="217" y="100" type="curve"/>
      <point x="175" y="184"/>
      <point x="142" y="259"/>
      <point x="104" y="347" type="curve"/>
      <point x="142" y="435"/>
      <point x="174" y="510"/>
      <point x="217" y="595" type="curve"/>
      <point x="261" y="510"/>
      <point x="292" y="435"/>
      <point x="331" y="347" type="curve"/>
      <point x="293" y="259"/>
      <point x="260" y="184"/>
    </contour>
  </outline>
</glyph>
<glyph name="ampersand.c2sc" format="2">
  <advance width="442"/>
  <outline>
    <contour>
      <point x="196" y="-9" type="curve" smooth="yes"/>
      <point x="244" y="-9"/>
      <point x="294" y="17"/>
      <point x="330" y="64" type="curve"/>
      <point x="346" y="43"/>
      <point x="359" y="22"/>
      <point x="369" y="0" type="curve"/>
      <point x="439" y="0" type="line"/>
      <point x="416" y="47"/>
      <point x="391" y="88"/>
      <point x="371" y="117" type="curve"/>
      <point x="399" y="172"/>
      <point x="412" y="238"/>
      <point x="416" y="297" type="curve"/>
      <point x="356" y="304" type="line"/>
      <point x="353" y="254"/>
      <point x="343" y="209"/>
      <point x="329" y="172" type="curve"/>
      <point x="222" y="308" type="line"/>
      <point x="283" y="353"/>
      <point x="322" y="404"/>
      <point x="322" y="470" type="curve" smooth="yes"/>
      <point x="322" y="542"/>
      <point x="284" y="592"/>
      <point x="205" y="592" type="curve" smooth="yes"/>
      <point x="129" y="592"/>
      <point x="82" y="541"/>
      <point x="82" y="459" type="curve" smooth="yes"/>
      <point x="82" y="410"/>
      <point x="100" y="370"/>
      <point x="137" y="319" type="curve"/>
      <point x="72" y="269"/>
      <point x="38" y="221"/>
      <point x="38" y="143" type="curve" smooth="yes"/>
      <point x="38" y="62"/>
      <point x="94" y="-9"/>
    </contour>
    <contour>
      <point x="199" y="51" type="curve" smooth="yes"/>
      <point x="143" y="51"/>
      <point x="105" y="91"/>
      <point x="105" y="150" type="curve" smooth="yes"/>
      <point x="105" y="205"/>
      <point x="129" y="243"/>
      <point x="170" y="275" type="curve"/>
      <point x="297" y="111" type="line"/>
      <point x="272" y="74"/>
      <point x="236" y="51"/>
    </contour>
    <contour>
      <point x="189" y="350" type="curve"/>
      <point x="161" y="389"/>
      <point x="144" y="425"/>
      <point x="144" y="460" type="curve" smooth="yes"/>
      <point x="144" y="510"/>
      <point x="163" y="538"/>
      <point x="203" y="538" type="curve" smooth="yes"/>
      <point x="236" y="538"/>
      <point x="260" y="514"/>
      <point x="260" y="469" type="curve" smooth="yes"/>
      <point x="260" y="420"/>
      <point x="233" y="385"/>
    </contour>
  </outline>
</glyph>
<glyph name="brevecomb.cyr.sc" format="2">
  <anchor x="0" y="580" name="_top"/>
  <anchor x="0" y="782" name="top"/>
  <outline>
    <contour>
      <point x="-1" y="652" type="curve" smooth="yes"/>
      <point x="63" y="652"/>
      <point x="111" y="695"/>
      <point x="121" y="771" type="curve"/>
      <point x="73" y="782" type="line"/>
      <point x="61" y="723"/>
      <point x="36" y="703"/>
      <point x="-1" y="703" type="curve" smooth="yes"/>
      <point x="-38" y="703"/>
      <point x="-64" y="724"/>
      <point x="-74" y="782" type="curve"/>
      <point x="-122" y="772" type="line"/>
      <point x="-113" y="695"/>
      <point x="-65" y="652"/>
    </contour>
  </outline>
</glyph>
<glyph name="caron.asc" format="2">
  <advance width="314"/>
  <outline>
    <contour>
      <point x="157" y="828" type="line"/>
      <point x="271" y="923" type="line"/>
      <point x="244" y="959" type="line"/>
      <point x="157" y="896" type="line"/>
      <point x="69" y="959" type="line"/>
      <point x="43" y="923" type="line"/>
    </contour>
  </outline>
</glyph>
